M48
;DRILL file {KiCad 4.0.6} date Friday, January 05, 2018 'AMt' 09:26:49 AM
;FORMAT={-:-/ absolute / metric / decimal}
FMAT,2
METRIC,TZ
T1C0.330
T2C1.300
T3C0.900
T4C1.500
%
G90
G05
M71
T1
X73.025Y-106.553
X73.254Y-96.672
X73.914Y-105.918
X74.168Y-84.582
X74.168Y-86.106
X74.168Y-87.63
X74.295Y-83.058
X74.803Y-105.283
X75.565Y-104.648
X76.01Y-107.886
X76.327Y-81.915
X76.327Y-104.013
X76.708Y-108.648
X77.089Y-103.378
X77.66Y-108.966
X77.851Y-102.743
X78.105Y-81.788
X78.74Y-102.108
X80.645Y-76.2
X82.359Y-95.059
X82.423Y-83.058
X82.55Y-79.121
X82.55Y-83.947
X82.55Y-84.836
X82.55Y-85.725
X82.804Y-93.853
X82.931Y-90.043
X82.931Y-91.059
X82.931Y-92.075
X82.931Y-92.964
X82.931Y-101.219
X83.185Y-79.883
X83.312Y-95.441
X83.82Y-80.645
X83.901Y-111.806
X83.947Y-94.107
X84.138Y-92.71
X84.391Y-91.821
X84.663Y-69.936
X85.153Y-91.249
X85.583Y-69.936
X85.788Y-90.487
X85.979Y-111.379
X86.487Y-71.755
X86.995Y-69.088
X87.058Y-115.252
X87.376Y-71.755
X88.265Y-71.755
X88.392Y-93.98
X88.392Y-95.822
X89.154Y-73.279
X89.471Y-69.977
X89.535Y-96.52
X89.789Y-77.003
X89.852Y-85.852
X90.297Y-97.028
X90.297Y-107.251
X90.424Y-94.615
X90.932Y-97.663
X91.186Y-107.251
X91.567Y-98.298
X92.075Y-107.188
X92.288Y-99.106
X92.392Y-67.564
X92.456Y-80.518
X92.71Y-75.692
X92.71Y-78.613
X92.71Y-79.629
X93.027Y-71.755
X93.345Y-74.93
X93.472Y-81.026
X93.904Y-64.404
X93.919Y-65.471
X94.043Y-74.041
X94.234Y-81.788
X94.361Y-80.391
X94.742Y-83.82
X94.996Y-82.423
X95.504Y-83.185
X95.758Y-69.977
X95.948Y-73.977
X96.012Y-101.282
X96.075Y-95.313
X96.139Y-67.501
X96.139Y-85.217
X96.203Y-111.506
X97.663Y-65.278
X98.298Y-67.691
X98.933Y-70.104
X99.949Y-72.263
X99.949Y-101.219
X99.995Y-76.368
X100.012Y-95.313
X100.076Y-74.041
X100.076Y-85.471
X100.838Y-70.739
X100.838Y-71.628
X100.838Y-73.152
X100.965Y-64.516
X100.965Y-65.913
X100.965Y-66.802
X100.965Y-68.326
X100.965Y-69.215
X104.013Y-83.566
X104.013Y-89.281
X104.648Y-84.201
X104.648Y-85.09
X104.775Y-85.979
X104.775Y-86.868
X104.775Y-87.757
X105.41Y-93.853
X105.474Y-95.758
X105.537Y-75.692
X106.299Y-74.93
X106.362Y-111.442
X109.22Y-81.153
X109.347Y-78.74
X109.41Y-84.772
X109.791Y-85.661
X109.911Y-83.114
X109.982Y-80.518
X110.363Y-79.375
X110.426Y-84.582
X110.744Y-88.011
X110.998Y-74.803
X110.998Y-80.518
X111.061Y-83.82
X111.061Y-87.122
X111.887Y-75.692
X111.887Y-80.391
X112.776Y-76.581
X112.776Y-80.264
X113.474Y-107.505
X113.474Y-108.458
X113.538Y-77.216
X113.538Y-106.617
X113.602Y-105.727
X113.665Y-80.137
X115.926Y-78.765
X116.268Y-100.711
X116.459Y-111.442
X116.55Y-80.076
X117.157Y-100.711
X117.729Y-108.458
X118.11Y-100.711
X118.364Y-107.823
X118.681Y-106.997
X118.684Y-74.27
X118.684Y-75.535
X119.062Y-100.774
X119.507Y-106.553
X119.888Y-100.139
X120.015Y-88.582
X120.587Y-99.504
X121.475Y-99.441
X122.364Y-99.314
X123.952Y-81.28
X123.952Y-82.677
X123.952Y-89.535
X123.952Y-90.932
X123.952Y-91.821
X123.952Y-92.71
X123.952Y-93.599
X123.952Y-94.488
X124.14Y-99.995
X124.587Y-95.377
X124.714Y-90.17
X125.09Y-111.399
X125.095Y-83.149
X125.176Y-100.086
X125.349Y-87.566
X125.349Y-96.139
X125.588Y-80.696
X126.619Y-111.379
X126.746Y-95.377
X126.797Y-65.634
X127.889Y-84.328
X128.143Y-93.599
X128.207Y-87.376
X128.524Y-83.566
X128.905Y-88.773
X129.032Y-82.55
X129.476Y-83.82
X129.591Y-89.799
X129.731Y-88.265
X130.175Y-94.234
X130.429Y-83.693
X130.429Y-90.868
X130.846Y-94.762
X131.318Y-84.01
X131.826Y-73.025
X131.826Y-73.914
X131.953Y-74.93
X131.953Y-75.946
X132.05Y-81.869
X132.055Y-97.993
X132.07Y-92.878
X132.08Y-94.361
X132.273Y-85.949
X132.329Y-105.811
X132.461Y-100.266
X132.524Y-99.314
X132.588Y-76.708
X133.111Y-104.694
X133.116Y-111.806
X133.279Y-77.323
X133.401Y-78.43
X133.452Y-79.329
X133.477Y-99.314
X133.533Y-92.878
X133.604Y-81.915
X134.048Y-86.042
X134.452Y-94.483
X135.25Y-111.851
X135.319Y-107.442
X135.382Y-108.394
X135.7Y-99.377
X135.814Y-94.371
X135.997Y-102.657
X135.997Y-103.972
X136.017Y-109.093
X136.081Y-63.817
X136.144Y-110.045
X136.205Y-75.789
X136.207Y-110.934
X136.334Y-100.012
X136.652Y-71.755
X137.109Y-73.944
X137.16Y-100.457
X137.224Y-70.993
X137.368Y-81.798
X137.775Y-75.865
X137.912Y-79.416
X137.922Y-71.755
X137.922Y-76.865
X137.922Y-97.218
X138.049Y-100.711
X138.44Y-78.704
X138.623Y-75.9
X138.684Y-101.473
X138.684Y-102.489
X138.76Y-83.647
X138.811Y-97.257
X138.908Y-81.859
X139.065Y-73.152
X139.243Y-76.83
X139.822Y-92.928
X140.462Y-102.489
X140.574Y-86.934
X140.653Y-88.773
X140.653Y-89.662
X140.675Y-72.395
X140.706Y-81.976
X140.904Y-106.563
X141.376Y-100.178
X142.276Y-104.628
X143.434Y-81.168
X143.51Y-89.09
X143.551Y-84.597
X143.754Y-104.551
X144.018Y-92.202
X144.318Y-83.81
X144.335Y-88.9
X144.348Y-81.173
X145.202Y-71.725
X145.225Y-89.535
X146.05Y-90.043
X146.749Y-93.281
X147.168Y-71.603
X147.625Y-68.24
X147.665Y-70.698
X148.417Y-67.447
X148.57Y-70.642
X150.241Y-87.376
X150.592Y-91.75
X150.957Y-86.365
X152.463Y-102.298
X153.416Y-98.742
X154.178Y-103.124
X155.511Y-99.123
X155.511Y-103.124
X156.4Y-99.123
X157.78Y-64.74
X161.798Y-82.997
X161.808Y-89.108
X165.156Y-115.702
X165.862Y-73.025
X166.477Y-77.333
X166.624Y-72.39
X167.069Y-107.696
X167.069Y-114.617
X168.377Y-107.122
X171.567Y-77.074
X172.811Y-74.661
X173.492Y-75.291
X174.752Y-84.201
X176.276Y-101.727
X176.403Y-105.283
X177.546Y-80.264
X177.927Y-78.105
X179.705Y-115.252
X179.832Y-107.823
X179.832Y-120.142
X179.959Y-78.232
X181.056Y-75.946
X182.118Y-80.899
X185.42Y-76.2
X185.537Y-90.119
X186.334Y-83.515
X187.051Y-81.661
X187.579Y-71.501
X187.635Y-80.919
X189.423Y-75.087
X190.419Y-80.919
X191.008Y-75.184
X191.516Y-71.628
X193.421Y-73.914
X193.421Y-78.232
X196.51Y-80.742
X198.755Y-72.771
X199.898Y-79.375
X201.757Y-85.41
X204.917Y-78.207
T2
X150.918Y-112.994
X153.618Y-114.194
X156.118Y-120.994
X160.219Y-109.794
X160.719Y-117.094
T3
X163.662Y-67.954
X168.062Y-67.954
T4
X202.142Y-100.06
X202.142Y-124.26
T0
M30
