G04 #@! TF.FileFunction,Legend,Bot*
%FSLAX46Y46*%
G04 Gerber Fmt 4.6, Leading zero omitted, Abs format (unit mm)*
G04 Created by KiCad (PCBNEW 4.0.6) date Friday, January 05, 2018 'AMt' 09:34:44 AM*
%MOMM*%
%LPD*%
G01*
G04 APERTURE LIST*
%ADD10C,0.100000*%
%ADD11C,0.150000*%
%ADD12C,0.127000*%
%ADD13C,0.609600*%
G04 APERTURE END LIST*
D10*
D11*
X140644333Y-125928381D02*
X140644333Y-124928381D01*
X140310999Y-125642667D01*
X139977666Y-124928381D01*
X139977666Y-125928381D01*
X139501476Y-125404571D02*
X139168142Y-125404571D01*
X139025285Y-125928381D02*
X139501476Y-125928381D01*
X139501476Y-124928381D01*
X139025285Y-124928381D01*
X138596714Y-125928381D02*
X138596714Y-124928381D01*
X138025285Y-125928381D01*
X138025285Y-124928381D01*
X137549095Y-124928381D02*
X137549095Y-125737905D01*
X137501476Y-125833143D01*
X137453857Y-125880762D01*
X137358619Y-125928381D01*
X137168142Y-125928381D01*
X137072904Y-125880762D01*
X137025285Y-125833143D01*
X136977666Y-125737905D01*
X136977666Y-124928381D01*
X131270047Y-125404571D02*
X131603381Y-125404571D01*
X131603381Y-125928381D02*
X131603381Y-124928381D01*
X131127190Y-124928381D01*
X130412904Y-125404571D02*
X130746238Y-125404571D01*
X130746238Y-125928381D02*
X130746238Y-124928381D01*
X130270047Y-124928381D01*
X129984333Y-124928381D02*
X129746238Y-125928381D01*
X129555761Y-125214095D01*
X129365285Y-125928381D01*
X129127190Y-124928381D01*
X128031952Y-124880762D02*
X128889095Y-126166476D01*
X126936714Y-125261714D02*
X127698619Y-125547429D01*
X126936714Y-125833143D01*
X125698619Y-125261714D02*
X126460524Y-125547429D01*
X125698619Y-125833143D01*
X121038618Y-125404571D02*
X121371952Y-125404571D01*
X121371952Y-125928381D02*
X121371952Y-124928381D01*
X120895761Y-124928381D01*
X120181475Y-125404571D02*
X120514809Y-125404571D01*
X120514809Y-125928381D02*
X120514809Y-124928381D01*
X120038618Y-124928381D01*
X119657666Y-125928381D02*
X119657666Y-124928381D01*
X119419571Y-124928381D01*
X119276713Y-124976000D01*
X119181475Y-125071238D01*
X119133856Y-125166476D01*
X119086237Y-125356952D01*
X119086237Y-125499810D01*
X119133856Y-125690286D01*
X119181475Y-125785524D01*
X119276713Y-125880762D01*
X119419571Y-125928381D01*
X119657666Y-125928381D01*
X117943380Y-124880762D02*
X118800523Y-126166476D01*
X117610047Y-125261714D02*
X116848142Y-125547429D01*
X117610047Y-125833143D01*
X116371952Y-125261714D02*
X115610047Y-125547429D01*
X116371952Y-125833143D01*
X109592905Y-124928381D02*
X109259572Y-125928381D01*
X108926238Y-124928381D01*
X108402429Y-124928381D02*
X108211952Y-124928381D01*
X108116714Y-124976000D01*
X108021476Y-125071238D01*
X107973857Y-125261714D01*
X107973857Y-125595048D01*
X108021476Y-125785524D01*
X108116714Y-125880762D01*
X108211952Y-125928381D01*
X108402429Y-125928381D01*
X108497667Y-125880762D01*
X108592905Y-125785524D01*
X108640524Y-125595048D01*
X108640524Y-125261714D01*
X108592905Y-125071238D01*
X108497667Y-124976000D01*
X108402429Y-124928381D01*
X107069095Y-125928381D02*
X107545286Y-125928381D01*
X107545286Y-124928381D01*
X98909095Y-125404571D02*
X98575761Y-125404571D01*
X98432904Y-125928381D02*
X98909095Y-125928381D01*
X98909095Y-124928381D01*
X98432904Y-124928381D01*
X97337666Y-126023619D02*
X97432904Y-125976000D01*
X97528142Y-125880762D01*
X97670999Y-125737905D01*
X97766238Y-125690286D01*
X97861476Y-125690286D01*
X97813857Y-125928381D02*
X97909095Y-125880762D01*
X98004333Y-125785524D01*
X98051952Y-125595048D01*
X98051952Y-125261714D01*
X98004333Y-125071238D01*
X97909095Y-124976000D01*
X97813857Y-124928381D01*
X97623380Y-124928381D01*
X97528142Y-124976000D01*
X97432904Y-125071238D01*
X97385285Y-125261714D01*
X97385285Y-125595048D01*
X97432904Y-125785524D01*
X97528142Y-125880762D01*
X97623380Y-125928381D01*
X97813857Y-125928381D01*
X91939572Y-125928381D02*
X91939572Y-124928381D01*
X91558619Y-124928381D01*
X91463381Y-124976000D01*
X91415762Y-125023619D01*
X91368143Y-125118857D01*
X91368143Y-125261714D01*
X91415762Y-125356952D01*
X91463381Y-125404571D01*
X91558619Y-125452190D01*
X91939572Y-125452190D01*
X90463381Y-125928381D02*
X90939572Y-125928381D01*
X90939572Y-124928381D01*
X90177667Y-125642667D02*
X89701476Y-125642667D01*
X90272905Y-125928381D02*
X89939572Y-124928381D01*
X89606238Y-125928381D01*
X89082429Y-125452190D02*
X89082429Y-125928381D01*
X89415762Y-124928381D02*
X89082429Y-125452190D01*
X88749095Y-124928381D01*
X87701476Y-124880762D02*
X88558619Y-126166476D01*
X87415762Y-125880762D02*
X87272905Y-125928381D01*
X87034809Y-125928381D01*
X86939571Y-125880762D01*
X86891952Y-125833143D01*
X86844333Y-125737905D01*
X86844333Y-125642667D01*
X86891952Y-125547429D01*
X86939571Y-125499810D01*
X87034809Y-125452190D01*
X87225286Y-125404571D01*
X87320524Y-125356952D01*
X87368143Y-125309333D01*
X87415762Y-125214095D01*
X87415762Y-125118857D01*
X87368143Y-125023619D01*
X87320524Y-124976000D01*
X87225286Y-124928381D01*
X86987190Y-124928381D01*
X86844333Y-124976000D01*
X86558619Y-124928381D02*
X85987190Y-124928381D01*
X86272905Y-125928381D02*
X86272905Y-124928381D01*
X85463381Y-124928381D02*
X85272904Y-124928381D01*
X85177666Y-124976000D01*
X85082428Y-125071238D01*
X85034809Y-125261714D01*
X85034809Y-125595048D01*
X85082428Y-125785524D01*
X85177666Y-125880762D01*
X85272904Y-125928381D01*
X85463381Y-125928381D01*
X85558619Y-125880762D01*
X85653857Y-125785524D01*
X85701476Y-125595048D01*
X85701476Y-125261714D01*
X85653857Y-125071238D01*
X85558619Y-124976000D01*
X85463381Y-124928381D01*
X84606238Y-125928381D02*
X84606238Y-124928381D01*
X84225285Y-124928381D01*
X84130047Y-124976000D01*
X84082428Y-125023619D01*
X84034809Y-125118857D01*
X84034809Y-125261714D01*
X84082428Y-125356952D01*
X84130047Y-125404571D01*
X84225285Y-125452190D01*
X84606238Y-125452190D01*
X80288458Y-77216000D02*
G75*
G03X80288458Y-77216000I-341958J0D01*
G01*
D12*
X135965000Y-120702000D02*
X135965000Y-114502000D01*
X135965000Y-114502000D02*
X142165000Y-114502000D01*
X142165000Y-114502000D02*
X142165000Y-120702000D01*
X142165000Y-120702000D02*
X135965000Y-120702000D01*
D13*
X142615000Y-122202000D02*
G75*
G03X142615000Y-122202000I-50000J0D01*
G01*
D12*
X132005000Y-114502000D02*
X132005000Y-120702000D01*
X132005000Y-120702000D02*
X125805000Y-120702000D01*
X125805000Y-120702000D02*
X125805000Y-114502000D01*
X125805000Y-114502000D02*
X132005000Y-114502000D01*
D13*
X125455000Y-113002000D02*
G75*
G03X125455000Y-113002000I-50000J0D01*
G01*
D12*
X121845000Y-114502000D02*
X121845000Y-120702000D01*
X121845000Y-120702000D02*
X115645000Y-120702000D01*
X115645000Y-120702000D02*
X115645000Y-114502000D01*
X115645000Y-114502000D02*
X121845000Y-114502000D01*
D13*
X115295000Y-113002000D02*
G75*
G03X115295000Y-113002000I-50000J0D01*
G01*
D12*
X111685000Y-114502000D02*
X111685000Y-120702000D01*
X111685000Y-120702000D02*
X105485000Y-120702000D01*
X105485000Y-120702000D02*
X105485000Y-114502000D01*
X105485000Y-114502000D02*
X111685000Y-114502000D01*
D13*
X105135000Y-113002000D02*
G75*
G03X105135000Y-113002000I-50000J0D01*
G01*
D12*
X101525000Y-114502000D02*
X101525000Y-120702000D01*
X101525000Y-120702000D02*
X95325000Y-120702000D01*
X95325000Y-120702000D02*
X95325000Y-114502000D01*
X95325000Y-114502000D02*
X101525000Y-114502000D01*
D13*
X94975000Y-113002000D02*
G75*
G03X94975000Y-113002000I-50000J0D01*
G01*
D12*
X91365000Y-114502000D02*
X91365000Y-120702000D01*
X91365000Y-120702000D02*
X85165000Y-120702000D01*
X85165000Y-120702000D02*
X85165000Y-114502000D01*
X85165000Y-114502000D02*
X91365000Y-114502000D01*
D13*
X84815000Y-113002000D02*
G75*
G03X84815000Y-113002000I-50000J0D01*
G01*
D11*
X83272381Y-105394167D02*
X83986667Y-105394167D01*
X84129524Y-105346547D01*
X84224762Y-105251309D01*
X84272381Y-105108452D01*
X84272381Y-105013214D01*
X83367619Y-105822738D02*
X83320000Y-105870357D01*
X83272381Y-105965595D01*
X83272381Y-106203691D01*
X83320000Y-106298929D01*
X83367619Y-106346548D01*
X83462857Y-106394167D01*
X83558095Y-106394167D01*
X83700952Y-106346548D01*
X84272381Y-105775119D01*
X84272381Y-106394167D01*
X138993571Y-117197239D02*
X139041190Y-117340096D01*
X139088810Y-117387715D01*
X139184048Y-117435334D01*
X139326905Y-117435334D01*
X139422143Y-117387715D01*
X139469762Y-117340096D01*
X139517381Y-117244858D01*
X139517381Y-116863905D01*
X138517381Y-116863905D01*
X138517381Y-117197239D01*
X138565000Y-117292477D01*
X138612619Y-117340096D01*
X138707857Y-117387715D01*
X138803095Y-117387715D01*
X138898333Y-117340096D01*
X138945952Y-117292477D01*
X138993571Y-117197239D01*
X138993571Y-116863905D01*
X139517381Y-118387715D02*
X139517381Y-117816286D01*
X139517381Y-118102000D02*
X138517381Y-118102000D01*
X138660238Y-118006762D01*
X138755476Y-117911524D01*
X138803095Y-117816286D01*
X128833571Y-117197239D02*
X128881190Y-117340096D01*
X128928810Y-117387715D01*
X129024048Y-117435334D01*
X129166905Y-117435334D01*
X129262143Y-117387715D01*
X129309762Y-117340096D01*
X129357381Y-117244858D01*
X129357381Y-116863905D01*
X128357381Y-116863905D01*
X128357381Y-117197239D01*
X128405000Y-117292477D01*
X128452619Y-117340096D01*
X128547857Y-117387715D01*
X128643095Y-117387715D01*
X128738333Y-117340096D01*
X128785952Y-117292477D01*
X128833571Y-117197239D01*
X128833571Y-116863905D01*
X128452619Y-117816286D02*
X128405000Y-117863905D01*
X128357381Y-117959143D01*
X128357381Y-118197239D01*
X128405000Y-118292477D01*
X128452619Y-118340096D01*
X128547857Y-118387715D01*
X128643095Y-118387715D01*
X128785952Y-118340096D01*
X129357381Y-117768667D01*
X129357381Y-118387715D01*
X118673571Y-117197239D02*
X118721190Y-117340096D01*
X118768810Y-117387715D01*
X118864048Y-117435334D01*
X119006905Y-117435334D01*
X119102143Y-117387715D01*
X119149762Y-117340096D01*
X119197381Y-117244858D01*
X119197381Y-116863905D01*
X118197381Y-116863905D01*
X118197381Y-117197239D01*
X118245000Y-117292477D01*
X118292619Y-117340096D01*
X118387857Y-117387715D01*
X118483095Y-117387715D01*
X118578333Y-117340096D01*
X118625952Y-117292477D01*
X118673571Y-117197239D01*
X118673571Y-116863905D01*
X118197381Y-117768667D02*
X118197381Y-118387715D01*
X118578333Y-118054381D01*
X118578333Y-118197239D01*
X118625952Y-118292477D01*
X118673571Y-118340096D01*
X118768810Y-118387715D01*
X119006905Y-118387715D01*
X119102143Y-118340096D01*
X119149762Y-118292477D01*
X119197381Y-118197239D01*
X119197381Y-117911524D01*
X119149762Y-117816286D01*
X119102143Y-117768667D01*
X108513571Y-117197239D02*
X108561190Y-117340096D01*
X108608810Y-117387715D01*
X108704048Y-117435334D01*
X108846905Y-117435334D01*
X108942143Y-117387715D01*
X108989762Y-117340096D01*
X109037381Y-117244858D01*
X109037381Y-116863905D01*
X108037381Y-116863905D01*
X108037381Y-117197239D01*
X108085000Y-117292477D01*
X108132619Y-117340096D01*
X108227857Y-117387715D01*
X108323095Y-117387715D01*
X108418333Y-117340096D01*
X108465952Y-117292477D01*
X108513571Y-117197239D01*
X108513571Y-116863905D01*
X108370714Y-118292477D02*
X109037381Y-118292477D01*
X107989762Y-118054381D02*
X108704048Y-117816286D01*
X108704048Y-118435334D01*
X98353571Y-117197239D02*
X98401190Y-117340096D01*
X98448810Y-117387715D01*
X98544048Y-117435334D01*
X98686905Y-117435334D01*
X98782143Y-117387715D01*
X98829762Y-117340096D01*
X98877381Y-117244858D01*
X98877381Y-116863905D01*
X97877381Y-116863905D01*
X97877381Y-117197239D01*
X97925000Y-117292477D01*
X97972619Y-117340096D01*
X98067857Y-117387715D01*
X98163095Y-117387715D01*
X98258333Y-117340096D01*
X98305952Y-117292477D01*
X98353571Y-117197239D01*
X98353571Y-116863905D01*
X97877381Y-118340096D02*
X97877381Y-117863905D01*
X98353571Y-117816286D01*
X98305952Y-117863905D01*
X98258333Y-117959143D01*
X98258333Y-118197239D01*
X98305952Y-118292477D01*
X98353571Y-118340096D01*
X98448810Y-118387715D01*
X98686905Y-118387715D01*
X98782143Y-118340096D01*
X98829762Y-118292477D01*
X98877381Y-118197239D01*
X98877381Y-117959143D01*
X98829762Y-117863905D01*
X98782143Y-117816286D01*
X88193571Y-117324239D02*
X88241190Y-117467096D01*
X88288810Y-117514715D01*
X88384048Y-117562334D01*
X88526905Y-117562334D01*
X88622143Y-117514715D01*
X88669762Y-117467096D01*
X88717381Y-117371858D01*
X88717381Y-116990905D01*
X87717381Y-116990905D01*
X87717381Y-117324239D01*
X87765000Y-117419477D01*
X87812619Y-117467096D01*
X87907857Y-117514715D01*
X88003095Y-117514715D01*
X88098333Y-117467096D01*
X88145952Y-117419477D01*
X88193571Y-117324239D01*
X88193571Y-116990905D01*
X87717381Y-118419477D02*
X87717381Y-118229000D01*
X87765000Y-118133762D01*
X87812619Y-118086143D01*
X87955476Y-117990905D01*
X88145952Y-117943286D01*
X88526905Y-117943286D01*
X88622143Y-117990905D01*
X88669762Y-118038524D01*
X88717381Y-118133762D01*
X88717381Y-118324239D01*
X88669762Y-118419477D01*
X88622143Y-118467096D01*
X88526905Y-118514715D01*
X88288810Y-118514715D01*
X88193571Y-118467096D01*
X88145952Y-118419477D01*
X88098333Y-118324239D01*
X88098333Y-118133762D01*
X88145952Y-118038524D01*
X88193571Y-117990905D01*
X88288810Y-117943286D01*
M02*
