G04 #@! TF.FileFunction,Copper,L2,Bot,Signal*
%FSLAX46Y46*%
G04 Gerber Fmt 4.6, Leading zero omitted, Abs format (unit mm)*
G04 Created by KiCad (PCBNEW 4.0.6) date Friday, January 05, 2018 'AMt' 09:34:44 AM*
%MOMM*%
%LPD*%
G01*
G04 APERTURE LIST*
%ADD10C,0.100000*%
%ADD11O,2.200000X4.000000*%
%ADD12O,4.000000X2.200000*%
%ADD13R,2.000000X0.400000*%
%ADD14R,1.400000X2.200000*%
%ADD15C,0.685800*%
%ADD16C,0.200000*%
%ADD17C,0.500000*%
%ADD18C,0.254000*%
G04 APERTURE END LIST*
D10*
D11*
X160718500Y-117094000D03*
D12*
X160218500Y-109794000D03*
D11*
X153618500Y-114194000D03*
X150918500Y-112994000D03*
D12*
X156118500Y-120994000D03*
D13*
X80708500Y-78232000D03*
X80708500Y-79032000D03*
X80708500Y-79832000D03*
X80708500Y-80632000D03*
X80708500Y-81432000D03*
X80708500Y-82232000D03*
X80708500Y-83032000D03*
X80708500Y-83832000D03*
X80708500Y-84632000D03*
X80708500Y-85432000D03*
X80708500Y-86232000D03*
X80708500Y-87032000D03*
X80708500Y-87832000D03*
X80708500Y-88632000D03*
X80708500Y-89432000D03*
X80708500Y-90232000D03*
X80708500Y-91032000D03*
X80708500Y-91832000D03*
X80708500Y-92632000D03*
X80708500Y-93432000D03*
X80708500Y-94232000D03*
X80708500Y-95032000D03*
X80708500Y-95832000D03*
X80708500Y-96632000D03*
X80708500Y-97432000D03*
X80708500Y-98232000D03*
X80708500Y-99032000D03*
X80708500Y-99832000D03*
X80708500Y-100632000D03*
X80708500Y-101432000D03*
X80708500Y-102232000D03*
X80708500Y-103032000D03*
X80708500Y-103832000D03*
X80708500Y-104632000D03*
X80708500Y-105432000D03*
X80708500Y-106232000D03*
X80708500Y-107032000D03*
D14*
X141315000Y-122102000D03*
X141315000Y-113102000D03*
X136815000Y-122102000D03*
X136815000Y-113102000D03*
X126655000Y-113102000D03*
X126655000Y-122102000D03*
X131155000Y-113102000D03*
X131155000Y-122102000D03*
X116495000Y-113102000D03*
X116495000Y-122102000D03*
X120995000Y-113102000D03*
X120995000Y-122102000D03*
X106335000Y-113102000D03*
X106335000Y-122102000D03*
X110835000Y-113102000D03*
X110835000Y-122102000D03*
X96175000Y-113102000D03*
X96175000Y-122102000D03*
X100675000Y-113102000D03*
X100675000Y-122102000D03*
X86015000Y-113102000D03*
X86015000Y-122102000D03*
X90515000Y-113102000D03*
X90515000Y-122102000D03*
D15*
X165155880Y-115702080D03*
X185536840Y-90119200D03*
X189423040Y-75087480D03*
X204917040Y-78206600D03*
X137922000Y-97218500D03*
X138684000Y-101473000D03*
X136207500Y-110934500D03*
X126619000Y-111379000D03*
X95758000Y-69977000D03*
X98933000Y-70104000D03*
X97663000Y-65278000D03*
X176403000Y-105283000D03*
X176276000Y-101727000D03*
X78105000Y-81788000D03*
X105410000Y-93853000D03*
X125089920Y-111399320D03*
X83901280Y-111805720D03*
X73253600Y-96672400D03*
X92288360Y-99105720D03*
X109910880Y-83113880D03*
X115925600Y-78765400D03*
X116550440Y-80076040D03*
X135996680Y-102656640D03*
X135996680Y-103972360D03*
X125176280Y-100086160D03*
X132328920Y-105811320D03*
X187050680Y-81661000D03*
X186334400Y-83515200D03*
X137109200Y-73944480D03*
X137922000Y-76865480D03*
X150957280Y-86365080D03*
X150591520Y-91749880D03*
X166476680Y-77332840D03*
X171566840Y-77073760D03*
X139821920Y-92928440D03*
X140573760Y-86934040D03*
X96139000Y-67500500D03*
X92392500Y-67564000D03*
X100076000Y-85471000D03*
X96139000Y-85217000D03*
X90424000Y-94615000D03*
X88392000Y-95821500D03*
X88392000Y-93980000D03*
X83947000Y-94107000D03*
X100076000Y-74041000D03*
X95948500Y-73977500D03*
X137223500Y-70993000D03*
X136080500Y-63817500D03*
X123952000Y-81280000D03*
X123952000Y-82677000D03*
X177546000Y-80264000D03*
X174752000Y-84201000D03*
X182118000Y-80899000D03*
X198755000Y-72771000D03*
X199898000Y-79375000D03*
X138049000Y-100711000D03*
X136144000Y-110045500D03*
X116459000Y-111442500D03*
X137160000Y-100457000D03*
X136017000Y-109093000D03*
X106362500Y-111442500D03*
X96202500Y-111506000D03*
X135382000Y-108394500D03*
X136334500Y-100012500D03*
X135699500Y-99377500D03*
X135318500Y-107442000D03*
X85979000Y-111379000D03*
X187579000Y-71501000D03*
X191516000Y-71628000D03*
X138440160Y-78704440D03*
X172811440Y-74660760D03*
X137368280Y-81798160D03*
X135813800Y-94371160D03*
X124139960Y-99994720D03*
X98298000Y-67691000D03*
X76327000Y-81915000D03*
X129590800Y-89799160D03*
X132273040Y-85948520D03*
X132049520Y-81869280D03*
X125095000Y-83149440D03*
X147167600Y-71602600D03*
X145201640Y-71724520D03*
X140675360Y-72395080D03*
X139242800Y-76829920D03*
X138760200Y-83647280D03*
X133111240Y-104693720D03*
X133116320Y-111805720D03*
X135249920Y-111851440D03*
X168376600Y-107121960D03*
X118684040Y-75534520D03*
X118684040Y-74269600D03*
X140705840Y-81975960D03*
X134452360Y-94482920D03*
X133532880Y-92877640D03*
X132069840Y-92877640D03*
X120015000Y-88582500D03*
X93027500Y-71755000D03*
X86995000Y-69088000D03*
X89471500Y-69977000D03*
X89852500Y-85852000D03*
X100012500Y-95313500D03*
X96075500Y-95313500D03*
X83312000Y-95440500D03*
X94043500Y-74041000D03*
X99949000Y-72263000D03*
X126796800Y-65633600D03*
X133604000Y-81915000D03*
X134048500Y-86042500D03*
X99949000Y-101219000D03*
X96012000Y-101282500D03*
X82931000Y-101219000D03*
X161798000Y-82997040D03*
X161808160Y-89108280D03*
X136204960Y-75788520D03*
X136652000Y-71755000D03*
X137922000Y-71755000D03*
X137774680Y-75864720D03*
X181056280Y-75946000D03*
X157779720Y-64739520D03*
X140903960Y-106563160D03*
X141376400Y-100177600D03*
X137911840Y-79415640D03*
X173492160Y-75290680D03*
X179959000Y-78232000D03*
X177927000Y-78105000D03*
X150241000Y-87376000D03*
X140652500Y-88773000D03*
X140652500Y-89662000D03*
X144018000Y-92202000D03*
X146748500Y-93281500D03*
X156400500Y-99123500D03*
X82931000Y-90043000D03*
X128524000Y-83566000D03*
X166624000Y-72390000D03*
X165862000Y-73025000D03*
X127889000Y-84328000D03*
X154178000Y-103124000D03*
X145224500Y-89535000D03*
X146050000Y-90043000D03*
X155511500Y-99123500D03*
X155511500Y-103124000D03*
X152463500Y-102298500D03*
X144335500Y-88900000D03*
X143510000Y-89090500D03*
X153416000Y-98742500D03*
X193421000Y-78232000D03*
X193421000Y-73914000D03*
X185420000Y-76200000D03*
X191008000Y-75184000D03*
X143753840Y-104551480D03*
X142275560Y-104627680D03*
X132054600Y-97993200D03*
X87058500Y-115252500D03*
X201757280Y-85410040D03*
X190418720Y-80919320D03*
X187634880Y-80919320D03*
X138907520Y-81859120D03*
X139065000Y-73152000D03*
X138623040Y-75900280D03*
X138811000Y-97256600D03*
X196509640Y-80741520D03*
X132461000Y-100266500D03*
X179832000Y-120142000D03*
X179705000Y-115252500D03*
X133477000Y-99314000D03*
X132524500Y-99314000D03*
X179832000Y-107823000D03*
X167068500Y-107696000D03*
X167068500Y-114617500D03*
X140462000Y-102489000D03*
X138684000Y-102489000D03*
X82804000Y-93853000D03*
X82931000Y-92964000D03*
X82931000Y-92075000D03*
X82931000Y-91059000D03*
X85788500Y-90487500D03*
X116268500Y-100711000D03*
X80645000Y-76200000D03*
X85153500Y-91249500D03*
X117157500Y-100711000D03*
X82550000Y-79121000D03*
X84391500Y-91821000D03*
X118110000Y-100711000D03*
X83185000Y-79883000D03*
X84137500Y-92710000D03*
X119062500Y-100774500D03*
X83820000Y-80645000D03*
X82359500Y-95059500D03*
X113474500Y-108458000D03*
X119888000Y-100139500D03*
X117729000Y-108458000D03*
X86487000Y-71755000D03*
X89535000Y-96520000D03*
X113474500Y-107505500D03*
X120586500Y-99504500D03*
X118364000Y-107823000D03*
X90297000Y-107251500D03*
X76009500Y-107886500D03*
X87376000Y-71755000D03*
X90297000Y-97028000D03*
X121475500Y-99441000D03*
X113538000Y-106616500D03*
X118681500Y-106997500D03*
X76708000Y-108648500D03*
X91186000Y-107251500D03*
X88265000Y-71755000D03*
X90932000Y-97663000D03*
X122364500Y-99314000D03*
X91567000Y-98298000D03*
X113601500Y-105727500D03*
X119507000Y-106553000D03*
X89154000Y-73279000D03*
X92075000Y-107188000D03*
X77660500Y-108966000D03*
X125349000Y-87566500D03*
X111061500Y-87122000D03*
X110744000Y-88011000D03*
X128206500Y-87376000D03*
X129730500Y-88265000D03*
X109791500Y-85661500D03*
X128905000Y-88773000D03*
X109410500Y-84772500D03*
X94234000Y-81788000D03*
X123952000Y-89535000D03*
X129476500Y-83820000D03*
X74168000Y-84582000D03*
X124714000Y-90170000D03*
X94996000Y-82423000D03*
X130429000Y-90868500D03*
X110426500Y-84582000D03*
X95504000Y-83185000D03*
X123952000Y-90932000D03*
X123952000Y-91821000D03*
X94742000Y-83820000D03*
X104013000Y-83566000D03*
X123952000Y-92710000D03*
X104648000Y-84201000D03*
X123952000Y-93599000D03*
X104648000Y-85090000D03*
X123952000Y-94488000D03*
X104775000Y-85979000D03*
X124587000Y-95377000D03*
X104775000Y-86868000D03*
X125349000Y-96139000D03*
X128143000Y-93599000D03*
X104775000Y-87757000D03*
X92456000Y-80518000D03*
X130175000Y-94234000D03*
X130845560Y-94762320D03*
X126746000Y-95377000D03*
X104013000Y-89281000D03*
X109347000Y-78740000D03*
X92710000Y-78613000D03*
X92710000Y-79629000D03*
X110363000Y-79375000D03*
X113665000Y-80137000D03*
X113538000Y-77216000D03*
X112776000Y-80264000D03*
X112776000Y-76581000D03*
X111887000Y-80391000D03*
X111887000Y-75692000D03*
X105537000Y-75692000D03*
X92710000Y-75692000D03*
X110998000Y-80518000D03*
X110998000Y-74803000D03*
X106299000Y-74930000D03*
X93345000Y-74930000D03*
X109982000Y-80518000D03*
X94361000Y-80391000D03*
X109220000Y-81153000D03*
X93472000Y-81026000D03*
X132080000Y-94361000D03*
X105473500Y-95758000D03*
X85582760Y-69936360D03*
X143550640Y-84597240D03*
X143433800Y-81168240D03*
X147665440Y-70698360D03*
X147624800Y-68239640D03*
X93919040Y-65471040D03*
X144317720Y-83809840D03*
X144348200Y-81173320D03*
X148569680Y-70642480D03*
X148417280Y-67447160D03*
X93903800Y-64404240D03*
X84663280Y-69936360D03*
X89789000Y-77002640D03*
X99994720Y-76367640D03*
X133451600Y-79329280D03*
X73025000Y-106553000D03*
X100838000Y-73152000D03*
X100838000Y-71628000D03*
X133400800Y-78430120D03*
X73914000Y-105918000D03*
X74803000Y-105283000D03*
X133278880Y-77322680D03*
X100838000Y-70739000D03*
X75565000Y-104648000D03*
X132588000Y-76708000D03*
X100965000Y-69215000D03*
X76327000Y-104013000D03*
X131953000Y-75946000D03*
X100965000Y-68326000D03*
X77089000Y-103378000D03*
X131953000Y-74930000D03*
X100965000Y-66802000D03*
X77851000Y-102743000D03*
X131826000Y-73914000D03*
X100965000Y-65913000D03*
X78740000Y-102108000D03*
X131826000Y-73025000D03*
X100965000Y-64516000D03*
X131318000Y-84010500D03*
X74168000Y-87630000D03*
X74168000Y-86106000D03*
X130429000Y-83693000D03*
X129032000Y-82550000D03*
X74295000Y-83058000D03*
X125587760Y-80695800D03*
X111061500Y-83820000D03*
X82423000Y-83058000D03*
X82550000Y-83947000D03*
X82550000Y-84836000D03*
X82550000Y-85725000D03*
D16*
X141315000Y-122102000D02*
X141315000Y-121158440D01*
X141315000Y-121158440D02*
X143977360Y-118496080D01*
X143977360Y-118496080D02*
X158226760Y-118496080D01*
X158226760Y-118496080D02*
X159679640Y-119948960D01*
X159679640Y-119948960D02*
X161691320Y-119948960D01*
X161691320Y-119948960D02*
X165155880Y-116484400D01*
X165155880Y-116484400D02*
X165155880Y-115702080D01*
X185536840Y-90119200D02*
X189240160Y-86415880D01*
X189240160Y-86415880D02*
X189240160Y-78216760D01*
X189240160Y-78216760D02*
X188183520Y-77160120D01*
X188183520Y-77160120D02*
X185094880Y-77160120D01*
X185094880Y-77160120D02*
X184525920Y-76591160D01*
X184525920Y-76591160D02*
X184525920Y-75676760D01*
X184525920Y-75676760D02*
X185115200Y-75087480D01*
X185115200Y-75087480D02*
X189423040Y-75087480D01*
X142107920Y-98633280D02*
X146044920Y-98633280D01*
X204917040Y-85277960D02*
X204917040Y-78206600D01*
X198882000Y-91313000D02*
X204917040Y-85277960D01*
X170489880Y-91313000D02*
X198882000Y-91313000D01*
X166497000Y-95305880D02*
X170489880Y-91313000D01*
X166497000Y-104622600D02*
X166497000Y-95305880D01*
X164332920Y-106786680D02*
X166497000Y-104622600D01*
X152542240Y-106786680D02*
X164332920Y-106786680D01*
X151373840Y-105618280D02*
X152542240Y-106786680D01*
X151373840Y-99877880D02*
X151373840Y-105618280D01*
X150545800Y-99049840D02*
X151373840Y-99877880D01*
X146461480Y-99049840D02*
X150545800Y-99049840D01*
X146044920Y-98633280D02*
X146461480Y-99049840D01*
X137922000Y-97967800D02*
X137922000Y-98003360D01*
X138551920Y-98633280D02*
X142107920Y-98633280D01*
X142107920Y-98633280D02*
X142219680Y-98633280D01*
X137922000Y-98003360D02*
X138551920Y-98633280D01*
X141315000Y-113102000D02*
X139581500Y-113102000D01*
X137922000Y-97980500D02*
X137922000Y-97967800D01*
X137922000Y-97967800D02*
X137922000Y-97218500D01*
X141287500Y-101346000D02*
X137922000Y-97980500D01*
X141287500Y-102679500D02*
X141287500Y-101346000D01*
X138557000Y-105410000D02*
X141287500Y-102679500D01*
X138557000Y-112077500D02*
X138557000Y-105410000D01*
X139581500Y-113102000D02*
X138557000Y-112077500D01*
X126655000Y-113102000D02*
X126655000Y-111415000D01*
X138049000Y-102108000D02*
X138684000Y-101473000D01*
X138049000Y-109093000D02*
X138049000Y-102108000D01*
X136207500Y-110934500D02*
X138049000Y-109093000D01*
X126655000Y-111415000D02*
X126619000Y-111379000D01*
X98806000Y-69977000D02*
X95758000Y-69977000D01*
X98933000Y-70104000D02*
X98806000Y-69977000D01*
X96202500Y-67564000D02*
X96139000Y-67500500D01*
X97282000Y-67564000D02*
X96202500Y-67564000D01*
X97663000Y-67183000D02*
X97282000Y-67564000D01*
X97663000Y-65278000D02*
X97663000Y-67183000D01*
X176403000Y-101854000D02*
X176403000Y-105283000D01*
X176276000Y-101727000D02*
X176403000Y-101854000D01*
X80708500Y-81432000D02*
X78461000Y-81432000D01*
X78461000Y-81432000D02*
X78105000Y-81788000D01*
X104805480Y-97094040D02*
X104805480Y-97224238D01*
X105410000Y-93853000D02*
X104805480Y-94457520D01*
X104805480Y-94457520D02*
X104805480Y-97094040D01*
X125176280Y-111312960D02*
X125176280Y-100086160D01*
X125089920Y-111399320D02*
X125176280Y-111312960D01*
X76941680Y-111805720D02*
X83901280Y-111805720D01*
X72415400Y-107279440D02*
X76941680Y-111805720D01*
X72415400Y-97510600D02*
X72415400Y-107279440D01*
X73253600Y-96672400D02*
X72415400Y-97510600D01*
X99552760Y-99105720D02*
X92288360Y-99105720D01*
X100782120Y-97876360D02*
X99552760Y-99105720D01*
X104153358Y-97876360D02*
X100782120Y-97876360D01*
X104805480Y-97224238D02*
X104153358Y-97876360D01*
X123952000Y-81280000D02*
X123952000Y-80253840D01*
X111577120Y-83113880D02*
X109910880Y-83113880D01*
X115925600Y-78765400D02*
X111577120Y-83113880D01*
X116880640Y-79745840D02*
X116550440Y-80076040D01*
X123444000Y-79745840D02*
X116880640Y-79745840D01*
X123952000Y-80253840D02*
X123444000Y-79745840D01*
X135996680Y-103972360D02*
X135996680Y-102656640D01*
X125176280Y-100086160D02*
X125709680Y-99552760D01*
X125709680Y-99552760D02*
X130622040Y-99552760D01*
X130622040Y-99552760D02*
X132328920Y-101259640D01*
X132328920Y-101259640D02*
X132328920Y-105811320D01*
D17*
X187050680Y-82798920D02*
X187050680Y-81661000D01*
X186334400Y-83515200D02*
X187050680Y-82798920D01*
D16*
X137109200Y-76052680D02*
X137109200Y-73944480D01*
X137922000Y-76865480D02*
X137109200Y-76052680D01*
X150957280Y-91384120D02*
X150957280Y-86365080D01*
X150591520Y-91749880D02*
X150957280Y-91384120D01*
X171307760Y-77332840D02*
X166476680Y-77332840D01*
X171566840Y-77073760D02*
X171307760Y-77332840D01*
X139821920Y-92928440D02*
X139862560Y-92887800D01*
X139862560Y-92887800D02*
X139862560Y-87645240D01*
X139862560Y-87645240D02*
X140573760Y-86934040D01*
X92456000Y-67500500D02*
X96139000Y-67500500D01*
X92392500Y-67564000D02*
X92456000Y-67500500D01*
X80708500Y-81432000D02*
X86385000Y-81432000D01*
X90614500Y-85661500D02*
X90614500Y-94424500D01*
X86385000Y-81432000D02*
X90614500Y-85661500D01*
X90614500Y-94424500D02*
X90424000Y-94615000D01*
X96393000Y-85471000D02*
X100076000Y-85471000D01*
X96139000Y-85217000D02*
X96393000Y-85471000D01*
X89217500Y-95821500D02*
X88392000Y-95821500D01*
X90424000Y-94615000D02*
X89217500Y-95821500D01*
X88392000Y-94170500D02*
X88392000Y-93980000D01*
X88392000Y-95821500D02*
X88392000Y-94170500D01*
X88392000Y-94170500D02*
X88392000Y-94107000D01*
X83947000Y-108077000D02*
X83947000Y-108458000D01*
X84772500Y-120859500D02*
X86015000Y-122102000D01*
X84772500Y-109283500D02*
X84772500Y-120859500D01*
X83947000Y-108458000D02*
X84772500Y-109283500D01*
X83947000Y-104232098D02*
X83947000Y-108077000D01*
X83947000Y-108077000D02*
X83947000Y-108140500D01*
X80708500Y-104632000D02*
X83547098Y-104632000D01*
X83947000Y-104232098D02*
X83947000Y-94107000D01*
X83547098Y-104632000D02*
X83947000Y-104232098D01*
X96012000Y-74041000D02*
X100076000Y-74041000D01*
X95948500Y-73977500D02*
X96012000Y-74041000D01*
X136080500Y-63817500D02*
X136080500Y-69850000D01*
X136080500Y-69850000D02*
X137223500Y-70993000D01*
X96175000Y-122102000D02*
X96175000Y-124559500D01*
X96175000Y-124559500D02*
X96583500Y-124968000D01*
X106335000Y-122102000D02*
X106335000Y-124369000D01*
X106335000Y-124369000D02*
X106934000Y-124968000D01*
X116495000Y-122102000D02*
X116495000Y-124496000D01*
X116495000Y-124496000D02*
X116967000Y-124968000D01*
X86015000Y-122102000D02*
X86015000Y-123480000D01*
X87503000Y-124968000D02*
X96583500Y-124968000D01*
X86015000Y-123480000D02*
X87503000Y-124968000D01*
X123789000Y-124968000D02*
X126655000Y-122102000D01*
X96583500Y-124968000D02*
X106934000Y-124968000D01*
X106934000Y-124968000D02*
X116967000Y-124968000D01*
X116967000Y-124968000D02*
X123789000Y-124968000D01*
X123952000Y-82677000D02*
X123952000Y-81280000D01*
D17*
X177546000Y-80264000D02*
X181483000Y-80264000D01*
X181483000Y-80264000D02*
X182118000Y-80899000D01*
X174752000Y-84201000D02*
X181356000Y-84201000D01*
X182118000Y-83439000D02*
X182118000Y-80899000D01*
X181356000Y-84201000D02*
X182118000Y-83439000D01*
X199898000Y-79375000D02*
X198755000Y-78232000D01*
X198755000Y-78232000D02*
X198755000Y-72771000D01*
D16*
X116495000Y-113102000D02*
X116495000Y-111478500D01*
X137604500Y-101155500D02*
X138049000Y-100711000D01*
X137604500Y-108585000D02*
X137604500Y-101155500D01*
X136144000Y-110045500D02*
X137604500Y-108585000D01*
X116495000Y-111478500D02*
X116459000Y-111442500D01*
X106335000Y-113102000D02*
X106335000Y-111470000D01*
X137160000Y-107950000D02*
X137160000Y-100457000D01*
X136017000Y-109093000D02*
X137160000Y-107950000D01*
X106335000Y-111470000D02*
X106362500Y-111442500D01*
X135382000Y-108394500D02*
X135384540Y-108394500D01*
X96175000Y-111533500D02*
X96202500Y-111506000D01*
X96175000Y-111533500D02*
X96175000Y-113102000D01*
X136334500Y-100591620D02*
X136334500Y-100012500D01*
X136773920Y-101031040D02*
X136334500Y-100591620D01*
X136773920Y-107005120D02*
X136773920Y-101031040D01*
X135384540Y-108394500D02*
X136773920Y-107005120D01*
X86015000Y-113102000D02*
X86015000Y-111415000D01*
X135255000Y-99822000D02*
X135699500Y-99377500D01*
X135255000Y-107378500D02*
X135255000Y-99822000D01*
X135318500Y-107442000D02*
X135255000Y-107378500D01*
X86015000Y-111415000D02*
X85979000Y-111379000D01*
D17*
X191389000Y-71501000D02*
X187579000Y-71501000D01*
X191516000Y-71628000D02*
X191389000Y-71501000D01*
D16*
X138440160Y-78704440D02*
X139542520Y-78704440D01*
X139974320Y-78272640D02*
X139974320Y-78308200D01*
X139542520Y-78704440D02*
X139974320Y-78272640D01*
X139974320Y-78308200D02*
X140898880Y-77383640D01*
X140898880Y-77383640D02*
X140898880Y-74213720D01*
X140898880Y-74213720D02*
X141559280Y-73553320D01*
X141559280Y-73553320D02*
X165333680Y-73553320D01*
X165333680Y-73553320D02*
X166441120Y-74660760D01*
X166441120Y-74660760D02*
X172811440Y-74660760D01*
X139903200Y-78379320D02*
X139974320Y-78308200D01*
X139120880Y-93324680D02*
X139120880Y-84968080D01*
X137368280Y-83215480D02*
X137368280Y-81798160D01*
X139120880Y-84968080D02*
X137368280Y-83215480D01*
X135813800Y-94371160D02*
X138074400Y-94371160D01*
X138074400Y-94371160D02*
X139120880Y-93324680D01*
X139120880Y-93324680D02*
X139131040Y-93314520D01*
X135813800Y-95178880D02*
X135813800Y-94371160D01*
X131897120Y-99095560D02*
X135813800Y-95178880D01*
X125039120Y-99095560D02*
X131897120Y-99095560D01*
X124139960Y-99994720D02*
X125039120Y-99095560D01*
X94615000Y-69342000D02*
X94615000Y-72771000D01*
X95631000Y-68326000D02*
X94615000Y-69342000D01*
X97663000Y-68326000D02*
X95631000Y-68326000D01*
X98298000Y-67691000D02*
X97663000Y-68326000D01*
X94043500Y-74041000D02*
X94107000Y-74041000D01*
X94996000Y-72263000D02*
X96012000Y-72263000D01*
X94615000Y-72644000D02*
X94996000Y-72263000D01*
X94615000Y-73533000D02*
X94615000Y-72771000D01*
X94615000Y-72771000D02*
X94615000Y-72644000D01*
X94107000Y-74041000D02*
X94615000Y-73533000D01*
X80708500Y-82232000D02*
X78804000Y-82232000D01*
X77089000Y-82677000D02*
X76327000Y-81915000D01*
X78359000Y-82677000D02*
X77089000Y-82677000D01*
X78804000Y-82232000D02*
X78359000Y-82677000D01*
X129590800Y-89799160D02*
X129590800Y-91973400D01*
X130495040Y-92877640D02*
X132069840Y-92877640D01*
X129590800Y-91973400D02*
X130495040Y-92877640D01*
X127492760Y-88582500D02*
X127840740Y-88582500D01*
X129057400Y-89799160D02*
X129590800Y-89799160D01*
X127840740Y-88582500D02*
X129057400Y-89799160D01*
X132069840Y-92877640D02*
X132069840Y-86151720D01*
X132069840Y-86151720D02*
X132273040Y-85948520D01*
X132049520Y-81869280D02*
X132024120Y-81894680D01*
X132024120Y-81894680D02*
X128391920Y-81894680D01*
X128391920Y-81894680D02*
X127137160Y-83149440D01*
X127137160Y-83149440D02*
X125095000Y-83149440D01*
X139443460Y-73845420D02*
X139443460Y-73626980D01*
X145323560Y-71602600D02*
X147167600Y-71602600D01*
X145201640Y-71724520D02*
X145323560Y-71602600D01*
X139443460Y-73626980D02*
X140675360Y-72395080D01*
X139440920Y-73847960D02*
X139443460Y-73845420D01*
X139443460Y-73845420D02*
X139451080Y-73837800D01*
X139440920Y-76631800D02*
X139440920Y-73847960D01*
X139242800Y-76829920D02*
X139440920Y-76631800D01*
X138760200Y-83647280D02*
X139466320Y-84353400D01*
X139466320Y-84353400D02*
X140456920Y-84353400D01*
X140456920Y-84353400D02*
X140705840Y-84104480D01*
X140705840Y-84104480D02*
X140705840Y-81975960D01*
X168376600Y-107121960D02*
X167264080Y-107121960D01*
X133111240Y-111800640D02*
X133111240Y-104693720D01*
X133116320Y-111805720D02*
X133111240Y-111800640D01*
X135249920Y-114701320D02*
X135249920Y-111851440D01*
X137109200Y-116560600D02*
X135249920Y-114701320D01*
X155671520Y-116560600D02*
X137109200Y-116560600D01*
X158821120Y-113411000D02*
X155671520Y-116560600D01*
X164627560Y-113411000D02*
X158821120Y-113411000D01*
X165521640Y-112516920D02*
X164627560Y-113411000D01*
X165521640Y-107360720D02*
X165521640Y-112516920D01*
X166217600Y-106664760D02*
X165521640Y-107360720D01*
X166806880Y-106664760D02*
X166217600Y-106664760D01*
X167264080Y-107121960D02*
X166806880Y-106664760D01*
X168376600Y-107121960D02*
X168376600Y-107142280D01*
X118684040Y-74269600D02*
X118684040Y-75534520D01*
X140522960Y-81793080D02*
X140705840Y-81975960D01*
X134269480Y-93614240D02*
X134274560Y-93614240D01*
X134274560Y-93614240D02*
X134452360Y-93792040D01*
X134452360Y-93792040D02*
X134452360Y-94482920D01*
X133532880Y-92877640D02*
X134269480Y-93614240D01*
X127508000Y-88582500D02*
X127492760Y-88582500D01*
X127492760Y-88582500D02*
X120015000Y-88582500D01*
X93218000Y-74041000D02*
X94043500Y-74041000D01*
X93027500Y-73850500D02*
X93218000Y-74041000D01*
X93027500Y-71755000D02*
X93027500Y-73850500D01*
X86995000Y-69088000D02*
X87884000Y-69977000D01*
X87884000Y-69977000D02*
X89471500Y-69977000D01*
X80708500Y-82232000D02*
X86232500Y-82232000D01*
X86232500Y-82232000D02*
X89852500Y-85852000D01*
X96075500Y-95313500D02*
X100012500Y-95313500D01*
X80708500Y-103032000D02*
X82959500Y-103032000D01*
X83566000Y-95694500D02*
X83312000Y-95440500D01*
X83566000Y-102425500D02*
X83566000Y-95694500D01*
X82959500Y-103032000D02*
X83566000Y-102425500D01*
X96012000Y-72263000D02*
X99949000Y-72263000D01*
X95821500Y-72263000D02*
X96012000Y-72263000D01*
X80708500Y-103032000D02*
X80708500Y-103832000D01*
X128417320Y-64013080D02*
X126796800Y-65633600D01*
X132217160Y-64013080D02*
X128417320Y-64013080D01*
X134086600Y-65882520D02*
X132217160Y-64013080D01*
X134086600Y-81432400D02*
X134086600Y-65882520D01*
X133604000Y-81915000D02*
X134086600Y-81432400D01*
X99949000Y-101219000D02*
X99949000Y-99314000D01*
X132842000Y-87249000D02*
X134048500Y-86042500D01*
X132842000Y-95313500D02*
X132842000Y-87249000D01*
X129857500Y-98298000D02*
X132842000Y-95313500D01*
X100965000Y-98298000D02*
X129857500Y-98298000D01*
X99949000Y-99314000D02*
X100965000Y-98298000D01*
X80708500Y-102232000D02*
X82616500Y-102232000D01*
X96075500Y-101219000D02*
X99949000Y-101219000D01*
X96012000Y-101282500D02*
X96075500Y-101219000D01*
X82931000Y-101917500D02*
X82931000Y-101219000D01*
X82616500Y-102232000D02*
X82931000Y-101917500D01*
X161798000Y-89098120D02*
X161798000Y-82997040D01*
X161808160Y-89108280D02*
X161798000Y-89098120D01*
X136204960Y-75788520D02*
X136265920Y-75727560D01*
X136265920Y-75727560D02*
X136265920Y-72141080D01*
X136265920Y-72141080D02*
X136652000Y-71755000D01*
X137922000Y-75717400D02*
X137922000Y-71755000D01*
X137774680Y-75864720D02*
X137922000Y-75717400D01*
D17*
X181056280Y-67899280D02*
X181056280Y-75946000D01*
X178008280Y-64851280D02*
X181056280Y-67899280D01*
X157891480Y-64851280D02*
X178008280Y-64851280D01*
X157779720Y-64739520D02*
X157891480Y-64851280D01*
D16*
X140903960Y-105100120D02*
X140903960Y-106563160D01*
X141757400Y-104246680D02*
X140903960Y-105100120D01*
X141757400Y-100558600D02*
X141757400Y-104246680D01*
X141376400Y-100177600D02*
X141757400Y-100558600D01*
X139374880Y-79415640D02*
X137911840Y-79415640D01*
X141305280Y-77485240D02*
X139374880Y-79415640D01*
X141305280Y-74423882D02*
X141305280Y-77485240D01*
X141799922Y-73929240D02*
X141305280Y-74423882D01*
X165181280Y-73929240D02*
X141799922Y-73929240D01*
X166664640Y-75412600D02*
X165181280Y-73929240D01*
X173370240Y-75412600D02*
X166664640Y-75412600D01*
X173492160Y-75290680D02*
X173370240Y-75412600D01*
X178054000Y-78232000D02*
X179959000Y-78232000D01*
X177927000Y-78105000D02*
X178054000Y-78232000D01*
X150241000Y-88328500D02*
X150241000Y-87376000D01*
X149225000Y-89344500D02*
X150241000Y-88328500D01*
X146177000Y-89344500D02*
X149225000Y-89344500D01*
X145034000Y-88201500D02*
X146177000Y-89344500D01*
X141224000Y-88201500D02*
X145034000Y-88201500D01*
X140652500Y-88773000D02*
X141224000Y-88201500D01*
X143002000Y-89662000D02*
X140652500Y-89662000D01*
X144554598Y-91214598D02*
X143002000Y-89662000D01*
X144554598Y-91665402D02*
X144554598Y-91214598D01*
X144018000Y-92202000D02*
X144554598Y-91665402D01*
X146748500Y-95948500D02*
X146748500Y-93281500D01*
X147320000Y-96520000D02*
X146748500Y-95948500D01*
X154168372Y-96520000D02*
X147320000Y-96520000D01*
X156273500Y-98625128D02*
X154168372Y-96520000D01*
X156273500Y-98996500D02*
X156273500Y-98625128D01*
X156400500Y-99123500D02*
X156273500Y-98996500D01*
X80708500Y-90232000D02*
X82742000Y-90232000D01*
X82742000Y-90232000D02*
X82931000Y-90043000D01*
X136392920Y-83063080D02*
X136392920Y-78856308D01*
X136392920Y-78856308D02*
X136583154Y-78666074D01*
X128524000Y-84201000D02*
X129159000Y-84836000D01*
X129159000Y-84836000D02*
X134620000Y-84836000D01*
X134620000Y-84836000D02*
X136392920Y-83063080D01*
X136392920Y-83063080D02*
X136398000Y-83058000D01*
X128524000Y-83566000D02*
X128524000Y-84201000D01*
X139446000Y-77625598D02*
X139446000Y-77597000D01*
X136583154Y-78666074D02*
X137623630Y-77625598D01*
X137623630Y-77625598D02*
X139446000Y-77625598D01*
X136509228Y-78740000D02*
X136583154Y-78666074D01*
X139948920Y-77094080D02*
X139948920Y-77051558D01*
X142306040Y-72410320D02*
X142306040Y-72390000D01*
X141594308Y-72410320D02*
X142306040Y-72410320D01*
X140109598Y-73895030D02*
X141594308Y-72410320D01*
X140109598Y-76890880D02*
X140109598Y-73895030D01*
X139948920Y-77051558D02*
X140109598Y-76890880D01*
X142306040Y-72390000D02*
X166624000Y-72390000D01*
X139446000Y-77597000D02*
X139446000Y-77597000D01*
X139446000Y-77597000D02*
X139948920Y-77094080D01*
X139948920Y-77094080D02*
X139954000Y-77089000D01*
X136750402Y-79070200D02*
X136750402Y-78997198D01*
X139700000Y-77978000D02*
X140203186Y-77474814D01*
X140203186Y-77474814D02*
X140462000Y-77216000D01*
X140462000Y-77216000D02*
X140462000Y-74041000D01*
X140462000Y-74041000D02*
X141478000Y-73025000D01*
X141478000Y-73025000D02*
X165862000Y-73025000D01*
X137769600Y-77978000D02*
X139700000Y-77978000D01*
X136750402Y-78997198D02*
X137769600Y-77978000D01*
X127889000Y-84328000D02*
X128778000Y-85217000D01*
X136750402Y-83213598D02*
X136750402Y-79070200D01*
X136750402Y-79070200D02*
X136750402Y-79022598D01*
X134747000Y-85217000D02*
X136750402Y-83213598D01*
X128778000Y-85217000D02*
X134747000Y-85217000D01*
X145224500Y-90106500D02*
X145224500Y-89535000D01*
X154178000Y-103124000D02*
X154813000Y-102489000D01*
X154813000Y-102489000D02*
X154813000Y-98161372D01*
X154813000Y-98161372D02*
X154060628Y-97409000D01*
X154060628Y-97409000D02*
X147129500Y-97409000D01*
X147129500Y-97409000D02*
X145669000Y-95948500D01*
X145669000Y-95948500D02*
X145669000Y-90551000D01*
X145669000Y-90551000D02*
X145224500Y-90106500D01*
X155511500Y-99123500D02*
X155511500Y-98361500D01*
X146050000Y-95821500D02*
X146050000Y-90043000D01*
X147256500Y-97028000D02*
X146050000Y-95821500D01*
X154178000Y-97028000D02*
X147256500Y-97028000D01*
X155511500Y-98361500D02*
X154178000Y-97028000D01*
X155511500Y-99123500D02*
X155511500Y-103124000D01*
X144335500Y-89852500D02*
X144335500Y-88900000D01*
X145288000Y-90805000D02*
X144335500Y-89852500D01*
X145288000Y-96139000D02*
X145288000Y-90805000D01*
X147002500Y-97853500D02*
X145288000Y-96139000D01*
X153797000Y-97853500D02*
X147002500Y-97853500D01*
X154368500Y-98425000D02*
X153797000Y-97853500D01*
X154368500Y-100393500D02*
X154368500Y-98425000D01*
X154368500Y-100393500D02*
X152463500Y-102298500D01*
X143510000Y-89535000D02*
X143510000Y-89090500D01*
X144907000Y-90932000D02*
X143510000Y-89535000D01*
X144907000Y-96329500D02*
X144907000Y-90932000D01*
X146812000Y-98234500D02*
X144907000Y-96329500D01*
X152908000Y-98234500D02*
X146812000Y-98234500D01*
X153416000Y-98742500D02*
X152908000Y-98234500D01*
X193421000Y-73914000D02*
X193421000Y-78232000D01*
D17*
X189992000Y-76200000D02*
X185420000Y-76200000D01*
X191008000Y-75184000D02*
X189992000Y-76200000D01*
D16*
X142351760Y-104551480D02*
X143753840Y-104551480D01*
X142275560Y-104627680D02*
X142351760Y-104551480D01*
X130779520Y-98679000D02*
X131368800Y-98679000D01*
X131368800Y-98679000D02*
X132054600Y-97993200D01*
X124460000Y-98679000D02*
X130779520Y-98679000D01*
X130779520Y-98679000D02*
X130810000Y-98679000D01*
X120269000Y-102870000D02*
X124460000Y-98679000D01*
X120269000Y-107188000D02*
X120269000Y-102870000D01*
X116614598Y-110842402D02*
X120269000Y-107188000D01*
X89754098Y-110842402D02*
X116614598Y-110842402D01*
X88011000Y-112585500D02*
X89754098Y-110842402D01*
X88011000Y-114300000D02*
X88011000Y-112585500D01*
X87058500Y-115252500D02*
X88011000Y-114300000D01*
X138892280Y-80477360D02*
X138892280Y-80396612D01*
X201757280Y-83174840D02*
X201757280Y-85410040D01*
X198490840Y-79908400D02*
X201757280Y-83174840D01*
X191429640Y-79908400D02*
X198490840Y-79908400D01*
X190418720Y-80919320D02*
X191429640Y-79908400D01*
X183626760Y-80919320D02*
X187634880Y-80919320D01*
X178932840Y-76225400D02*
X183626760Y-80919320D01*
X166979068Y-76225400D02*
X178932840Y-76225400D01*
X165079148Y-74325480D02*
X166979068Y-76225400D01*
X141955520Y-74325480D02*
X165079148Y-74325480D01*
X141657682Y-74623318D02*
X141955520Y-74325480D01*
X141657682Y-77631210D02*
X141657682Y-74623318D01*
X138892280Y-80396612D02*
X141657682Y-77631210D01*
X138892280Y-81843880D02*
X138892280Y-80477360D01*
X138892280Y-80477360D02*
X138892280Y-80457040D01*
X138907520Y-81859120D02*
X138892280Y-81843880D01*
X139065000Y-75458320D02*
X139065000Y-73152000D01*
X138623040Y-75900280D02*
X139065000Y-75458320D01*
X165953440Y-104409240D02*
X165953440Y-95260160D01*
X138851640Y-97256600D02*
X139867640Y-98272600D01*
X139867640Y-98272600D02*
X146298920Y-98272600D01*
X146298920Y-98272600D02*
X146618960Y-98592640D01*
X146618960Y-98592640D02*
X150627080Y-98592640D01*
X150627080Y-98592640D02*
X151785320Y-99750880D01*
X151785320Y-99750880D02*
X151785320Y-105450640D01*
X151785320Y-105450640D02*
X152684480Y-106349800D01*
X152684480Y-106349800D02*
X164012880Y-106349800D01*
X164012880Y-106349800D02*
X165953440Y-104409240D01*
X138811000Y-97256600D02*
X138851640Y-97256600D01*
X196509640Y-90195400D02*
X196509640Y-80741520D01*
X195783200Y-90921840D02*
X196509640Y-90195400D01*
X170291760Y-90921840D02*
X195783200Y-90921840D01*
X165953440Y-95260160D02*
X170291760Y-90921840D01*
X132461000Y-100266500D02*
X132492750Y-100234750D01*
X132492750Y-100234750D02*
X132461000Y-100266500D01*
X132461000Y-100266500D02*
X132461000Y-100203000D01*
X171005500Y-120142000D02*
X179832000Y-120142000D01*
X165671500Y-114808000D02*
X171005500Y-120142000D01*
X159385000Y-114808000D02*
X165671500Y-114808000D01*
X156210000Y-117983000D02*
X159385000Y-114808000D01*
X136779000Y-117983000D02*
X156210000Y-117983000D01*
X133794500Y-114998500D02*
X136779000Y-117983000D01*
X133794500Y-101536500D02*
X133794500Y-114998500D01*
X132461000Y-100203000D02*
X133794500Y-101536500D01*
X158908750Y-113887250D02*
X179101750Y-113887250D01*
X179705000Y-114490500D02*
X179705000Y-115252500D01*
X179101750Y-113887250D02*
X179705000Y-114490500D01*
X155702000Y-117094000D02*
X158908750Y-113887250D01*
X137033000Y-117094000D02*
X155702000Y-117094000D01*
X134620000Y-114681000D02*
X137033000Y-117094000D01*
X134620000Y-100457000D02*
X134620000Y-114681000D01*
X133477000Y-99314000D02*
X134620000Y-100457000D01*
X159067500Y-114363500D02*
X166814500Y-114363500D01*
X132524500Y-99314000D02*
X134175500Y-100965000D01*
X134175500Y-100965000D02*
X134175500Y-114808000D01*
X134175500Y-114808000D02*
X136906000Y-117538500D01*
X136906000Y-117538500D02*
X155892500Y-117538500D01*
X155892500Y-117538500D02*
X159067500Y-114363500D01*
X167195500Y-107823000D02*
X179832000Y-107823000D01*
X167068500Y-107696000D02*
X167195500Y-107823000D01*
X166814500Y-114363500D02*
X167068500Y-114617500D01*
X138684000Y-102489000D02*
X140462000Y-102489000D01*
X80708500Y-93432000D02*
X82383000Y-93432000D01*
X82383000Y-93432000D02*
X82804000Y-93853000D01*
X80708500Y-92632000D02*
X82599000Y-92632000D01*
X82599000Y-92632000D02*
X82931000Y-92964000D01*
X82688000Y-91832000D02*
X82931000Y-92075000D01*
X80708500Y-91832000D02*
X82688000Y-91832000D01*
X80708500Y-91032000D02*
X82904000Y-91032000D01*
X82904000Y-91032000D02*
X82931000Y-91059000D01*
X114363500Y-109283500D02*
X114363500Y-109312098D01*
X85788500Y-107696000D02*
X85788500Y-90487500D01*
X87468098Y-109375598D02*
X85788500Y-107696000D01*
X114300000Y-109375598D02*
X87468098Y-109375598D01*
X114363500Y-109312098D02*
X114300000Y-109375598D01*
X116268500Y-107378500D02*
X114363500Y-109283500D01*
X114363500Y-109283500D02*
X114300000Y-109347000D01*
X116268500Y-105346500D02*
X116268500Y-106680000D01*
X116268500Y-105346500D02*
X116268500Y-100711000D01*
X116268500Y-106680000D02*
X116268500Y-107378500D01*
X80708500Y-76263500D02*
X80708500Y-78232000D01*
X80645000Y-76200000D02*
X80708500Y-76263500D01*
X114490500Y-109728000D02*
X87249000Y-109728000D01*
X116620902Y-107597598D02*
X114490500Y-109728000D01*
X116620902Y-106870500D02*
X116620902Y-107597598D01*
X85407500Y-91503500D02*
X85153500Y-91249500D01*
X85407500Y-107886500D02*
X85407500Y-91503500D01*
X87249000Y-109728000D02*
X85407500Y-107886500D01*
X116620902Y-105283000D02*
X116620902Y-106870500D01*
X116620902Y-106870500D02*
X116620902Y-106899098D01*
X117157500Y-100711000D02*
X117157500Y-101126902D01*
X116620902Y-101663500D02*
X116620902Y-105283000D01*
X116620902Y-105283000D02*
X116620902Y-105346500D01*
X117157500Y-101126902D02*
X116620902Y-101663500D01*
X82461000Y-79032000D02*
X80708500Y-79032000D01*
X82550000Y-79121000D02*
X82461000Y-79032000D01*
X114598530Y-110137598D02*
X87087098Y-110137598D01*
X116973304Y-107762824D02*
X114598530Y-110137598D01*
X116973304Y-105283000D02*
X116973304Y-107054696D01*
X116973304Y-107054696D02*
X116973304Y-107762824D01*
X85055098Y-92484598D02*
X84391500Y-91821000D01*
X85055098Y-108105598D02*
X85055098Y-92484598D01*
X87087098Y-110137598D02*
X85055098Y-108105598D01*
X118110000Y-100711000D02*
X118110000Y-100774500D01*
X116973304Y-101911196D02*
X116973304Y-105283000D01*
X116973304Y-105283000D02*
X116973304Y-105346500D01*
X118110000Y-100774500D02*
X116973304Y-101911196D01*
X83134000Y-79832000D02*
X80708500Y-79832000D01*
X83185000Y-79883000D02*
X83134000Y-79832000D01*
X114744500Y-110490000D02*
X86868000Y-110490000D01*
X117325706Y-107908794D02*
X114744500Y-110490000D01*
X117325706Y-107188000D02*
X117325706Y-107908794D01*
X84645500Y-93218000D02*
X84137500Y-92710000D01*
X84645500Y-108267500D02*
X84645500Y-93218000D01*
X86868000Y-110490000D02*
X84645500Y-108267500D01*
X117325706Y-105283000D02*
X117325706Y-107188000D01*
X117325706Y-107188000D02*
X117325706Y-107210294D01*
X119062500Y-100774500D02*
X118999000Y-100774500D01*
X117325706Y-102447794D02*
X117325706Y-105283000D01*
X117325706Y-105283000D02*
X117325706Y-105346500D01*
X118999000Y-100774500D02*
X117325706Y-102447794D01*
X83807000Y-80632000D02*
X80708500Y-80632000D01*
X83820000Y-80645000D02*
X83807000Y-80632000D01*
X82332000Y-95032000D02*
X80708500Y-95032000D01*
X82359500Y-95059500D02*
X82332000Y-95032000D01*
X112649000Y-108994598D02*
X90389098Y-108994598D01*
X113185598Y-108458000D02*
X112649000Y-108994598D01*
X117729000Y-108458000D02*
X117729000Y-105346500D01*
X119888000Y-100139500D02*
X119888000Y-100901500D01*
X117729000Y-103060500D02*
X117729000Y-105346500D01*
X119888000Y-100901500D02*
X117729000Y-103060500D01*
X113474500Y-108458000D02*
X113185598Y-108458000D01*
X89535000Y-108140500D02*
X89535000Y-96520000D01*
X90389098Y-108994598D02*
X89535000Y-108140500D01*
X86487000Y-71755000D02*
X86487000Y-72996402D01*
X91059000Y-94996000D02*
X89535000Y-96520000D01*
X91059000Y-85598000D02*
X91059000Y-94996000D01*
X88011000Y-82550000D02*
X91059000Y-85598000D01*
X88011000Y-74520402D02*
X88011000Y-82550000D01*
X86487000Y-72996402D02*
X88011000Y-74520402D01*
X113474500Y-107505500D02*
X113411000Y-107505500D01*
X118081402Y-105346500D02*
X118081402Y-107540402D01*
X120586500Y-99504500D02*
X120586500Y-100701372D01*
X118081402Y-103206470D02*
X118081402Y-105346500D01*
X120586500Y-100701372D02*
X118081402Y-103206470D01*
X118081402Y-107540402D02*
X118364000Y-107823000D01*
X90297000Y-108331000D02*
X90297000Y-107251500D01*
X90608196Y-108642196D02*
X90297000Y-108331000D01*
X112274304Y-108642196D02*
X90608196Y-108642196D01*
X113411000Y-107505500D02*
X112274304Y-108642196D01*
X90297000Y-103822500D02*
X90297000Y-107251500D01*
X77003500Y-105432000D02*
X80708500Y-105432000D01*
X76009500Y-107886500D02*
X75946000Y-107823000D01*
X75946000Y-107823000D02*
X75946000Y-106489500D01*
X75946000Y-106489500D02*
X77003500Y-105432000D01*
X90297000Y-104013000D02*
X90297000Y-103822500D01*
X90297000Y-103822500D02*
X90297000Y-97028000D01*
X87376000Y-71755000D02*
X87376000Y-73377402D01*
X91440000Y-95885000D02*
X90297000Y-97028000D01*
X91440000Y-85471000D02*
X91440000Y-95885000D01*
X88392000Y-82423000D02*
X91440000Y-85471000D01*
X88392000Y-74393402D02*
X88392000Y-82423000D01*
X87376000Y-73377402D02*
X88392000Y-74393402D01*
X121497622Y-99463122D02*
X121475500Y-99441000D01*
X113538000Y-106616500D02*
X113474500Y-106616500D01*
X118433804Y-105346500D02*
X118433804Y-106749804D01*
X118433804Y-103352440D02*
X118433804Y-105346500D01*
X121497622Y-100288622D02*
X118433804Y-103352440D01*
X118433804Y-106749804D02*
X118681500Y-106997500D01*
X91186000Y-107950000D02*
X91186000Y-107251500D01*
X91503500Y-108267500D02*
X91186000Y-107950000D01*
X111823500Y-108267500D02*
X91503500Y-108267500D01*
X113474500Y-106616500D02*
X111823500Y-108267500D01*
X121497622Y-100288622D02*
X121497622Y-99463122D01*
X90678000Y-105092500D02*
X90678000Y-106743500D01*
X90678000Y-106743500D02*
X91186000Y-107251500D01*
X78045000Y-106232000D02*
X80708500Y-106232000D01*
X76708000Y-107569000D02*
X78045000Y-106232000D01*
X76708000Y-108648500D02*
X76708000Y-107569000D01*
X90805000Y-97663000D02*
X90932000Y-97663000D01*
X90678000Y-97790000D02*
X90805000Y-97663000D01*
X90678000Y-105156000D02*
X90678000Y-105092500D01*
X90678000Y-105092500D02*
X90678000Y-97790000D01*
X88265000Y-71755000D02*
X88265000Y-73660000D01*
X91821000Y-96774000D02*
X90932000Y-97663000D01*
X91821000Y-85344000D02*
X91821000Y-96774000D01*
X88773000Y-82296000D02*
X91821000Y-85344000D01*
X88773000Y-74168000D02*
X88773000Y-82296000D01*
X88265000Y-73660000D02*
X88773000Y-74168000D01*
X118786206Y-103527294D02*
X118786206Y-105283000D01*
X122364500Y-99949000D02*
X118786206Y-103527294D01*
X122364500Y-99314000D02*
X122364500Y-99949000D01*
X113601500Y-105727500D02*
X113474500Y-105727500D01*
X118786206Y-105283000D02*
X118786206Y-105832206D01*
X118786206Y-105832206D02*
X119507000Y-106553000D01*
X92773500Y-107886500D02*
X92075000Y-107188000D01*
X111315500Y-107886500D02*
X92773500Y-107886500D01*
X113474500Y-105727500D02*
X111315500Y-107886500D01*
X91567000Y-105664000D02*
X91567000Y-106680000D01*
X91567000Y-106680000D02*
X92075000Y-107188000D01*
X89154000Y-82169000D02*
X92202000Y-85217000D01*
X92202000Y-85217000D02*
X92202000Y-97663000D01*
X92202000Y-97663000D02*
X91567000Y-98298000D01*
X89154000Y-73279000D02*
X89154000Y-74422000D01*
X89154000Y-74422000D02*
X89154000Y-82169000D01*
X91567000Y-105664000D02*
X91567000Y-98298000D01*
X78578500Y-107032000D02*
X80708500Y-107032000D01*
X77660500Y-108966000D02*
X77660500Y-107950000D01*
X77660500Y-107950000D02*
X78578500Y-107032000D01*
X118786206Y-105283000D02*
X118786206Y-105346500D01*
X111506000Y-87566500D02*
X125349000Y-87566500D01*
X111061500Y-87122000D02*
X111506000Y-87566500D01*
X124904500Y-88201500D02*
X127381000Y-88201500D01*
X110744000Y-88011000D02*
X110836098Y-87918902D01*
X110836098Y-87918902D02*
X124621902Y-87918902D01*
X124621902Y-87918902D02*
X124904500Y-88201500D01*
X127381000Y-88201500D02*
X128206500Y-87376000D01*
X131064000Y-88265000D02*
X129730500Y-88265000D01*
X131254500Y-88074500D02*
X131064000Y-88265000D01*
X131254500Y-86360000D02*
X131254500Y-88074500D01*
X130873500Y-85979000D02*
X131254500Y-86360000D01*
X128079500Y-85979000D02*
X130873500Y-85979000D01*
X127381000Y-85280500D02*
X128079500Y-85979000D01*
X110172500Y-85280500D02*
X127381000Y-85280500D01*
X109791500Y-85661500D02*
X110172500Y-85280500D01*
X128905000Y-86931500D02*
X128905000Y-88773000D01*
X128397000Y-86423500D02*
X128905000Y-86931500D01*
X109474000Y-86423500D02*
X128397000Y-86423500D01*
X109093000Y-86042500D02*
X109474000Y-86423500D01*
X109093000Y-85090000D02*
X109093000Y-86042500D01*
X109410500Y-84772500D02*
X109093000Y-85090000D01*
X108707186Y-82672186D02*
X107569000Y-81534000D01*
X107569000Y-81534000D02*
X94488000Y-81534000D01*
X94488000Y-81534000D02*
X94234000Y-81788000D01*
X123952000Y-89535000D02*
X109972372Y-89535000D01*
X109972372Y-89535000D02*
X108707186Y-88269814D01*
X108707186Y-88269814D02*
X108707186Y-82672186D01*
X129413000Y-83756500D02*
X129476500Y-83820000D01*
X134112000Y-82931000D02*
X129794000Y-82931000D01*
X132588000Y-63246000D02*
X134874000Y-65532000D01*
X134874000Y-65532000D02*
X134874000Y-82169000D01*
X134874000Y-82169000D02*
X134112000Y-82931000D01*
X76708000Y-63246000D02*
X132334000Y-63246000D01*
X73660000Y-66294000D02*
X76708000Y-63246000D01*
X73660000Y-84074000D02*
X73660000Y-66294000D01*
X74168000Y-84582000D02*
X73660000Y-84074000D01*
X132334000Y-63246000D02*
X132588000Y-63246000D01*
X129794000Y-82931000D02*
X129413000Y-83312000D01*
X129413000Y-83312000D02*
X129413000Y-83756500D01*
X108331000Y-88392000D02*
X108331000Y-82931000D01*
X110109000Y-90170000D02*
X108331000Y-88392000D01*
X124714000Y-90170000D02*
X110109000Y-90170000D01*
X95504000Y-81915000D02*
X94996000Y-82423000D01*
X107315000Y-81915000D02*
X95504000Y-81915000D01*
X108331000Y-82931000D02*
X107315000Y-81915000D01*
X131635500Y-89662000D02*
X130429000Y-90868500D01*
X131635500Y-86042500D02*
X131635500Y-89662000D01*
X131191000Y-85598000D02*
X131635500Y-86042500D01*
X128206500Y-85598000D02*
X131191000Y-85598000D01*
X127317500Y-84709000D02*
X128206500Y-85598000D01*
X110553500Y-84709000D02*
X127317500Y-84709000D01*
X110426500Y-84582000D02*
X110553500Y-84709000D01*
X107950000Y-88519000D02*
X107950000Y-83185000D01*
X107950000Y-83185000D02*
X107061000Y-82296000D01*
X107061000Y-82296000D02*
X96393000Y-82296000D01*
X96393000Y-82296000D02*
X95504000Y-83185000D01*
X123952000Y-90932000D02*
X110363000Y-90932000D01*
X110363000Y-90932000D02*
X107950000Y-88519000D01*
X107569000Y-88646000D02*
X107569000Y-83566000D01*
X110744000Y-91821000D02*
X107569000Y-88646000D01*
X123952000Y-91821000D02*
X110744000Y-91821000D01*
X95885000Y-83820000D02*
X94742000Y-83820000D01*
X97028000Y-82677000D02*
X95885000Y-83820000D01*
X106680000Y-82677000D02*
X97028000Y-82677000D01*
X107569000Y-83566000D02*
X106680000Y-82677000D01*
X107505500Y-89090500D02*
X107505500Y-89080872D01*
X106807000Y-83566000D02*
X104013000Y-83566000D01*
X107188000Y-83947000D02*
X106807000Y-83566000D01*
X107188000Y-88763372D02*
X107188000Y-83947000D01*
X107505500Y-89080872D02*
X107188000Y-88763372D01*
X123952000Y-92710000D02*
X111125000Y-92710000D01*
X111125000Y-92710000D02*
X107505500Y-89090500D01*
X107505500Y-89090500D02*
X107442000Y-89027000D01*
X107315000Y-89408000D02*
X106807000Y-88900000D01*
X106397402Y-84201000D02*
X104648000Y-84201000D01*
X106807000Y-84610598D02*
X106397402Y-84201000D01*
X106807000Y-88900000D02*
X106807000Y-84610598D01*
X123952000Y-93599000D02*
X111506000Y-93599000D01*
X111506000Y-93599000D02*
X107315000Y-89408000D01*
X107315000Y-89408000D02*
X107061000Y-89154000D01*
X106426000Y-89154000D02*
X106426000Y-84807402D01*
X106426000Y-84807402D02*
X106172000Y-84553402D01*
X106172000Y-84553402D02*
X105184598Y-84553402D01*
X105184598Y-84553402D02*
X104648000Y-85090000D01*
X123952000Y-94488000D02*
X111760000Y-94488000D01*
X111760000Y-94488000D02*
X106807000Y-89535000D01*
X106807000Y-89535000D02*
X106426000Y-89154000D01*
X106680000Y-89916000D02*
X106045000Y-89281000D01*
X105889402Y-85979000D02*
X104775000Y-85979000D01*
X106045000Y-86134598D02*
X105889402Y-85979000D01*
X106045000Y-89281000D02*
X106045000Y-86134598D01*
X124587000Y-95377000D02*
X112141000Y-95377000D01*
X112141000Y-95377000D02*
X106680000Y-89916000D01*
X106680000Y-89916000D02*
X106553000Y-89789000D01*
X125349000Y-96139000D02*
X112404628Y-96139000D01*
X106430814Y-90165186D02*
X106421186Y-90165186D01*
X105410000Y-86868000D02*
X104775000Y-86868000D01*
X105664000Y-87122000D02*
X105410000Y-86868000D01*
X105664000Y-89408000D02*
X105664000Y-87122000D01*
X106421186Y-90165186D02*
X105664000Y-89408000D01*
X112404628Y-96139000D02*
X106430814Y-90165186D01*
X106430814Y-90165186D02*
X106367314Y-90101686D01*
X106172000Y-90424000D02*
X105283000Y-89535000D01*
X128524000Y-93599000D02*
X129667000Y-94742000D01*
X129667000Y-94742000D02*
X129667000Y-96266000D01*
X129667000Y-96266000D02*
X129159000Y-96774000D01*
X129159000Y-96774000D02*
X112522000Y-96774000D01*
X112522000Y-96774000D02*
X106172000Y-90424000D01*
X128143000Y-93599000D02*
X128524000Y-93599000D01*
X105029000Y-87757000D02*
X104775000Y-87757000D01*
X105283000Y-88011000D02*
X105029000Y-87757000D01*
X105283000Y-89535000D02*
X105283000Y-88011000D01*
X104775000Y-89535000D02*
X104775000Y-88773000D01*
X100584000Y-84582000D02*
X94361000Y-84582000D01*
X94361000Y-84582000D02*
X92456000Y-82677000D01*
X92456000Y-82677000D02*
X92456000Y-80518000D01*
X105791000Y-90551000D02*
X105156000Y-89916000D01*
X130175000Y-96266000D02*
X129286000Y-97155000D01*
X129286000Y-97155000D02*
X112395000Y-97155000D01*
X112395000Y-97155000D02*
X105791000Y-90551000D01*
X130175000Y-94234000D02*
X130175000Y-96266000D01*
X105156000Y-89916000D02*
X104775000Y-89535000D01*
X104775000Y-88773000D02*
X100584000Y-84582000D01*
X130556000Y-96383372D02*
X130556000Y-95051880D01*
X130845560Y-94762320D02*
X130556000Y-95051880D01*
X130556000Y-96383372D02*
X130565628Y-96393000D01*
X130565628Y-96393000D02*
X130565628Y-96373744D01*
X105532186Y-90800186D02*
X104013000Y-89281000D01*
X112277628Y-97536000D02*
X105541814Y-90800186D01*
X129403372Y-97536000D02*
X112277628Y-97536000D01*
X130556000Y-96383372D02*
X130565628Y-96373744D01*
X130565628Y-96373744D02*
X129403372Y-97536000D01*
X105541814Y-90800186D02*
X105532186Y-90800186D01*
X109347000Y-78740000D02*
X109220000Y-78613000D01*
X109220000Y-78613000D02*
X92710000Y-78613000D01*
X110109000Y-79629000D02*
X92710000Y-79629000D01*
X110363000Y-79375000D02*
X110109000Y-79629000D01*
X113665000Y-80137000D02*
X113538000Y-80010000D01*
X113538000Y-80010000D02*
X113538000Y-77216000D01*
X112776000Y-80264000D02*
X112776000Y-76581000D01*
X111887000Y-80391000D02*
X111887000Y-76073000D01*
X111887000Y-76073000D02*
X111887000Y-75692000D01*
X105537000Y-75692000D02*
X92710000Y-75692000D01*
X110998000Y-80518000D02*
X110998000Y-74803000D01*
X106299000Y-74930000D02*
X93345000Y-74930000D01*
X109982000Y-80518000D02*
X109855000Y-80391000D01*
X109855000Y-80391000D02*
X94361000Y-80391000D01*
X109220000Y-81153000D02*
X109093000Y-81026000D01*
X109093000Y-81026000D02*
X93472000Y-81026000D01*
X132080000Y-95377000D02*
X132080000Y-94361000D01*
X129568598Y-97888402D02*
X132080000Y-95377000D01*
X112131658Y-97888402D02*
X129568598Y-97888402D01*
X110023378Y-95780122D02*
X112131658Y-97888402D01*
X105495622Y-95780122D02*
X110023378Y-95780122D01*
X105473500Y-95758000D02*
X105495622Y-95780122D01*
X88823800Y-64795400D02*
X93243400Y-64795400D01*
X85582760Y-69936360D02*
X85694520Y-69824600D01*
X85694520Y-69824600D02*
X85694520Y-67924680D01*
X85694520Y-67924680D02*
X88823800Y-64795400D01*
X143550640Y-81285080D02*
X143550640Y-84597240D01*
X143433800Y-81168240D02*
X143550640Y-81285080D01*
X147665440Y-68280280D02*
X147665440Y-70698360D01*
X147624800Y-68239640D02*
X147665440Y-68280280D01*
X93243400Y-64795400D02*
X93919040Y-65471040D01*
X144317720Y-81203800D02*
X144317720Y-83809840D01*
X144348200Y-81173320D02*
X144317720Y-81203800D01*
X148569680Y-67599560D02*
X148569680Y-70642480D01*
X148417280Y-67447160D02*
X148569680Y-67599560D01*
X88463120Y-64404240D02*
X93903800Y-64404240D01*
X93903800Y-64404240D02*
X93954600Y-64404240D01*
X84663280Y-68204080D02*
X88463120Y-64404240D01*
X84663280Y-69936360D02*
X84663280Y-68204080D01*
X99359720Y-77002640D02*
X89789000Y-77002640D01*
X99994720Y-76367640D02*
X99359720Y-77002640D01*
X133116320Y-78994000D02*
X132872480Y-78994000D01*
X133451600Y-79329280D02*
X133116320Y-78994000D01*
X75237000Y-95832000D02*
X80708500Y-95832000D01*
X73025000Y-98044000D02*
X75237000Y-95832000D01*
X73025000Y-106553000D02*
X73025000Y-98044000D01*
X132842000Y-78994000D02*
X117094000Y-78994000D01*
X111252000Y-73152000D02*
X100838000Y-73152000D01*
X117094000Y-78994000D02*
X111252000Y-73152000D01*
X133223000Y-78613000D02*
X117221000Y-78613000D01*
X117221000Y-78613000D02*
X110236000Y-71628000D01*
X110236000Y-71628000D02*
X100838000Y-71628000D01*
X133217920Y-78613000D02*
X133223000Y-78613000D01*
X133400800Y-78430120D02*
X133217920Y-78613000D01*
X73914000Y-105918000D02*
X73914000Y-98552000D01*
X73914000Y-98552000D02*
X75834000Y-96632000D01*
X75834000Y-96632000D02*
X80708500Y-96632000D01*
X133278880Y-77322680D02*
X133278880Y-77676664D01*
X133278880Y-77676664D02*
X132718730Y-78236814D01*
X132718730Y-78236814D02*
X132718730Y-78260598D01*
X132718730Y-78260598D02*
X132718730Y-78236814D01*
X76177000Y-97432000D02*
X80708500Y-97432000D01*
X74676000Y-98933000D02*
X76177000Y-97432000D01*
X74676000Y-105156000D02*
X74676000Y-98933000D01*
X74803000Y-105283000D02*
X74676000Y-105156000D01*
X133278880Y-77322680D02*
X133278880Y-77351278D01*
X132718730Y-78236814D02*
X117352814Y-78236814D01*
X117352814Y-78236814D02*
X109855000Y-70739000D01*
X109855000Y-70739000D02*
X100838000Y-70739000D01*
X132738784Y-78236814D02*
X132718730Y-78236814D01*
X76647000Y-98232000D02*
X80708500Y-98232000D01*
X75438000Y-99441000D02*
X76647000Y-98232000D01*
X75438000Y-104521000D02*
X75438000Y-99441000D01*
X75565000Y-104648000D02*
X75438000Y-104521000D01*
X132588000Y-76708000D02*
X132588000Y-77597000D01*
X108839000Y-69215000D02*
X100965000Y-69215000D01*
X117475000Y-77851000D02*
X108839000Y-69215000D01*
X132334000Y-77851000D02*
X117475000Y-77851000D01*
X132588000Y-77597000D02*
X132334000Y-77851000D01*
X77244000Y-99032000D02*
X80708500Y-99032000D01*
X76327000Y-99949000D02*
X77244000Y-99032000D01*
X76327000Y-104013000D02*
X76327000Y-99949000D01*
X131953000Y-75946000D02*
X131953000Y-77089000D01*
X108458000Y-68326000D02*
X100965000Y-68326000D01*
X117602000Y-77470000D02*
X108458000Y-68326000D01*
X131572000Y-77470000D02*
X117602000Y-77470000D01*
X131953000Y-77089000D02*
X131572000Y-77470000D01*
X77587000Y-99832000D02*
X80708500Y-99832000D01*
X77089000Y-100330000D02*
X77587000Y-99832000D01*
X77089000Y-103378000D02*
X77089000Y-100330000D01*
X131953000Y-74930000D02*
X131953000Y-75057000D01*
X107442000Y-66802000D02*
X100965000Y-66802000D01*
X117729000Y-77089000D02*
X107442000Y-66802000D01*
X130965598Y-77089000D02*
X117729000Y-77089000D01*
X131318000Y-76736598D02*
X130965598Y-77089000D01*
X131318000Y-75692000D02*
X131318000Y-76736598D01*
X131953000Y-75057000D02*
X131318000Y-75692000D01*
X78565000Y-100632000D02*
X80708500Y-100632000D01*
X77851000Y-101346000D02*
X78565000Y-100632000D01*
X77851000Y-102743000D02*
X77851000Y-101346000D01*
X131826000Y-73914000D02*
X130937000Y-74803000D01*
X107061000Y-65913000D02*
X100965000Y-65913000D01*
X117856000Y-76708000D02*
X107061000Y-65913000D01*
X130584598Y-76708000D02*
X117856000Y-76708000D01*
X130937000Y-76355598D02*
X130584598Y-76708000D01*
X130937000Y-74803000D02*
X130937000Y-76355598D01*
X79035000Y-101432000D02*
X80708500Y-101432000D01*
X78740000Y-101727000D02*
X79035000Y-101432000D01*
X78740000Y-102108000D02*
X78740000Y-101727000D01*
X131826000Y-73025000D02*
X131699000Y-73025000D01*
X106299000Y-64516000D02*
X100965000Y-64516000D01*
X117983000Y-76200000D02*
X106299000Y-64516000D01*
X130203598Y-76200000D02*
X117983000Y-76200000D01*
X130556000Y-75847598D02*
X130203598Y-76200000D01*
X130556000Y-74168000D02*
X130556000Y-75847598D01*
X131699000Y-73025000D02*
X130556000Y-74168000D01*
X135578804Y-82480196D02*
X134048500Y-84010500D01*
X134048500Y-84010500D02*
X131318000Y-84010500D01*
X132334000Y-62512598D02*
X132870598Y-62512598D01*
X74168000Y-87630000D02*
X72898000Y-86360000D01*
X72898000Y-86360000D02*
X72898000Y-66167000D01*
X76425402Y-62512598D02*
X132334000Y-62512598D01*
X72898000Y-66040000D02*
X76425402Y-62512598D01*
X72898000Y-66167000D02*
X72898000Y-66040000D01*
X135578804Y-65220804D02*
X135578804Y-70485000D01*
X132870598Y-62512598D02*
X135578804Y-65220804D01*
X135578804Y-70485000D02*
X135578804Y-82480196D01*
X134239000Y-83312000D02*
X130810000Y-83312000D01*
X132334000Y-62865000D02*
X132715000Y-62865000D01*
X74168000Y-86106000D02*
X73279000Y-85217000D01*
X73279000Y-85217000D02*
X73279000Y-66167000D01*
X73279000Y-66167000D02*
X76581000Y-62865000D01*
X76581000Y-62865000D02*
X132334000Y-62865000D01*
X135226402Y-82324598D02*
X134493000Y-83058000D01*
X135226402Y-65376402D02*
X135226402Y-82324598D01*
X132715000Y-62865000D02*
X135226402Y-65376402D01*
X134493000Y-83058000D02*
X134239000Y-83312000D01*
X130810000Y-83312000D02*
X130429000Y-83693000D01*
X133858000Y-82550000D02*
X129032000Y-82550000D01*
X132432402Y-63598402D02*
X134493000Y-65659000D01*
X134493000Y-65659000D02*
X134493000Y-81915000D01*
X134493000Y-81915000D02*
X133858000Y-82550000D01*
X132207000Y-63598402D02*
X132432402Y-63598402D01*
X76863598Y-63598402D02*
X132207000Y-63598402D01*
X132207000Y-63598402D02*
X132334000Y-63598402D01*
X74041000Y-66421000D02*
X76863598Y-63598402D01*
X74041000Y-82804000D02*
X74041000Y-66421000D01*
X74295000Y-83058000D02*
X74041000Y-82804000D01*
X124266960Y-79375000D02*
X123962160Y-79375000D01*
X125587760Y-80695800D02*
X124266960Y-79375000D01*
X111061500Y-83820000D02*
X111633000Y-83820000D01*
X114554000Y-80899000D02*
X116078000Y-79375000D01*
X116078000Y-79375000D02*
X123921520Y-79375000D01*
X111633000Y-83820000D02*
X114554000Y-80899000D01*
X80708500Y-83032000D02*
X82397000Y-83032000D01*
X82397000Y-83032000D02*
X82423000Y-83058000D01*
X80708500Y-83832000D02*
X82435000Y-83832000D01*
X82435000Y-83832000D02*
X82550000Y-83947000D01*
X80708500Y-84632000D02*
X82346000Y-84632000D01*
X82346000Y-84632000D02*
X82550000Y-84836000D01*
X80708500Y-85432000D02*
X82257000Y-85432000D01*
X82257000Y-85432000D02*
X82550000Y-85725000D01*
D18*
G36*
X207570000Y-64366812D02*
X207563795Y-64368046D01*
X207333454Y-64521954D01*
X207179546Y-64752295D01*
X207125500Y-65024000D01*
X207125500Y-65151000D01*
X207179546Y-65422705D01*
X207333454Y-65653046D01*
X207563795Y-65806954D01*
X207570000Y-65808188D01*
X207570000Y-126671000D01*
X78307000Y-126671000D01*
X78307000Y-126619000D01*
X78252954Y-126347295D01*
X78099046Y-126116954D01*
X77868705Y-125963046D01*
X77597000Y-125909000D01*
X77325295Y-125963046D01*
X77094954Y-126116954D01*
X76941046Y-126347295D01*
X76887000Y-126619000D01*
X76887000Y-126671000D01*
X72084000Y-126671000D01*
X72084000Y-124534285D01*
X200756760Y-124534285D01*
X200967169Y-125043515D01*
X201356436Y-125433461D01*
X201865298Y-125644759D01*
X202416285Y-125645240D01*
X202925515Y-125434831D01*
X203315461Y-125045564D01*
X203526759Y-124536702D01*
X203527240Y-123985715D01*
X203316831Y-123476485D01*
X202927564Y-123086539D01*
X202418702Y-122875241D01*
X201867715Y-122874760D01*
X201358485Y-123085169D01*
X200968539Y-123474436D01*
X200757241Y-123983298D01*
X200756760Y-124534285D01*
X72084000Y-124534285D01*
X72084000Y-122387750D01*
X84680000Y-122387750D01*
X84680000Y-123328310D01*
X84776673Y-123561699D01*
X84955302Y-123740327D01*
X85188691Y-123837000D01*
X85729250Y-123837000D01*
X85888000Y-123678250D01*
X85888000Y-122229000D01*
X86142000Y-122229000D01*
X86142000Y-123678250D01*
X86300750Y-123837000D01*
X86841309Y-123837000D01*
X87074698Y-123740327D01*
X87253327Y-123561699D01*
X87350000Y-123328310D01*
X87350000Y-122387750D01*
X87191250Y-122229000D01*
X86142000Y-122229000D01*
X85888000Y-122229000D01*
X84838750Y-122229000D01*
X84680000Y-122387750D01*
X72084000Y-122387750D01*
X72084000Y-120875690D01*
X84680000Y-120875690D01*
X84680000Y-121816250D01*
X84838750Y-121975000D01*
X85888000Y-121975000D01*
X85888000Y-120525750D01*
X86142000Y-120525750D01*
X86142000Y-121975000D01*
X87191250Y-121975000D01*
X87350000Y-121816250D01*
X87350000Y-121002000D01*
X89167560Y-121002000D01*
X89167560Y-123202000D01*
X89211838Y-123437317D01*
X89350910Y-123653441D01*
X89563110Y-123798431D01*
X89815000Y-123849440D01*
X91215000Y-123849440D01*
X91450317Y-123805162D01*
X91666441Y-123666090D01*
X91811431Y-123453890D01*
X91862440Y-123202000D01*
X91862440Y-122387750D01*
X94840000Y-122387750D01*
X94840000Y-123328310D01*
X94936673Y-123561699D01*
X95115302Y-123740327D01*
X95348691Y-123837000D01*
X95889250Y-123837000D01*
X96048000Y-123678250D01*
X96048000Y-122229000D01*
X96302000Y-122229000D01*
X96302000Y-123678250D01*
X96460750Y-123837000D01*
X97001309Y-123837000D01*
X97234698Y-123740327D01*
X97413327Y-123561699D01*
X97510000Y-123328310D01*
X97510000Y-122387750D01*
X97351250Y-122229000D01*
X96302000Y-122229000D01*
X96048000Y-122229000D01*
X94998750Y-122229000D01*
X94840000Y-122387750D01*
X91862440Y-122387750D01*
X91862440Y-121002000D01*
X91838674Y-120875690D01*
X94840000Y-120875690D01*
X94840000Y-121816250D01*
X94998750Y-121975000D01*
X96048000Y-121975000D01*
X96048000Y-120525750D01*
X96302000Y-120525750D01*
X96302000Y-121975000D01*
X97351250Y-121975000D01*
X97510000Y-121816250D01*
X97510000Y-121002000D01*
X99327560Y-121002000D01*
X99327560Y-123202000D01*
X99371838Y-123437317D01*
X99510910Y-123653441D01*
X99723110Y-123798431D01*
X99975000Y-123849440D01*
X101375000Y-123849440D01*
X101610317Y-123805162D01*
X101826441Y-123666090D01*
X101971431Y-123453890D01*
X102022440Y-123202000D01*
X102022440Y-122387750D01*
X105000000Y-122387750D01*
X105000000Y-123328310D01*
X105096673Y-123561699D01*
X105275302Y-123740327D01*
X105508691Y-123837000D01*
X106049250Y-123837000D01*
X106208000Y-123678250D01*
X106208000Y-122229000D01*
X106462000Y-122229000D01*
X106462000Y-123678250D01*
X106620750Y-123837000D01*
X107161309Y-123837000D01*
X107394698Y-123740327D01*
X107573327Y-123561699D01*
X107670000Y-123328310D01*
X107670000Y-122387750D01*
X107511250Y-122229000D01*
X106462000Y-122229000D01*
X106208000Y-122229000D01*
X105158750Y-122229000D01*
X105000000Y-122387750D01*
X102022440Y-122387750D01*
X102022440Y-121002000D01*
X101998674Y-120875690D01*
X105000000Y-120875690D01*
X105000000Y-121816250D01*
X105158750Y-121975000D01*
X106208000Y-121975000D01*
X106208000Y-120525750D01*
X106462000Y-120525750D01*
X106462000Y-121975000D01*
X107511250Y-121975000D01*
X107670000Y-121816250D01*
X107670000Y-121002000D01*
X109487560Y-121002000D01*
X109487560Y-123202000D01*
X109531838Y-123437317D01*
X109670910Y-123653441D01*
X109883110Y-123798431D01*
X110135000Y-123849440D01*
X111535000Y-123849440D01*
X111770317Y-123805162D01*
X111986441Y-123666090D01*
X112131431Y-123453890D01*
X112182440Y-123202000D01*
X112182440Y-122387750D01*
X115160000Y-122387750D01*
X115160000Y-123328310D01*
X115256673Y-123561699D01*
X115435302Y-123740327D01*
X115668691Y-123837000D01*
X116209250Y-123837000D01*
X116368000Y-123678250D01*
X116368000Y-122229000D01*
X116622000Y-122229000D01*
X116622000Y-123678250D01*
X116780750Y-123837000D01*
X117321309Y-123837000D01*
X117554698Y-123740327D01*
X117733327Y-123561699D01*
X117830000Y-123328310D01*
X117830000Y-122387750D01*
X117671250Y-122229000D01*
X116622000Y-122229000D01*
X116368000Y-122229000D01*
X115318750Y-122229000D01*
X115160000Y-122387750D01*
X112182440Y-122387750D01*
X112182440Y-121002000D01*
X112158674Y-120875690D01*
X115160000Y-120875690D01*
X115160000Y-121816250D01*
X115318750Y-121975000D01*
X116368000Y-121975000D01*
X116368000Y-120525750D01*
X116622000Y-120525750D01*
X116622000Y-121975000D01*
X117671250Y-121975000D01*
X117830000Y-121816250D01*
X117830000Y-121002000D01*
X119647560Y-121002000D01*
X119647560Y-123202000D01*
X119691838Y-123437317D01*
X119830910Y-123653441D01*
X120043110Y-123798431D01*
X120295000Y-123849440D01*
X121695000Y-123849440D01*
X121930317Y-123805162D01*
X122146441Y-123666090D01*
X122291431Y-123453890D01*
X122342440Y-123202000D01*
X122342440Y-122387750D01*
X125320000Y-122387750D01*
X125320000Y-123328310D01*
X125416673Y-123561699D01*
X125595302Y-123740327D01*
X125828691Y-123837000D01*
X126369250Y-123837000D01*
X126528000Y-123678250D01*
X126528000Y-122229000D01*
X126782000Y-122229000D01*
X126782000Y-123678250D01*
X126940750Y-123837000D01*
X127481309Y-123837000D01*
X127714698Y-123740327D01*
X127893327Y-123561699D01*
X127990000Y-123328310D01*
X127990000Y-122387750D01*
X127831250Y-122229000D01*
X126782000Y-122229000D01*
X126528000Y-122229000D01*
X125478750Y-122229000D01*
X125320000Y-122387750D01*
X122342440Y-122387750D01*
X122342440Y-121002000D01*
X122318674Y-120875690D01*
X125320000Y-120875690D01*
X125320000Y-121816250D01*
X125478750Y-121975000D01*
X126528000Y-121975000D01*
X126528000Y-120525750D01*
X126782000Y-120525750D01*
X126782000Y-121975000D01*
X127831250Y-121975000D01*
X127990000Y-121816250D01*
X127990000Y-121002000D01*
X129807560Y-121002000D01*
X129807560Y-123202000D01*
X129851838Y-123437317D01*
X129990910Y-123653441D01*
X130203110Y-123798431D01*
X130455000Y-123849440D01*
X131855000Y-123849440D01*
X132090317Y-123805162D01*
X132306441Y-123666090D01*
X132451431Y-123453890D01*
X132502440Y-123202000D01*
X132502440Y-121002000D01*
X135467560Y-121002000D01*
X135467560Y-123202000D01*
X135511838Y-123437317D01*
X135650910Y-123653441D01*
X135863110Y-123798431D01*
X136115000Y-123849440D01*
X137515000Y-123849440D01*
X137750317Y-123805162D01*
X137966441Y-123666090D01*
X138111431Y-123453890D01*
X138162440Y-123202000D01*
X138162440Y-121002000D01*
X138118162Y-120766683D01*
X137979090Y-120550559D01*
X137766890Y-120405569D01*
X137515000Y-120354560D01*
X136115000Y-120354560D01*
X135879683Y-120398838D01*
X135663559Y-120537910D01*
X135518569Y-120750110D01*
X135467560Y-121002000D01*
X132502440Y-121002000D01*
X132458162Y-120766683D01*
X132319090Y-120550559D01*
X132106890Y-120405569D01*
X131855000Y-120354560D01*
X130455000Y-120354560D01*
X130219683Y-120398838D01*
X130003559Y-120537910D01*
X129858569Y-120750110D01*
X129807560Y-121002000D01*
X127990000Y-121002000D01*
X127990000Y-120875690D01*
X127893327Y-120642301D01*
X127714698Y-120463673D01*
X127481309Y-120367000D01*
X126940750Y-120367000D01*
X126782000Y-120525750D01*
X126528000Y-120525750D01*
X126369250Y-120367000D01*
X125828691Y-120367000D01*
X125595302Y-120463673D01*
X125416673Y-120642301D01*
X125320000Y-120875690D01*
X122318674Y-120875690D01*
X122298162Y-120766683D01*
X122159090Y-120550559D01*
X121946890Y-120405569D01*
X121695000Y-120354560D01*
X120295000Y-120354560D01*
X120059683Y-120398838D01*
X119843559Y-120537910D01*
X119698569Y-120750110D01*
X119647560Y-121002000D01*
X117830000Y-121002000D01*
X117830000Y-120875690D01*
X117733327Y-120642301D01*
X117554698Y-120463673D01*
X117321309Y-120367000D01*
X116780750Y-120367000D01*
X116622000Y-120525750D01*
X116368000Y-120525750D01*
X116209250Y-120367000D01*
X115668691Y-120367000D01*
X115435302Y-120463673D01*
X115256673Y-120642301D01*
X115160000Y-120875690D01*
X112158674Y-120875690D01*
X112138162Y-120766683D01*
X111999090Y-120550559D01*
X111786890Y-120405569D01*
X111535000Y-120354560D01*
X110135000Y-120354560D01*
X109899683Y-120398838D01*
X109683559Y-120537910D01*
X109538569Y-120750110D01*
X109487560Y-121002000D01*
X107670000Y-121002000D01*
X107670000Y-120875690D01*
X107573327Y-120642301D01*
X107394698Y-120463673D01*
X107161309Y-120367000D01*
X106620750Y-120367000D01*
X106462000Y-120525750D01*
X106208000Y-120525750D01*
X106049250Y-120367000D01*
X105508691Y-120367000D01*
X105275302Y-120463673D01*
X105096673Y-120642301D01*
X105000000Y-120875690D01*
X101998674Y-120875690D01*
X101978162Y-120766683D01*
X101839090Y-120550559D01*
X101626890Y-120405569D01*
X101375000Y-120354560D01*
X99975000Y-120354560D01*
X99739683Y-120398838D01*
X99523559Y-120537910D01*
X99378569Y-120750110D01*
X99327560Y-121002000D01*
X97510000Y-121002000D01*
X97510000Y-120875690D01*
X97413327Y-120642301D01*
X97234698Y-120463673D01*
X97001309Y-120367000D01*
X96460750Y-120367000D01*
X96302000Y-120525750D01*
X96048000Y-120525750D01*
X95889250Y-120367000D01*
X95348691Y-120367000D01*
X95115302Y-120463673D01*
X94936673Y-120642301D01*
X94840000Y-120875690D01*
X91838674Y-120875690D01*
X91818162Y-120766683D01*
X91679090Y-120550559D01*
X91466890Y-120405569D01*
X91215000Y-120354560D01*
X89815000Y-120354560D01*
X89579683Y-120398838D01*
X89363559Y-120537910D01*
X89218569Y-120750110D01*
X89167560Y-121002000D01*
X87350000Y-121002000D01*
X87350000Y-120875690D01*
X87253327Y-120642301D01*
X87074698Y-120463673D01*
X86841309Y-120367000D01*
X86300750Y-120367000D01*
X86142000Y-120525750D01*
X85888000Y-120525750D01*
X85729250Y-120367000D01*
X85188691Y-120367000D01*
X84955302Y-120463673D01*
X84776673Y-120642301D01*
X84680000Y-120875690D01*
X72084000Y-120875690D01*
X72084000Y-106836377D01*
X72195493Y-107106212D01*
X72470341Y-107381540D01*
X72829630Y-107530730D01*
X73218663Y-107531069D01*
X73578212Y-107382507D01*
X73853540Y-107107659D01*
X73941460Y-106895924D01*
X74107663Y-106896069D01*
X74467212Y-106747507D01*
X74742540Y-106472659D01*
X74830460Y-106260924D01*
X74996663Y-106261069D01*
X75321257Y-106126950D01*
X75266949Y-106208228D01*
X75211000Y-106489500D01*
X75211000Y-107301853D01*
X75180960Y-107331841D01*
X75031770Y-107691130D01*
X75031431Y-108080163D01*
X75179993Y-108439712D01*
X75454841Y-108715040D01*
X75729942Y-108829272D01*
X75729931Y-108842163D01*
X75878493Y-109201712D01*
X76153341Y-109477040D01*
X76512630Y-109626230D01*
X76901663Y-109626569D01*
X76927504Y-109615892D01*
X77105841Y-109794540D01*
X77465130Y-109943730D01*
X77854163Y-109944069D01*
X78213712Y-109795507D01*
X78489040Y-109520659D01*
X78638230Y-109161370D01*
X78638569Y-108772337D01*
X78490007Y-108412788D01*
X78395500Y-108318116D01*
X78395500Y-108254446D01*
X78882947Y-107767000D01*
X79366703Y-107767000D01*
X79456610Y-107828431D01*
X79708500Y-107879440D01*
X81708500Y-107879440D01*
X81943817Y-107835162D01*
X82159941Y-107696090D01*
X82304931Y-107483890D01*
X82355940Y-107232000D01*
X82355940Y-106832000D01*
X82316926Y-106624658D01*
X82355940Y-106432000D01*
X82355940Y-106032000D01*
X82316926Y-105824658D01*
X82355940Y-105632000D01*
X82355940Y-105232000D01*
X82316642Y-105023150D01*
X82343500Y-104958309D01*
X82343500Y-104890750D01*
X82184750Y-104732000D01*
X82101522Y-104732000D01*
X81960390Y-104635569D01*
X81947303Y-104632919D01*
X82104135Y-104532000D01*
X82184750Y-104532000D01*
X82343500Y-104373250D01*
X82343500Y-104305691D01*
X82314630Y-104235993D01*
X82355940Y-104032000D01*
X82355940Y-103767000D01*
X82959500Y-103767000D01*
X83240772Y-103711051D01*
X83479223Y-103551723D01*
X83910500Y-103120447D01*
X83910500Y-108267500D01*
X83951750Y-108474875D01*
X83966449Y-108548772D01*
X84125777Y-108787223D01*
X85752891Y-110414337D01*
X85425788Y-110549493D01*
X85150460Y-110824341D01*
X85001270Y-111183630D01*
X85001038Y-111449444D01*
X84863559Y-111537910D01*
X84718569Y-111750110D01*
X84667560Y-112002000D01*
X84667560Y-114202000D01*
X84711838Y-114437317D01*
X84850910Y-114653441D01*
X85063110Y-114798431D01*
X85315000Y-114849440D01*
X86167011Y-114849440D01*
X86080770Y-115057130D01*
X86080431Y-115446163D01*
X86228993Y-115805712D01*
X86503841Y-116081040D01*
X86863130Y-116230230D01*
X87252163Y-116230569D01*
X87611712Y-116082007D01*
X87887040Y-115807159D01*
X88036230Y-115447870D01*
X88036347Y-115314100D01*
X88530723Y-114819724D01*
X88690051Y-114581273D01*
X88708107Y-114490500D01*
X88746000Y-114300000D01*
X88746000Y-112889946D01*
X89167560Y-112468386D01*
X89167560Y-114202000D01*
X89211838Y-114437317D01*
X89350910Y-114653441D01*
X89563110Y-114798431D01*
X89815000Y-114849440D01*
X91215000Y-114849440D01*
X91450317Y-114805162D01*
X91666441Y-114666090D01*
X91811431Y-114453890D01*
X91862440Y-114202000D01*
X91862440Y-112002000D01*
X91818162Y-111766683D01*
X91696363Y-111577402D01*
X94996575Y-111577402D01*
X94878569Y-111750110D01*
X94827560Y-112002000D01*
X94827560Y-114202000D01*
X94871838Y-114437317D01*
X95010910Y-114653441D01*
X95223110Y-114798431D01*
X95475000Y-114849440D01*
X96875000Y-114849440D01*
X97110317Y-114805162D01*
X97326441Y-114666090D01*
X97471431Y-114453890D01*
X97522440Y-114202000D01*
X97522440Y-112002000D01*
X97478162Y-111766683D01*
X97356363Y-111577402D01*
X99496575Y-111577402D01*
X99378569Y-111750110D01*
X99327560Y-112002000D01*
X99327560Y-114202000D01*
X99371838Y-114437317D01*
X99510910Y-114653441D01*
X99723110Y-114798431D01*
X99975000Y-114849440D01*
X101375000Y-114849440D01*
X101610317Y-114805162D01*
X101826441Y-114666090D01*
X101971431Y-114453890D01*
X102022440Y-114202000D01*
X102022440Y-112002000D01*
X101978162Y-111766683D01*
X101856363Y-111577402D01*
X105156575Y-111577402D01*
X105038569Y-111750110D01*
X104987560Y-112002000D01*
X104987560Y-114202000D01*
X105031838Y-114437317D01*
X105170910Y-114653441D01*
X105383110Y-114798431D01*
X105635000Y-114849440D01*
X107035000Y-114849440D01*
X107270317Y-114805162D01*
X107486441Y-114666090D01*
X107631431Y-114453890D01*
X107682440Y-114202000D01*
X107682440Y-112002000D01*
X107638162Y-111766683D01*
X107516363Y-111577402D01*
X109656575Y-111577402D01*
X109538569Y-111750110D01*
X109487560Y-112002000D01*
X109487560Y-114202000D01*
X109531838Y-114437317D01*
X109670910Y-114653441D01*
X109883110Y-114798431D01*
X110135000Y-114849440D01*
X111535000Y-114849440D01*
X111770317Y-114805162D01*
X111986441Y-114666090D01*
X112131431Y-114453890D01*
X112182440Y-114202000D01*
X112182440Y-112002000D01*
X112138162Y-111766683D01*
X112016363Y-111577402D01*
X115316575Y-111577402D01*
X115198569Y-111750110D01*
X115147560Y-112002000D01*
X115147560Y-114202000D01*
X115191838Y-114437317D01*
X115330910Y-114653441D01*
X115543110Y-114798431D01*
X115795000Y-114849440D01*
X117195000Y-114849440D01*
X117430317Y-114805162D01*
X117646441Y-114666090D01*
X117791431Y-114453890D01*
X117842440Y-114202000D01*
X117842440Y-112002000D01*
X119647560Y-112002000D01*
X119647560Y-114202000D01*
X119691838Y-114437317D01*
X119830910Y-114653441D01*
X120043110Y-114798431D01*
X120295000Y-114849440D01*
X121695000Y-114849440D01*
X121930317Y-114805162D01*
X122146441Y-114666090D01*
X122291431Y-114453890D01*
X122342440Y-114202000D01*
X122342440Y-112002000D01*
X125307560Y-112002000D01*
X125307560Y-114202000D01*
X125351838Y-114437317D01*
X125490910Y-114653441D01*
X125703110Y-114798431D01*
X125955000Y-114849440D01*
X127355000Y-114849440D01*
X127590317Y-114805162D01*
X127806441Y-114666090D01*
X127951431Y-114453890D01*
X128002440Y-114202000D01*
X128002440Y-112002000D01*
X127958162Y-111766683D01*
X127819090Y-111550559D01*
X127606890Y-111405569D01*
X127596879Y-111403542D01*
X127597069Y-111185337D01*
X127448507Y-110825788D01*
X127173659Y-110550460D01*
X126814370Y-110401270D01*
X126425337Y-110400931D01*
X126065788Y-110549493D01*
X125790460Y-110824341D01*
X125641270Y-111183630D01*
X125641038Y-111449444D01*
X125503559Y-111537910D01*
X125358569Y-111750110D01*
X125307560Y-112002000D01*
X122342440Y-112002000D01*
X122298162Y-111766683D01*
X122159090Y-111550559D01*
X121946890Y-111405569D01*
X121695000Y-111354560D01*
X120295000Y-111354560D01*
X120059683Y-111398838D01*
X119843559Y-111537910D01*
X119698569Y-111750110D01*
X119647560Y-112002000D01*
X117842440Y-112002000D01*
X117798162Y-111766683D01*
X117659090Y-111550559D01*
X117446890Y-111405569D01*
X117436934Y-111403553D01*
X117437069Y-111248837D01*
X117381675Y-111114772D01*
X120788724Y-107707723D01*
X120948051Y-107469272D01*
X120955808Y-107430277D01*
X121004000Y-107188000D01*
X121004000Y-103174446D01*
X123470344Y-100708102D01*
X123585301Y-100823260D01*
X123944590Y-100972450D01*
X124333623Y-100972789D01*
X124693172Y-100824227D01*
X124968500Y-100549379D01*
X125117690Y-100190090D01*
X125117807Y-100056320D01*
X125343567Y-99830560D01*
X131583164Y-99830560D01*
X131483270Y-100071130D01*
X131482931Y-100460163D01*
X131631493Y-100819712D01*
X131906341Y-101095040D01*
X132265630Y-101244230D01*
X132462956Y-101244402D01*
X133059500Y-101840947D01*
X133059500Y-103715775D01*
X132917577Y-103715651D01*
X132558028Y-103864213D01*
X132282700Y-104139061D01*
X132133510Y-104498350D01*
X132133171Y-104887383D01*
X132281733Y-105246932D01*
X132376240Y-105341604D01*
X132376240Y-111162755D01*
X132287780Y-111251061D01*
X132197823Y-111467701D01*
X132106890Y-111405569D01*
X131855000Y-111354560D01*
X130455000Y-111354560D01*
X130219683Y-111398838D01*
X130003559Y-111537910D01*
X129858569Y-111750110D01*
X129807560Y-112002000D01*
X129807560Y-114202000D01*
X129851838Y-114437317D01*
X129990910Y-114653441D01*
X130203110Y-114798431D01*
X130455000Y-114849440D01*
X131855000Y-114849440D01*
X132090317Y-114805162D01*
X132306441Y-114666090D01*
X132451431Y-114453890D01*
X132502440Y-114202000D01*
X132502440Y-112574936D01*
X132561661Y-112634260D01*
X132920950Y-112783450D01*
X133059500Y-112783571D01*
X133059500Y-114998500D01*
X133110024Y-115252500D01*
X133115449Y-115279772D01*
X133274777Y-115518223D01*
X136259276Y-118502723D01*
X136497728Y-118662051D01*
X136779000Y-118718000D01*
X142715993Y-118718000D01*
X141079434Y-120354560D01*
X140615000Y-120354560D01*
X140379683Y-120398838D01*
X140163559Y-120537910D01*
X140018569Y-120750110D01*
X139967560Y-121002000D01*
X139967560Y-123202000D01*
X140011838Y-123437317D01*
X140150910Y-123653441D01*
X140363110Y-123798431D01*
X140615000Y-123849440D01*
X142015000Y-123849440D01*
X142250317Y-123805162D01*
X142466441Y-123666090D01*
X142611431Y-123453890D01*
X142662440Y-123202000D01*
X142662440Y-121002000D01*
X142660935Y-120994000D01*
X153431877Y-120994000D01*
X153563946Y-121657956D01*
X153940047Y-122220830D01*
X154502921Y-122596931D01*
X155166877Y-122729000D01*
X157070123Y-122729000D01*
X157734079Y-122596931D01*
X158296953Y-122220830D01*
X158673054Y-121657956D01*
X158805123Y-120994000D01*
X158673054Y-120330044D01*
X158296953Y-119767170D01*
X157734079Y-119391069D01*
X157070123Y-119259000D01*
X155166877Y-119259000D01*
X154502921Y-119391069D01*
X153940047Y-119767170D01*
X153563946Y-120330044D01*
X153431877Y-120994000D01*
X142660935Y-120994000D01*
X142638439Y-120874447D01*
X144281807Y-119231080D01*
X157922314Y-119231080D01*
X159159917Y-120468684D01*
X159398368Y-120628011D01*
X159679640Y-120683960D01*
X161691320Y-120683960D01*
X161972592Y-120628011D01*
X162211043Y-120468683D01*
X165675604Y-117004123D01*
X165834931Y-116765672D01*
X165838336Y-116748554D01*
X165890880Y-116484400D01*
X165890880Y-116350116D01*
X165984420Y-116256739D01*
X166012696Y-116188642D01*
X170485776Y-120661723D01*
X170724228Y-120821051D01*
X171005500Y-120877000D01*
X179183964Y-120877000D01*
X179277341Y-120970540D01*
X179636630Y-121119730D01*
X180025663Y-121120069D01*
X180385212Y-120971507D01*
X180660540Y-120696659D01*
X180809730Y-120337370D01*
X180810069Y-119948337D01*
X180661507Y-119588788D01*
X180386659Y-119313460D01*
X180027370Y-119164270D01*
X179638337Y-119163931D01*
X179278788Y-119312493D01*
X179184116Y-119407000D01*
X171309947Y-119407000D01*
X167429410Y-115526464D01*
X167621712Y-115447007D01*
X167897040Y-115172159D01*
X168046230Y-114812870D01*
X168046396Y-114622250D01*
X178797304Y-114622250D01*
X178875414Y-114700360D01*
X178727270Y-115057130D01*
X178726931Y-115446163D01*
X178875493Y-115805712D01*
X179150341Y-116081040D01*
X179509630Y-116230230D01*
X179898663Y-116230569D01*
X180258212Y-116082007D01*
X180533540Y-115807159D01*
X180682730Y-115447870D01*
X180683069Y-115058837D01*
X180534507Y-114699288D01*
X180440000Y-114604616D01*
X180440000Y-114490500D01*
X180384051Y-114209228D01*
X180352011Y-114161277D01*
X180224723Y-113970776D01*
X179621473Y-113367527D01*
X179383022Y-113208199D01*
X179101750Y-113152250D01*
X165925757Y-113152250D01*
X166041363Y-113036644D01*
X166200691Y-112798192D01*
X166208974Y-112756551D01*
X166256640Y-112516920D01*
X166256640Y-108266890D01*
X166513841Y-108524540D01*
X166873130Y-108673730D01*
X167262163Y-108674069D01*
X167543073Y-108558000D01*
X179183964Y-108558000D01*
X179277341Y-108651540D01*
X179636630Y-108800730D01*
X180025663Y-108801069D01*
X180385212Y-108652507D01*
X180660540Y-108377659D01*
X180809730Y-108018370D01*
X180810069Y-107629337D01*
X180661507Y-107269788D01*
X180386659Y-106994460D01*
X180027370Y-106845270D01*
X179638337Y-106844931D01*
X179278788Y-106993493D01*
X179184116Y-107088000D01*
X169354530Y-107088000D01*
X169354669Y-106928297D01*
X169206107Y-106568748D01*
X168931259Y-106293420D01*
X168571970Y-106144230D01*
X168182937Y-106143891D01*
X167823388Y-106292453D01*
X167728716Y-106386960D01*
X167568527Y-106386960D01*
X167326603Y-106145037D01*
X167088152Y-105985709D01*
X166806880Y-105929760D01*
X166229287Y-105929760D01*
X167016723Y-105142324D01*
X167176051Y-104903872D01*
X167181848Y-104874728D01*
X167232000Y-104622600D01*
X167232000Y-100334285D01*
X200756760Y-100334285D01*
X200967169Y-100843515D01*
X201356436Y-101233461D01*
X201865298Y-101444759D01*
X202416285Y-101445240D01*
X202925515Y-101234831D01*
X203315461Y-100845564D01*
X203526759Y-100336702D01*
X203527240Y-99785715D01*
X203316831Y-99276485D01*
X202927564Y-98886539D01*
X202418702Y-98675241D01*
X201867715Y-98674760D01*
X201358485Y-98885169D01*
X200968539Y-99274436D01*
X200757241Y-99783298D01*
X200756760Y-100334285D01*
X167232000Y-100334285D01*
X167232000Y-95610326D01*
X170794327Y-92048000D01*
X198882000Y-92048000D01*
X199163272Y-91992051D01*
X199401723Y-91832723D01*
X205436763Y-85797684D01*
X205596091Y-85559233D01*
X205611963Y-85479440D01*
X205652040Y-85277960D01*
X205652040Y-78854636D01*
X205745580Y-78761259D01*
X205894770Y-78401970D01*
X205895109Y-78012937D01*
X205746547Y-77653388D01*
X205471699Y-77378060D01*
X205112410Y-77228870D01*
X204723377Y-77228531D01*
X204363828Y-77377093D01*
X204088500Y-77651941D01*
X203939310Y-78011230D01*
X203938971Y-78400263D01*
X204087533Y-78759812D01*
X204182040Y-78854484D01*
X204182040Y-84973513D01*
X198577554Y-90578000D01*
X197120986Y-90578000D01*
X197188691Y-90476672D01*
X197207809Y-90380559D01*
X197244640Y-90195400D01*
X197244640Y-81389556D01*
X197338180Y-81296179D01*
X197487370Y-80936890D01*
X197487626Y-80643400D01*
X198186394Y-80643400D01*
X201022280Y-83479287D01*
X201022280Y-84762004D01*
X200928740Y-84855381D01*
X200779550Y-85214670D01*
X200779211Y-85603703D01*
X200927773Y-85963252D01*
X201202621Y-86238580D01*
X201561910Y-86387770D01*
X201950943Y-86388109D01*
X202310492Y-86239547D01*
X202585820Y-85964699D01*
X202735010Y-85605410D01*
X202735349Y-85216377D01*
X202586787Y-84856828D01*
X202492280Y-84762156D01*
X202492280Y-83174840D01*
X202436331Y-82893568D01*
X202416882Y-82864460D01*
X202277004Y-82655117D01*
X199010563Y-79388677D01*
X198772112Y-79229349D01*
X198746040Y-79224163D01*
X198490840Y-79173400D01*
X193703409Y-79173400D01*
X193974212Y-79061507D01*
X194249540Y-78786659D01*
X194398730Y-78427370D01*
X194399069Y-78038337D01*
X194250507Y-77678788D01*
X194156000Y-77584116D01*
X194156000Y-74562036D01*
X194249540Y-74468659D01*
X194398730Y-74109370D01*
X194399069Y-73720337D01*
X194250507Y-73360788D01*
X193975659Y-73085460D01*
X193616370Y-72936270D01*
X193227337Y-72935931D01*
X192867788Y-73084493D01*
X192592460Y-73359341D01*
X192443270Y-73718630D01*
X192442931Y-74107663D01*
X192591493Y-74467212D01*
X192686000Y-74561884D01*
X192686000Y-77583964D01*
X192592460Y-77677341D01*
X192443270Y-78036630D01*
X192442931Y-78425663D01*
X192591493Y-78785212D01*
X192866341Y-79060540D01*
X193138138Y-79173400D01*
X191429640Y-79173400D01*
X191174440Y-79224163D01*
X191148368Y-79229349D01*
X190909917Y-79388676D01*
X190357227Y-79941366D01*
X190225057Y-79941251D01*
X189975160Y-80044506D01*
X189975160Y-78216760D01*
X189919211Y-77935488D01*
X189900089Y-77906870D01*
X189759884Y-77697037D01*
X189147846Y-77085000D01*
X189991995Y-77085000D01*
X189992000Y-77085001D01*
X190300762Y-77023583D01*
X190330675Y-77017633D01*
X190617790Y-76825790D01*
X191337733Y-76105846D01*
X191561212Y-76013507D01*
X191836540Y-75738659D01*
X191985730Y-75379370D01*
X191986069Y-74990337D01*
X191837507Y-74630788D01*
X191562659Y-74355460D01*
X191203370Y-74206270D01*
X190814337Y-74205931D01*
X190454788Y-74354493D01*
X190259016Y-74549924D01*
X190252547Y-74534268D01*
X189977699Y-74258940D01*
X189618410Y-74109750D01*
X189229377Y-74109411D01*
X188869828Y-74257973D01*
X188775156Y-74352480D01*
X185115200Y-74352480D01*
X184833928Y-74408429D01*
X184595477Y-74567756D01*
X184006197Y-75157037D01*
X183846869Y-75395488D01*
X183790920Y-75676760D01*
X183790920Y-76591160D01*
X183834053Y-76808000D01*
X183846869Y-76872432D01*
X184006197Y-77110883D01*
X184575157Y-77679844D01*
X184790903Y-77824000D01*
X184813608Y-77839171D01*
X185094880Y-77895120D01*
X187879074Y-77895120D01*
X188505160Y-78521207D01*
X188505160Y-80464787D01*
X188464387Y-80366108D01*
X188189539Y-80090780D01*
X187830250Y-79941590D01*
X187441217Y-79941251D01*
X187081668Y-80089813D01*
X186986996Y-80184320D01*
X183931207Y-80184320D01*
X180535490Y-76788604D01*
X180860910Y-76923730D01*
X181249943Y-76924069D01*
X181609492Y-76775507D01*
X181884820Y-76500659D01*
X182034010Y-76141370D01*
X182034349Y-75752337D01*
X181941280Y-75527092D01*
X181941280Y-71694663D01*
X186600931Y-71694663D01*
X186749493Y-72054212D01*
X187024341Y-72329540D01*
X187383630Y-72478730D01*
X187772663Y-72479069D01*
X187997908Y-72386000D01*
X190890924Y-72386000D01*
X190961341Y-72456540D01*
X191320630Y-72605730D01*
X191709663Y-72606069D01*
X192069212Y-72457507D01*
X192344540Y-72182659D01*
X192493730Y-71823370D01*
X192494069Y-71434337D01*
X192345507Y-71074788D01*
X192070659Y-70799460D01*
X191711370Y-70650270D01*
X191560628Y-70650139D01*
X191389000Y-70615999D01*
X191388995Y-70616000D01*
X187997688Y-70616000D01*
X187774370Y-70523270D01*
X187385337Y-70522931D01*
X187025788Y-70671493D01*
X186750460Y-70946341D01*
X186601270Y-71305630D01*
X186600931Y-71694663D01*
X181941280Y-71694663D01*
X181941280Y-67899285D01*
X181941281Y-67899280D01*
X181873913Y-67560606D01*
X181873913Y-67560605D01*
X181682070Y-67273490D01*
X181682067Y-67273488D01*
X178634070Y-64225490D01*
X178609196Y-64208870D01*
X178346955Y-64033647D01*
X178290764Y-64022470D01*
X178008280Y-63966279D01*
X178008275Y-63966280D01*
X158389583Y-63966280D01*
X158334379Y-63910980D01*
X157975090Y-63761790D01*
X157586057Y-63761451D01*
X157226508Y-63910013D01*
X156951180Y-64184861D01*
X156801990Y-64544150D01*
X156801651Y-64933183D01*
X156950213Y-65292732D01*
X157225061Y-65568060D01*
X157584350Y-65717250D01*
X157796736Y-65717435D01*
X157891480Y-65736281D01*
X157891485Y-65736280D01*
X177641700Y-65736280D01*
X180171280Y-68265859D01*
X180171280Y-75527312D01*
X180078550Y-75750630D01*
X180078211Y-76139663D01*
X180213166Y-76466279D01*
X179452563Y-75705677D01*
X179214112Y-75546349D01*
X179177669Y-75539100D01*
X178932840Y-75490400D01*
X174468084Y-75490400D01*
X174469890Y-75486050D01*
X174470229Y-75097017D01*
X174321667Y-74737468D01*
X174046819Y-74462140D01*
X173733746Y-74332141D01*
X173640947Y-74107548D01*
X173366099Y-73832220D01*
X173006810Y-73683030D01*
X172617777Y-73682691D01*
X172258228Y-73831253D01*
X172163556Y-73925760D01*
X166745567Y-73925760D01*
X166544876Y-73725069D01*
X166690540Y-73579659D01*
X166778414Y-73368035D01*
X166817663Y-73368069D01*
X167177212Y-73219507D01*
X167452540Y-72944659D01*
X167601730Y-72585370D01*
X167602069Y-72196337D01*
X167453507Y-71836788D01*
X167178659Y-71561460D01*
X166819370Y-71412270D01*
X166430337Y-71411931D01*
X166070788Y-71560493D01*
X165976116Y-71655000D01*
X148145455Y-71655000D01*
X148145539Y-71558077D01*
X148185205Y-71541687D01*
X148374310Y-71620210D01*
X148763343Y-71620549D01*
X149122892Y-71471987D01*
X149398220Y-71197139D01*
X149547410Y-70837850D01*
X149547749Y-70448817D01*
X149399187Y-70089268D01*
X149304680Y-69994596D01*
X149304680Y-68169373D01*
X162576812Y-68169373D01*
X162741646Y-68568300D01*
X163046595Y-68873782D01*
X163445233Y-69039311D01*
X163876873Y-69039688D01*
X164275800Y-68874854D01*
X164581282Y-68569905D01*
X164746811Y-68171267D01*
X164746812Y-68169373D01*
X166976812Y-68169373D01*
X167141646Y-68568300D01*
X167446595Y-68873782D01*
X167845233Y-69039311D01*
X168276873Y-69039688D01*
X168675800Y-68874854D01*
X168981282Y-68569905D01*
X169146811Y-68171267D01*
X169147188Y-67739627D01*
X168982354Y-67340700D01*
X168677405Y-67035218D01*
X168278767Y-66869689D01*
X167847127Y-66869312D01*
X167448200Y-67034146D01*
X167142718Y-67339095D01*
X166977189Y-67737733D01*
X166976812Y-68169373D01*
X164746812Y-68169373D01*
X164747188Y-67739627D01*
X164582354Y-67340700D01*
X164277405Y-67035218D01*
X163878767Y-66869689D01*
X163447127Y-66869312D01*
X163048200Y-67034146D01*
X162742718Y-67339095D01*
X162577189Y-67737733D01*
X162576812Y-68169373D01*
X149304680Y-68169373D01*
X149304680Y-67860069D01*
X149395010Y-67642530D01*
X149395349Y-67253497D01*
X149246787Y-66893948D01*
X148971939Y-66618620D01*
X148612650Y-66469430D01*
X148223617Y-66469091D01*
X147864068Y-66617653D01*
X147588740Y-66892501D01*
X147439550Y-67251790D01*
X147439541Y-67261578D01*
X147431137Y-67261571D01*
X147071588Y-67410133D01*
X146796260Y-67684981D01*
X146647070Y-68044270D01*
X146646731Y-68433303D01*
X146795293Y-68792852D01*
X146930440Y-68928235D01*
X146930440Y-70050324D01*
X146836900Y-70143701D01*
X146687710Y-70502990D01*
X146687501Y-70742883D01*
X146614388Y-70773093D01*
X146519716Y-70867600D01*
X145687952Y-70867600D01*
X145397010Y-70746790D01*
X145007977Y-70746451D01*
X144648428Y-70895013D01*
X144373100Y-71169861D01*
X144223910Y-71529150D01*
X144223800Y-71655000D01*
X142306040Y-71655000D01*
X142203885Y-71675320D01*
X141594308Y-71675320D01*
X141380971Y-71717756D01*
X141230019Y-71566540D01*
X140870730Y-71417350D01*
X140481697Y-71417011D01*
X140122148Y-71565573D01*
X139846820Y-71840421D01*
X139697630Y-72199710D01*
X139697513Y-72333480D01*
X139663558Y-72367436D01*
X139619659Y-72323460D01*
X139260370Y-72174270D01*
X138871337Y-72173931D01*
X138793554Y-72206070D01*
X138899730Y-71950370D01*
X138900069Y-71561337D01*
X138751507Y-71201788D01*
X138476659Y-70926460D01*
X138117370Y-70777270D01*
X137728337Y-70776931D01*
X137368788Y-70925493D01*
X137287099Y-71007040D01*
X137206659Y-70926460D01*
X136847370Y-70777270D01*
X136458337Y-70776931D01*
X136313804Y-70836651D01*
X136313804Y-65220804D01*
X136257855Y-64939532D01*
X136242386Y-64916381D01*
X136098528Y-64701081D01*
X133390321Y-61992875D01*
X133151870Y-61833547D01*
X132870598Y-61777598D01*
X76425402Y-61777598D01*
X76144130Y-61833547D01*
X75905679Y-61992874D01*
X72378277Y-65520277D01*
X72218949Y-65758728D01*
X72163000Y-66040000D01*
X72163000Y-86360000D01*
X72210080Y-86596683D01*
X72218949Y-86641272D01*
X72378277Y-86879723D01*
X73190046Y-87691493D01*
X73189931Y-87823663D01*
X73338493Y-88183212D01*
X73613341Y-88458540D01*
X73972630Y-88607730D01*
X74361663Y-88608069D01*
X74721212Y-88459507D01*
X74996540Y-88184659D01*
X75145730Y-87825370D01*
X75146069Y-87436337D01*
X74997507Y-87076788D01*
X74788960Y-86867877D01*
X74996540Y-86660659D01*
X75145730Y-86301370D01*
X75146069Y-85912337D01*
X74997507Y-85552788D01*
X74788960Y-85343877D01*
X74996540Y-85136659D01*
X75145730Y-84777370D01*
X75146069Y-84388337D01*
X74997507Y-84028788D01*
X74852349Y-83883377D01*
X75123540Y-83612659D01*
X75272730Y-83253370D01*
X75273069Y-82864337D01*
X75124507Y-82504788D01*
X74849659Y-82229460D01*
X74776000Y-82198874D01*
X74776000Y-66725446D01*
X77168045Y-64333402D01*
X87494511Y-64333402D01*
X84143557Y-67684357D01*
X83984229Y-67922808D01*
X83928280Y-68204080D01*
X83928280Y-69288324D01*
X83834740Y-69381701D01*
X83685550Y-69740990D01*
X83685211Y-70130023D01*
X83833773Y-70489572D01*
X84108621Y-70764900D01*
X84467910Y-70914090D01*
X84856943Y-70914429D01*
X85123231Y-70804401D01*
X85387390Y-70914090D01*
X85776423Y-70914429D01*
X86135972Y-70765867D01*
X86411300Y-70491019D01*
X86560490Y-70131730D01*
X86560634Y-69966490D01*
X86799630Y-70065730D01*
X86933400Y-70065847D01*
X87364277Y-70496724D01*
X87593569Y-70649931D01*
X87602728Y-70656051D01*
X87884000Y-70712000D01*
X88823464Y-70712000D01*
X88916841Y-70805540D01*
X89276130Y-70954730D01*
X89665163Y-70955069D01*
X90024712Y-70806507D01*
X90300040Y-70531659D01*
X90449230Y-70172370D01*
X90449569Y-69783337D01*
X90301007Y-69423788D01*
X90026159Y-69148460D01*
X89666870Y-68999270D01*
X89277837Y-68998931D01*
X88918288Y-69147493D01*
X88823616Y-69242000D01*
X88188447Y-69242000D01*
X87972954Y-69026507D01*
X87973069Y-68894337D01*
X87824507Y-68534788D01*
X87549659Y-68259460D01*
X87190370Y-68110270D01*
X86801337Y-68109931D01*
X86441788Y-68258493D01*
X86429520Y-68270740D01*
X86429520Y-68229126D01*
X89128247Y-65530400D01*
X92938954Y-65530400D01*
X92941086Y-65532532D01*
X92940971Y-65664703D01*
X93089533Y-66024252D01*
X93364381Y-66299580D01*
X93723670Y-66448770D01*
X94112703Y-66449109D01*
X94472252Y-66300547D01*
X94747580Y-66025699D01*
X94896770Y-65666410D01*
X94897109Y-65277377D01*
X94748970Y-64918851D01*
X94881530Y-64599610D01*
X94881762Y-64333402D01*
X99987259Y-64333402D01*
X99986931Y-64709663D01*
X100135493Y-65069212D01*
X100280540Y-65214512D01*
X100136460Y-65358341D01*
X99987270Y-65717630D01*
X99986931Y-66106663D01*
X100090646Y-66357673D01*
X99987270Y-66606630D01*
X99986931Y-66995663D01*
X100135493Y-67355212D01*
X100344040Y-67564123D01*
X100136460Y-67771341D01*
X99987270Y-68130630D01*
X99986931Y-68519663D01*
X100090646Y-68770673D01*
X99987270Y-69019630D01*
X99986931Y-69408663D01*
X100135493Y-69768212D01*
X100280651Y-69913623D01*
X100009460Y-70184341D01*
X99860270Y-70543630D01*
X99859931Y-70932663D01*
X99963646Y-71183673D01*
X99921540Y-71285076D01*
X99755337Y-71284931D01*
X99395788Y-71433493D01*
X99301116Y-71528000D01*
X95350000Y-71528000D01*
X95350000Y-69646446D01*
X95935446Y-69061000D01*
X97663000Y-69061000D01*
X97944272Y-69005051D01*
X98182723Y-68845723D01*
X98359492Y-68668954D01*
X98491663Y-68669069D01*
X98851212Y-68520507D01*
X99126540Y-68245659D01*
X99275730Y-67886370D01*
X99276069Y-67497337D01*
X99127507Y-67137788D01*
X98852659Y-66862460D01*
X98493370Y-66713270D01*
X98104337Y-66712931D01*
X97744788Y-66861493D01*
X97469460Y-67136341D01*
X97320270Y-67495630D01*
X97320187Y-67591000D01*
X95631000Y-67591000D01*
X95371944Y-67642530D01*
X95349728Y-67646949D01*
X95111277Y-67806277D01*
X94095277Y-68822277D01*
X93935949Y-69060728D01*
X93880000Y-69342000D01*
X93880000Y-71257436D01*
X93857007Y-71201788D01*
X93582159Y-70926460D01*
X93222870Y-70777270D01*
X92833837Y-70776931D01*
X92474288Y-70925493D01*
X92198960Y-71200341D01*
X92049770Y-71559630D01*
X92049431Y-71948663D01*
X92197993Y-72308212D01*
X92292500Y-72402884D01*
X92292500Y-73850500D01*
X92333467Y-74056453D01*
X92348449Y-74131772D01*
X92507777Y-74370223D01*
X92515414Y-74377860D01*
X92367270Y-74734630D01*
X92367234Y-74775539D01*
X92156788Y-74862493D01*
X91881460Y-75137341D01*
X91732270Y-75496630D01*
X91731931Y-75885663D01*
X91880493Y-76245212D01*
X91902882Y-76267640D01*
X90437036Y-76267640D01*
X90343659Y-76174100D01*
X89984370Y-76024910D01*
X89889000Y-76024827D01*
X89889000Y-73927036D01*
X89982540Y-73833659D01*
X90131730Y-73474370D01*
X90132069Y-73085337D01*
X89983507Y-72725788D01*
X89708659Y-72450460D01*
X89349370Y-72301270D01*
X89097115Y-72301050D01*
X89242730Y-71950370D01*
X89243069Y-71561337D01*
X89094507Y-71201788D01*
X88819659Y-70926460D01*
X88460370Y-70777270D01*
X88071337Y-70776931D01*
X87820327Y-70880646D01*
X87571370Y-70777270D01*
X87182337Y-70776931D01*
X86931327Y-70880646D01*
X86682370Y-70777270D01*
X86293337Y-70776931D01*
X85933788Y-70925493D01*
X85658460Y-71200341D01*
X85509270Y-71559630D01*
X85508931Y-71948663D01*
X85657493Y-72308212D01*
X85752000Y-72402884D01*
X85752000Y-72996402D01*
X85800600Y-73240730D01*
X85807949Y-73277674D01*
X85967277Y-73516125D01*
X87276000Y-74824849D01*
X87276000Y-82236054D01*
X86752223Y-81712277D01*
X86513772Y-81552949D01*
X86232500Y-81497000D01*
X84318775Y-81497000D01*
X84373212Y-81474507D01*
X84648540Y-81199659D01*
X84797730Y-80840370D01*
X84798069Y-80451337D01*
X84649507Y-80091788D01*
X84374659Y-79816460D01*
X84163035Y-79728586D01*
X84163069Y-79689337D01*
X84014507Y-79329788D01*
X83739659Y-79054460D01*
X83528035Y-78966586D01*
X83528069Y-78927337D01*
X83379507Y-78567788D01*
X83104659Y-78292460D01*
X82745370Y-78143270D01*
X82356337Y-78142931D01*
X82355940Y-78143095D01*
X82355940Y-78032000D01*
X82311662Y-77796683D01*
X82172590Y-77580559D01*
X81960390Y-77435569D01*
X81708500Y-77384560D01*
X81443500Y-77384560D01*
X81443500Y-76784647D01*
X81473540Y-76754659D01*
X81622730Y-76395370D01*
X81623069Y-76006337D01*
X81474507Y-75646788D01*
X81199659Y-75371460D01*
X80840370Y-75222270D01*
X80451337Y-75221931D01*
X80091788Y-75370493D01*
X79816460Y-75645341D01*
X79667270Y-76004630D01*
X79666931Y-76393663D01*
X79815493Y-76753212D01*
X79973500Y-76911495D01*
X79973500Y-77384560D01*
X79708500Y-77384560D01*
X79473183Y-77428838D01*
X79257059Y-77567910D01*
X79112069Y-77780110D01*
X79061060Y-78032000D01*
X79061060Y-78432000D01*
X79100074Y-78639342D01*
X79061060Y-78832000D01*
X79061060Y-79232000D01*
X79100074Y-79439342D01*
X79061060Y-79632000D01*
X79061060Y-80032000D01*
X79100074Y-80239342D01*
X79061060Y-80432000D01*
X79061060Y-80832000D01*
X79100358Y-81040850D01*
X79073500Y-81105691D01*
X79073500Y-81173250D01*
X79232250Y-81332000D01*
X79315478Y-81332000D01*
X79456610Y-81428431D01*
X79469697Y-81431081D01*
X79367256Y-81497000D01*
X78804000Y-81497000D01*
X78522728Y-81552949D01*
X78284276Y-81712277D01*
X78054554Y-81942000D01*
X77393447Y-81942000D01*
X77304954Y-81853507D01*
X77305069Y-81721337D01*
X77156507Y-81361788D01*
X76881659Y-81086460D01*
X76522370Y-80937270D01*
X76133337Y-80936931D01*
X75773788Y-81085493D01*
X75498460Y-81360341D01*
X75349270Y-81719630D01*
X75348931Y-82108663D01*
X75497493Y-82468212D01*
X75772341Y-82743540D01*
X76131630Y-82892730D01*
X76265400Y-82892847D01*
X76569277Y-83196724D01*
X76807728Y-83356051D01*
X77089000Y-83412000D01*
X78359000Y-83412000D01*
X78640272Y-83356051D01*
X78878723Y-83196723D01*
X79061060Y-83014386D01*
X79061060Y-83232000D01*
X79100074Y-83439342D01*
X79061060Y-83632000D01*
X79061060Y-84032000D01*
X79100074Y-84239342D01*
X79061060Y-84432000D01*
X79061060Y-84832000D01*
X79100074Y-85039342D01*
X79061060Y-85232000D01*
X79061060Y-85632000D01*
X79100074Y-85839342D01*
X79061060Y-86032000D01*
X79061060Y-86432000D01*
X79100074Y-86639342D01*
X79061060Y-86832000D01*
X79061060Y-87232000D01*
X79100074Y-87439342D01*
X79061060Y-87632000D01*
X79061060Y-88032000D01*
X79100074Y-88239342D01*
X79061060Y-88432000D01*
X79061060Y-88832000D01*
X79100074Y-89039342D01*
X79061060Y-89232000D01*
X79061060Y-89632000D01*
X79100074Y-89839342D01*
X79061060Y-90032000D01*
X79061060Y-90432000D01*
X79100074Y-90639342D01*
X79061060Y-90832000D01*
X79061060Y-91232000D01*
X79100074Y-91439342D01*
X79061060Y-91632000D01*
X79061060Y-92032000D01*
X79100074Y-92239342D01*
X79061060Y-92432000D01*
X79061060Y-92832000D01*
X79100074Y-93039342D01*
X79061060Y-93232000D01*
X79061060Y-93632000D01*
X79100074Y-93839342D01*
X79061060Y-94032000D01*
X79061060Y-94432000D01*
X79100074Y-94639342D01*
X79061060Y-94832000D01*
X79061060Y-95097000D01*
X75237000Y-95097000D01*
X75008515Y-95142449D01*
X74955727Y-95152949D01*
X74717276Y-95312277D01*
X72505277Y-97524277D01*
X72345949Y-97762728D01*
X72290000Y-98044000D01*
X72290000Y-105904964D01*
X72196460Y-105998341D01*
X72084000Y-106269174D01*
X72084000Y-61162000D01*
X207570000Y-61162000D01*
X207570000Y-64366812D01*
X207570000Y-64366812D01*
G37*
X207570000Y-64366812D02*
X207563795Y-64368046D01*
X207333454Y-64521954D01*
X207179546Y-64752295D01*
X207125500Y-65024000D01*
X207125500Y-65151000D01*
X207179546Y-65422705D01*
X207333454Y-65653046D01*
X207563795Y-65806954D01*
X207570000Y-65808188D01*
X207570000Y-126671000D01*
X78307000Y-126671000D01*
X78307000Y-126619000D01*
X78252954Y-126347295D01*
X78099046Y-126116954D01*
X77868705Y-125963046D01*
X77597000Y-125909000D01*
X77325295Y-125963046D01*
X77094954Y-126116954D01*
X76941046Y-126347295D01*
X76887000Y-126619000D01*
X76887000Y-126671000D01*
X72084000Y-126671000D01*
X72084000Y-124534285D01*
X200756760Y-124534285D01*
X200967169Y-125043515D01*
X201356436Y-125433461D01*
X201865298Y-125644759D01*
X202416285Y-125645240D01*
X202925515Y-125434831D01*
X203315461Y-125045564D01*
X203526759Y-124536702D01*
X203527240Y-123985715D01*
X203316831Y-123476485D01*
X202927564Y-123086539D01*
X202418702Y-122875241D01*
X201867715Y-122874760D01*
X201358485Y-123085169D01*
X200968539Y-123474436D01*
X200757241Y-123983298D01*
X200756760Y-124534285D01*
X72084000Y-124534285D01*
X72084000Y-122387750D01*
X84680000Y-122387750D01*
X84680000Y-123328310D01*
X84776673Y-123561699D01*
X84955302Y-123740327D01*
X85188691Y-123837000D01*
X85729250Y-123837000D01*
X85888000Y-123678250D01*
X85888000Y-122229000D01*
X86142000Y-122229000D01*
X86142000Y-123678250D01*
X86300750Y-123837000D01*
X86841309Y-123837000D01*
X87074698Y-123740327D01*
X87253327Y-123561699D01*
X87350000Y-123328310D01*
X87350000Y-122387750D01*
X87191250Y-122229000D01*
X86142000Y-122229000D01*
X85888000Y-122229000D01*
X84838750Y-122229000D01*
X84680000Y-122387750D01*
X72084000Y-122387750D01*
X72084000Y-120875690D01*
X84680000Y-120875690D01*
X84680000Y-121816250D01*
X84838750Y-121975000D01*
X85888000Y-121975000D01*
X85888000Y-120525750D01*
X86142000Y-120525750D01*
X86142000Y-121975000D01*
X87191250Y-121975000D01*
X87350000Y-121816250D01*
X87350000Y-121002000D01*
X89167560Y-121002000D01*
X89167560Y-123202000D01*
X89211838Y-123437317D01*
X89350910Y-123653441D01*
X89563110Y-123798431D01*
X89815000Y-123849440D01*
X91215000Y-123849440D01*
X91450317Y-123805162D01*
X91666441Y-123666090D01*
X91811431Y-123453890D01*
X91862440Y-123202000D01*
X91862440Y-122387750D01*
X94840000Y-122387750D01*
X94840000Y-123328310D01*
X94936673Y-123561699D01*
X95115302Y-123740327D01*
X95348691Y-123837000D01*
X95889250Y-123837000D01*
X96048000Y-123678250D01*
X96048000Y-122229000D01*
X96302000Y-122229000D01*
X96302000Y-123678250D01*
X96460750Y-123837000D01*
X97001309Y-123837000D01*
X97234698Y-123740327D01*
X97413327Y-123561699D01*
X97510000Y-123328310D01*
X97510000Y-122387750D01*
X97351250Y-122229000D01*
X96302000Y-122229000D01*
X96048000Y-122229000D01*
X94998750Y-122229000D01*
X94840000Y-122387750D01*
X91862440Y-122387750D01*
X91862440Y-121002000D01*
X91838674Y-120875690D01*
X94840000Y-120875690D01*
X94840000Y-121816250D01*
X94998750Y-121975000D01*
X96048000Y-121975000D01*
X96048000Y-120525750D01*
X96302000Y-120525750D01*
X96302000Y-121975000D01*
X97351250Y-121975000D01*
X97510000Y-121816250D01*
X97510000Y-121002000D01*
X99327560Y-121002000D01*
X99327560Y-123202000D01*
X99371838Y-123437317D01*
X99510910Y-123653441D01*
X99723110Y-123798431D01*
X99975000Y-123849440D01*
X101375000Y-123849440D01*
X101610317Y-123805162D01*
X101826441Y-123666090D01*
X101971431Y-123453890D01*
X102022440Y-123202000D01*
X102022440Y-122387750D01*
X105000000Y-122387750D01*
X105000000Y-123328310D01*
X105096673Y-123561699D01*
X105275302Y-123740327D01*
X105508691Y-123837000D01*
X106049250Y-123837000D01*
X106208000Y-123678250D01*
X106208000Y-122229000D01*
X106462000Y-122229000D01*
X106462000Y-123678250D01*
X106620750Y-123837000D01*
X107161309Y-123837000D01*
X107394698Y-123740327D01*
X107573327Y-123561699D01*
X107670000Y-123328310D01*
X107670000Y-122387750D01*
X107511250Y-122229000D01*
X106462000Y-122229000D01*
X106208000Y-122229000D01*
X105158750Y-122229000D01*
X105000000Y-122387750D01*
X102022440Y-122387750D01*
X102022440Y-121002000D01*
X101998674Y-120875690D01*
X105000000Y-120875690D01*
X105000000Y-121816250D01*
X105158750Y-121975000D01*
X106208000Y-121975000D01*
X106208000Y-120525750D01*
X106462000Y-120525750D01*
X106462000Y-121975000D01*
X107511250Y-121975000D01*
X107670000Y-121816250D01*
X107670000Y-121002000D01*
X109487560Y-121002000D01*
X109487560Y-123202000D01*
X109531838Y-123437317D01*
X109670910Y-123653441D01*
X109883110Y-123798431D01*
X110135000Y-123849440D01*
X111535000Y-123849440D01*
X111770317Y-123805162D01*
X111986441Y-123666090D01*
X112131431Y-123453890D01*
X112182440Y-123202000D01*
X112182440Y-122387750D01*
X115160000Y-122387750D01*
X115160000Y-123328310D01*
X115256673Y-123561699D01*
X115435302Y-123740327D01*
X115668691Y-123837000D01*
X116209250Y-123837000D01*
X116368000Y-123678250D01*
X116368000Y-122229000D01*
X116622000Y-122229000D01*
X116622000Y-123678250D01*
X116780750Y-123837000D01*
X117321309Y-123837000D01*
X117554698Y-123740327D01*
X117733327Y-123561699D01*
X117830000Y-123328310D01*
X117830000Y-122387750D01*
X117671250Y-122229000D01*
X116622000Y-122229000D01*
X116368000Y-122229000D01*
X115318750Y-122229000D01*
X115160000Y-122387750D01*
X112182440Y-122387750D01*
X112182440Y-121002000D01*
X112158674Y-120875690D01*
X115160000Y-120875690D01*
X115160000Y-121816250D01*
X115318750Y-121975000D01*
X116368000Y-121975000D01*
X116368000Y-120525750D01*
X116622000Y-120525750D01*
X116622000Y-121975000D01*
X117671250Y-121975000D01*
X117830000Y-121816250D01*
X117830000Y-121002000D01*
X119647560Y-121002000D01*
X119647560Y-123202000D01*
X119691838Y-123437317D01*
X119830910Y-123653441D01*
X120043110Y-123798431D01*
X120295000Y-123849440D01*
X121695000Y-123849440D01*
X121930317Y-123805162D01*
X122146441Y-123666090D01*
X122291431Y-123453890D01*
X122342440Y-123202000D01*
X122342440Y-122387750D01*
X125320000Y-122387750D01*
X125320000Y-123328310D01*
X125416673Y-123561699D01*
X125595302Y-123740327D01*
X125828691Y-123837000D01*
X126369250Y-123837000D01*
X126528000Y-123678250D01*
X126528000Y-122229000D01*
X126782000Y-122229000D01*
X126782000Y-123678250D01*
X126940750Y-123837000D01*
X127481309Y-123837000D01*
X127714698Y-123740327D01*
X127893327Y-123561699D01*
X127990000Y-123328310D01*
X127990000Y-122387750D01*
X127831250Y-122229000D01*
X126782000Y-122229000D01*
X126528000Y-122229000D01*
X125478750Y-122229000D01*
X125320000Y-122387750D01*
X122342440Y-122387750D01*
X122342440Y-121002000D01*
X122318674Y-120875690D01*
X125320000Y-120875690D01*
X125320000Y-121816250D01*
X125478750Y-121975000D01*
X126528000Y-121975000D01*
X126528000Y-120525750D01*
X126782000Y-120525750D01*
X126782000Y-121975000D01*
X127831250Y-121975000D01*
X127990000Y-121816250D01*
X127990000Y-121002000D01*
X129807560Y-121002000D01*
X129807560Y-123202000D01*
X129851838Y-123437317D01*
X129990910Y-123653441D01*
X130203110Y-123798431D01*
X130455000Y-123849440D01*
X131855000Y-123849440D01*
X132090317Y-123805162D01*
X132306441Y-123666090D01*
X132451431Y-123453890D01*
X132502440Y-123202000D01*
X132502440Y-121002000D01*
X135467560Y-121002000D01*
X135467560Y-123202000D01*
X135511838Y-123437317D01*
X135650910Y-123653441D01*
X135863110Y-123798431D01*
X136115000Y-123849440D01*
X137515000Y-123849440D01*
X137750317Y-123805162D01*
X137966441Y-123666090D01*
X138111431Y-123453890D01*
X138162440Y-123202000D01*
X138162440Y-121002000D01*
X138118162Y-120766683D01*
X137979090Y-120550559D01*
X137766890Y-120405569D01*
X137515000Y-120354560D01*
X136115000Y-120354560D01*
X135879683Y-120398838D01*
X135663559Y-120537910D01*
X135518569Y-120750110D01*
X135467560Y-121002000D01*
X132502440Y-121002000D01*
X132458162Y-120766683D01*
X132319090Y-120550559D01*
X132106890Y-120405569D01*
X131855000Y-120354560D01*
X130455000Y-120354560D01*
X130219683Y-120398838D01*
X130003559Y-120537910D01*
X129858569Y-120750110D01*
X129807560Y-121002000D01*
X127990000Y-121002000D01*
X127990000Y-120875690D01*
X127893327Y-120642301D01*
X127714698Y-120463673D01*
X127481309Y-120367000D01*
X126940750Y-120367000D01*
X126782000Y-120525750D01*
X126528000Y-120525750D01*
X126369250Y-120367000D01*
X125828691Y-120367000D01*
X125595302Y-120463673D01*
X125416673Y-120642301D01*
X125320000Y-120875690D01*
X122318674Y-120875690D01*
X122298162Y-120766683D01*
X122159090Y-120550559D01*
X121946890Y-120405569D01*
X121695000Y-120354560D01*
X120295000Y-120354560D01*
X120059683Y-120398838D01*
X119843559Y-120537910D01*
X119698569Y-120750110D01*
X119647560Y-121002000D01*
X117830000Y-121002000D01*
X117830000Y-120875690D01*
X117733327Y-120642301D01*
X117554698Y-120463673D01*
X117321309Y-120367000D01*
X116780750Y-120367000D01*
X116622000Y-120525750D01*
X116368000Y-120525750D01*
X116209250Y-120367000D01*
X115668691Y-120367000D01*
X115435302Y-120463673D01*
X115256673Y-120642301D01*
X115160000Y-120875690D01*
X112158674Y-120875690D01*
X112138162Y-120766683D01*
X111999090Y-120550559D01*
X111786890Y-120405569D01*
X111535000Y-120354560D01*
X110135000Y-120354560D01*
X109899683Y-120398838D01*
X109683559Y-120537910D01*
X109538569Y-120750110D01*
X109487560Y-121002000D01*
X107670000Y-121002000D01*
X107670000Y-120875690D01*
X107573327Y-120642301D01*
X107394698Y-120463673D01*
X107161309Y-120367000D01*
X106620750Y-120367000D01*
X106462000Y-120525750D01*
X106208000Y-120525750D01*
X106049250Y-120367000D01*
X105508691Y-120367000D01*
X105275302Y-120463673D01*
X105096673Y-120642301D01*
X105000000Y-120875690D01*
X101998674Y-120875690D01*
X101978162Y-120766683D01*
X101839090Y-120550559D01*
X101626890Y-120405569D01*
X101375000Y-120354560D01*
X99975000Y-120354560D01*
X99739683Y-120398838D01*
X99523559Y-120537910D01*
X99378569Y-120750110D01*
X99327560Y-121002000D01*
X97510000Y-121002000D01*
X97510000Y-120875690D01*
X97413327Y-120642301D01*
X97234698Y-120463673D01*
X97001309Y-120367000D01*
X96460750Y-120367000D01*
X96302000Y-120525750D01*
X96048000Y-120525750D01*
X95889250Y-120367000D01*
X95348691Y-120367000D01*
X95115302Y-120463673D01*
X94936673Y-120642301D01*
X94840000Y-120875690D01*
X91838674Y-120875690D01*
X91818162Y-120766683D01*
X91679090Y-120550559D01*
X91466890Y-120405569D01*
X91215000Y-120354560D01*
X89815000Y-120354560D01*
X89579683Y-120398838D01*
X89363559Y-120537910D01*
X89218569Y-120750110D01*
X89167560Y-121002000D01*
X87350000Y-121002000D01*
X87350000Y-120875690D01*
X87253327Y-120642301D01*
X87074698Y-120463673D01*
X86841309Y-120367000D01*
X86300750Y-120367000D01*
X86142000Y-120525750D01*
X85888000Y-120525750D01*
X85729250Y-120367000D01*
X85188691Y-120367000D01*
X84955302Y-120463673D01*
X84776673Y-120642301D01*
X84680000Y-120875690D01*
X72084000Y-120875690D01*
X72084000Y-106836377D01*
X72195493Y-107106212D01*
X72470341Y-107381540D01*
X72829630Y-107530730D01*
X73218663Y-107531069D01*
X73578212Y-107382507D01*
X73853540Y-107107659D01*
X73941460Y-106895924D01*
X74107663Y-106896069D01*
X74467212Y-106747507D01*
X74742540Y-106472659D01*
X74830460Y-106260924D01*
X74996663Y-106261069D01*
X75321257Y-106126950D01*
X75266949Y-106208228D01*
X75211000Y-106489500D01*
X75211000Y-107301853D01*
X75180960Y-107331841D01*
X75031770Y-107691130D01*
X75031431Y-108080163D01*
X75179993Y-108439712D01*
X75454841Y-108715040D01*
X75729942Y-108829272D01*
X75729931Y-108842163D01*
X75878493Y-109201712D01*
X76153341Y-109477040D01*
X76512630Y-109626230D01*
X76901663Y-109626569D01*
X76927504Y-109615892D01*
X77105841Y-109794540D01*
X77465130Y-109943730D01*
X77854163Y-109944069D01*
X78213712Y-109795507D01*
X78489040Y-109520659D01*
X78638230Y-109161370D01*
X78638569Y-108772337D01*
X78490007Y-108412788D01*
X78395500Y-108318116D01*
X78395500Y-108254446D01*
X78882947Y-107767000D01*
X79366703Y-107767000D01*
X79456610Y-107828431D01*
X79708500Y-107879440D01*
X81708500Y-107879440D01*
X81943817Y-107835162D01*
X82159941Y-107696090D01*
X82304931Y-107483890D01*
X82355940Y-107232000D01*
X82355940Y-106832000D01*
X82316926Y-106624658D01*
X82355940Y-106432000D01*
X82355940Y-106032000D01*
X82316926Y-105824658D01*
X82355940Y-105632000D01*
X82355940Y-105232000D01*
X82316642Y-105023150D01*
X82343500Y-104958309D01*
X82343500Y-104890750D01*
X82184750Y-104732000D01*
X82101522Y-104732000D01*
X81960390Y-104635569D01*
X81947303Y-104632919D01*
X82104135Y-104532000D01*
X82184750Y-104532000D01*
X82343500Y-104373250D01*
X82343500Y-104305691D01*
X82314630Y-104235993D01*
X82355940Y-104032000D01*
X82355940Y-103767000D01*
X82959500Y-103767000D01*
X83240772Y-103711051D01*
X83479223Y-103551723D01*
X83910500Y-103120447D01*
X83910500Y-108267500D01*
X83951750Y-108474875D01*
X83966449Y-108548772D01*
X84125777Y-108787223D01*
X85752891Y-110414337D01*
X85425788Y-110549493D01*
X85150460Y-110824341D01*
X85001270Y-111183630D01*
X85001038Y-111449444D01*
X84863559Y-111537910D01*
X84718569Y-111750110D01*
X84667560Y-112002000D01*
X84667560Y-114202000D01*
X84711838Y-114437317D01*
X84850910Y-114653441D01*
X85063110Y-114798431D01*
X85315000Y-114849440D01*
X86167011Y-114849440D01*
X86080770Y-115057130D01*
X86080431Y-115446163D01*
X86228993Y-115805712D01*
X86503841Y-116081040D01*
X86863130Y-116230230D01*
X87252163Y-116230569D01*
X87611712Y-116082007D01*
X87887040Y-115807159D01*
X88036230Y-115447870D01*
X88036347Y-115314100D01*
X88530723Y-114819724D01*
X88690051Y-114581273D01*
X88708107Y-114490500D01*
X88746000Y-114300000D01*
X88746000Y-112889946D01*
X89167560Y-112468386D01*
X89167560Y-114202000D01*
X89211838Y-114437317D01*
X89350910Y-114653441D01*
X89563110Y-114798431D01*
X89815000Y-114849440D01*
X91215000Y-114849440D01*
X91450317Y-114805162D01*
X91666441Y-114666090D01*
X91811431Y-114453890D01*
X91862440Y-114202000D01*
X91862440Y-112002000D01*
X91818162Y-111766683D01*
X91696363Y-111577402D01*
X94996575Y-111577402D01*
X94878569Y-111750110D01*
X94827560Y-112002000D01*
X94827560Y-114202000D01*
X94871838Y-114437317D01*
X95010910Y-114653441D01*
X95223110Y-114798431D01*
X95475000Y-114849440D01*
X96875000Y-114849440D01*
X97110317Y-114805162D01*
X97326441Y-114666090D01*
X97471431Y-114453890D01*
X97522440Y-114202000D01*
X97522440Y-112002000D01*
X97478162Y-111766683D01*
X97356363Y-111577402D01*
X99496575Y-111577402D01*
X99378569Y-111750110D01*
X99327560Y-112002000D01*
X99327560Y-114202000D01*
X99371838Y-114437317D01*
X99510910Y-114653441D01*
X99723110Y-114798431D01*
X99975000Y-114849440D01*
X101375000Y-114849440D01*
X101610317Y-114805162D01*
X101826441Y-114666090D01*
X101971431Y-114453890D01*
X102022440Y-114202000D01*
X102022440Y-112002000D01*
X101978162Y-111766683D01*
X101856363Y-111577402D01*
X105156575Y-111577402D01*
X105038569Y-111750110D01*
X104987560Y-112002000D01*
X104987560Y-114202000D01*
X105031838Y-114437317D01*
X105170910Y-114653441D01*
X105383110Y-114798431D01*
X105635000Y-114849440D01*
X107035000Y-114849440D01*
X107270317Y-114805162D01*
X107486441Y-114666090D01*
X107631431Y-114453890D01*
X107682440Y-114202000D01*
X107682440Y-112002000D01*
X107638162Y-111766683D01*
X107516363Y-111577402D01*
X109656575Y-111577402D01*
X109538569Y-111750110D01*
X109487560Y-112002000D01*
X109487560Y-114202000D01*
X109531838Y-114437317D01*
X109670910Y-114653441D01*
X109883110Y-114798431D01*
X110135000Y-114849440D01*
X111535000Y-114849440D01*
X111770317Y-114805162D01*
X111986441Y-114666090D01*
X112131431Y-114453890D01*
X112182440Y-114202000D01*
X112182440Y-112002000D01*
X112138162Y-111766683D01*
X112016363Y-111577402D01*
X115316575Y-111577402D01*
X115198569Y-111750110D01*
X115147560Y-112002000D01*
X115147560Y-114202000D01*
X115191838Y-114437317D01*
X115330910Y-114653441D01*
X115543110Y-114798431D01*
X115795000Y-114849440D01*
X117195000Y-114849440D01*
X117430317Y-114805162D01*
X117646441Y-114666090D01*
X117791431Y-114453890D01*
X117842440Y-114202000D01*
X117842440Y-112002000D01*
X119647560Y-112002000D01*
X119647560Y-114202000D01*
X119691838Y-114437317D01*
X119830910Y-114653441D01*
X120043110Y-114798431D01*
X120295000Y-114849440D01*
X121695000Y-114849440D01*
X121930317Y-114805162D01*
X122146441Y-114666090D01*
X122291431Y-114453890D01*
X122342440Y-114202000D01*
X122342440Y-112002000D01*
X125307560Y-112002000D01*
X125307560Y-114202000D01*
X125351838Y-114437317D01*
X125490910Y-114653441D01*
X125703110Y-114798431D01*
X125955000Y-114849440D01*
X127355000Y-114849440D01*
X127590317Y-114805162D01*
X127806441Y-114666090D01*
X127951431Y-114453890D01*
X128002440Y-114202000D01*
X128002440Y-112002000D01*
X127958162Y-111766683D01*
X127819090Y-111550559D01*
X127606890Y-111405569D01*
X127596879Y-111403542D01*
X127597069Y-111185337D01*
X127448507Y-110825788D01*
X127173659Y-110550460D01*
X126814370Y-110401270D01*
X126425337Y-110400931D01*
X126065788Y-110549493D01*
X125790460Y-110824341D01*
X125641270Y-111183630D01*
X125641038Y-111449444D01*
X125503559Y-111537910D01*
X125358569Y-111750110D01*
X125307560Y-112002000D01*
X122342440Y-112002000D01*
X122298162Y-111766683D01*
X122159090Y-111550559D01*
X121946890Y-111405569D01*
X121695000Y-111354560D01*
X120295000Y-111354560D01*
X120059683Y-111398838D01*
X119843559Y-111537910D01*
X119698569Y-111750110D01*
X119647560Y-112002000D01*
X117842440Y-112002000D01*
X117798162Y-111766683D01*
X117659090Y-111550559D01*
X117446890Y-111405569D01*
X117436934Y-111403553D01*
X117437069Y-111248837D01*
X117381675Y-111114772D01*
X120788724Y-107707723D01*
X120948051Y-107469272D01*
X120955808Y-107430277D01*
X121004000Y-107188000D01*
X121004000Y-103174446D01*
X123470344Y-100708102D01*
X123585301Y-100823260D01*
X123944590Y-100972450D01*
X124333623Y-100972789D01*
X124693172Y-100824227D01*
X124968500Y-100549379D01*
X125117690Y-100190090D01*
X125117807Y-100056320D01*
X125343567Y-99830560D01*
X131583164Y-99830560D01*
X131483270Y-100071130D01*
X131482931Y-100460163D01*
X131631493Y-100819712D01*
X131906341Y-101095040D01*
X132265630Y-101244230D01*
X132462956Y-101244402D01*
X133059500Y-101840947D01*
X133059500Y-103715775D01*
X132917577Y-103715651D01*
X132558028Y-103864213D01*
X132282700Y-104139061D01*
X132133510Y-104498350D01*
X132133171Y-104887383D01*
X132281733Y-105246932D01*
X132376240Y-105341604D01*
X132376240Y-111162755D01*
X132287780Y-111251061D01*
X132197823Y-111467701D01*
X132106890Y-111405569D01*
X131855000Y-111354560D01*
X130455000Y-111354560D01*
X130219683Y-111398838D01*
X130003559Y-111537910D01*
X129858569Y-111750110D01*
X129807560Y-112002000D01*
X129807560Y-114202000D01*
X129851838Y-114437317D01*
X129990910Y-114653441D01*
X130203110Y-114798431D01*
X130455000Y-114849440D01*
X131855000Y-114849440D01*
X132090317Y-114805162D01*
X132306441Y-114666090D01*
X132451431Y-114453890D01*
X132502440Y-114202000D01*
X132502440Y-112574936D01*
X132561661Y-112634260D01*
X132920950Y-112783450D01*
X133059500Y-112783571D01*
X133059500Y-114998500D01*
X133110024Y-115252500D01*
X133115449Y-115279772D01*
X133274777Y-115518223D01*
X136259276Y-118502723D01*
X136497728Y-118662051D01*
X136779000Y-118718000D01*
X142715993Y-118718000D01*
X141079434Y-120354560D01*
X140615000Y-120354560D01*
X140379683Y-120398838D01*
X140163559Y-120537910D01*
X140018569Y-120750110D01*
X139967560Y-121002000D01*
X139967560Y-123202000D01*
X140011838Y-123437317D01*
X140150910Y-123653441D01*
X140363110Y-123798431D01*
X140615000Y-123849440D01*
X142015000Y-123849440D01*
X142250317Y-123805162D01*
X142466441Y-123666090D01*
X142611431Y-123453890D01*
X142662440Y-123202000D01*
X142662440Y-121002000D01*
X142660935Y-120994000D01*
X153431877Y-120994000D01*
X153563946Y-121657956D01*
X153940047Y-122220830D01*
X154502921Y-122596931D01*
X155166877Y-122729000D01*
X157070123Y-122729000D01*
X157734079Y-122596931D01*
X158296953Y-122220830D01*
X158673054Y-121657956D01*
X158805123Y-120994000D01*
X158673054Y-120330044D01*
X158296953Y-119767170D01*
X157734079Y-119391069D01*
X157070123Y-119259000D01*
X155166877Y-119259000D01*
X154502921Y-119391069D01*
X153940047Y-119767170D01*
X153563946Y-120330044D01*
X153431877Y-120994000D01*
X142660935Y-120994000D01*
X142638439Y-120874447D01*
X144281807Y-119231080D01*
X157922314Y-119231080D01*
X159159917Y-120468684D01*
X159398368Y-120628011D01*
X159679640Y-120683960D01*
X161691320Y-120683960D01*
X161972592Y-120628011D01*
X162211043Y-120468683D01*
X165675604Y-117004123D01*
X165834931Y-116765672D01*
X165838336Y-116748554D01*
X165890880Y-116484400D01*
X165890880Y-116350116D01*
X165984420Y-116256739D01*
X166012696Y-116188642D01*
X170485776Y-120661723D01*
X170724228Y-120821051D01*
X171005500Y-120877000D01*
X179183964Y-120877000D01*
X179277341Y-120970540D01*
X179636630Y-121119730D01*
X180025663Y-121120069D01*
X180385212Y-120971507D01*
X180660540Y-120696659D01*
X180809730Y-120337370D01*
X180810069Y-119948337D01*
X180661507Y-119588788D01*
X180386659Y-119313460D01*
X180027370Y-119164270D01*
X179638337Y-119163931D01*
X179278788Y-119312493D01*
X179184116Y-119407000D01*
X171309947Y-119407000D01*
X167429410Y-115526464D01*
X167621712Y-115447007D01*
X167897040Y-115172159D01*
X168046230Y-114812870D01*
X168046396Y-114622250D01*
X178797304Y-114622250D01*
X178875414Y-114700360D01*
X178727270Y-115057130D01*
X178726931Y-115446163D01*
X178875493Y-115805712D01*
X179150341Y-116081040D01*
X179509630Y-116230230D01*
X179898663Y-116230569D01*
X180258212Y-116082007D01*
X180533540Y-115807159D01*
X180682730Y-115447870D01*
X180683069Y-115058837D01*
X180534507Y-114699288D01*
X180440000Y-114604616D01*
X180440000Y-114490500D01*
X180384051Y-114209228D01*
X180352011Y-114161277D01*
X180224723Y-113970776D01*
X179621473Y-113367527D01*
X179383022Y-113208199D01*
X179101750Y-113152250D01*
X165925757Y-113152250D01*
X166041363Y-113036644D01*
X166200691Y-112798192D01*
X166208974Y-112756551D01*
X166256640Y-112516920D01*
X166256640Y-108266890D01*
X166513841Y-108524540D01*
X166873130Y-108673730D01*
X167262163Y-108674069D01*
X167543073Y-108558000D01*
X179183964Y-108558000D01*
X179277341Y-108651540D01*
X179636630Y-108800730D01*
X180025663Y-108801069D01*
X180385212Y-108652507D01*
X180660540Y-108377659D01*
X180809730Y-108018370D01*
X180810069Y-107629337D01*
X180661507Y-107269788D01*
X180386659Y-106994460D01*
X180027370Y-106845270D01*
X179638337Y-106844931D01*
X179278788Y-106993493D01*
X179184116Y-107088000D01*
X169354530Y-107088000D01*
X169354669Y-106928297D01*
X169206107Y-106568748D01*
X168931259Y-106293420D01*
X168571970Y-106144230D01*
X168182937Y-106143891D01*
X167823388Y-106292453D01*
X167728716Y-106386960D01*
X167568527Y-106386960D01*
X167326603Y-106145037D01*
X167088152Y-105985709D01*
X166806880Y-105929760D01*
X166229287Y-105929760D01*
X167016723Y-105142324D01*
X167176051Y-104903872D01*
X167181848Y-104874728D01*
X167232000Y-104622600D01*
X167232000Y-100334285D01*
X200756760Y-100334285D01*
X200967169Y-100843515D01*
X201356436Y-101233461D01*
X201865298Y-101444759D01*
X202416285Y-101445240D01*
X202925515Y-101234831D01*
X203315461Y-100845564D01*
X203526759Y-100336702D01*
X203527240Y-99785715D01*
X203316831Y-99276485D01*
X202927564Y-98886539D01*
X202418702Y-98675241D01*
X201867715Y-98674760D01*
X201358485Y-98885169D01*
X200968539Y-99274436D01*
X200757241Y-99783298D01*
X200756760Y-100334285D01*
X167232000Y-100334285D01*
X167232000Y-95610326D01*
X170794327Y-92048000D01*
X198882000Y-92048000D01*
X199163272Y-91992051D01*
X199401723Y-91832723D01*
X205436763Y-85797684D01*
X205596091Y-85559233D01*
X205611963Y-85479440D01*
X205652040Y-85277960D01*
X205652040Y-78854636D01*
X205745580Y-78761259D01*
X205894770Y-78401970D01*
X205895109Y-78012937D01*
X205746547Y-77653388D01*
X205471699Y-77378060D01*
X205112410Y-77228870D01*
X204723377Y-77228531D01*
X204363828Y-77377093D01*
X204088500Y-77651941D01*
X203939310Y-78011230D01*
X203938971Y-78400263D01*
X204087533Y-78759812D01*
X204182040Y-78854484D01*
X204182040Y-84973513D01*
X198577554Y-90578000D01*
X197120986Y-90578000D01*
X197188691Y-90476672D01*
X197207809Y-90380559D01*
X197244640Y-90195400D01*
X197244640Y-81389556D01*
X197338180Y-81296179D01*
X197487370Y-80936890D01*
X197487626Y-80643400D01*
X198186394Y-80643400D01*
X201022280Y-83479287D01*
X201022280Y-84762004D01*
X200928740Y-84855381D01*
X200779550Y-85214670D01*
X200779211Y-85603703D01*
X200927773Y-85963252D01*
X201202621Y-86238580D01*
X201561910Y-86387770D01*
X201950943Y-86388109D01*
X202310492Y-86239547D01*
X202585820Y-85964699D01*
X202735010Y-85605410D01*
X202735349Y-85216377D01*
X202586787Y-84856828D01*
X202492280Y-84762156D01*
X202492280Y-83174840D01*
X202436331Y-82893568D01*
X202416882Y-82864460D01*
X202277004Y-82655117D01*
X199010563Y-79388677D01*
X198772112Y-79229349D01*
X198746040Y-79224163D01*
X198490840Y-79173400D01*
X193703409Y-79173400D01*
X193974212Y-79061507D01*
X194249540Y-78786659D01*
X194398730Y-78427370D01*
X194399069Y-78038337D01*
X194250507Y-77678788D01*
X194156000Y-77584116D01*
X194156000Y-74562036D01*
X194249540Y-74468659D01*
X194398730Y-74109370D01*
X194399069Y-73720337D01*
X194250507Y-73360788D01*
X193975659Y-73085460D01*
X193616370Y-72936270D01*
X193227337Y-72935931D01*
X192867788Y-73084493D01*
X192592460Y-73359341D01*
X192443270Y-73718630D01*
X192442931Y-74107663D01*
X192591493Y-74467212D01*
X192686000Y-74561884D01*
X192686000Y-77583964D01*
X192592460Y-77677341D01*
X192443270Y-78036630D01*
X192442931Y-78425663D01*
X192591493Y-78785212D01*
X192866341Y-79060540D01*
X193138138Y-79173400D01*
X191429640Y-79173400D01*
X191174440Y-79224163D01*
X191148368Y-79229349D01*
X190909917Y-79388676D01*
X190357227Y-79941366D01*
X190225057Y-79941251D01*
X189975160Y-80044506D01*
X189975160Y-78216760D01*
X189919211Y-77935488D01*
X189900089Y-77906870D01*
X189759884Y-77697037D01*
X189147846Y-77085000D01*
X189991995Y-77085000D01*
X189992000Y-77085001D01*
X190300762Y-77023583D01*
X190330675Y-77017633D01*
X190617790Y-76825790D01*
X191337733Y-76105846D01*
X191561212Y-76013507D01*
X191836540Y-75738659D01*
X191985730Y-75379370D01*
X191986069Y-74990337D01*
X191837507Y-74630788D01*
X191562659Y-74355460D01*
X191203370Y-74206270D01*
X190814337Y-74205931D01*
X190454788Y-74354493D01*
X190259016Y-74549924D01*
X190252547Y-74534268D01*
X189977699Y-74258940D01*
X189618410Y-74109750D01*
X189229377Y-74109411D01*
X188869828Y-74257973D01*
X188775156Y-74352480D01*
X185115200Y-74352480D01*
X184833928Y-74408429D01*
X184595477Y-74567756D01*
X184006197Y-75157037D01*
X183846869Y-75395488D01*
X183790920Y-75676760D01*
X183790920Y-76591160D01*
X183834053Y-76808000D01*
X183846869Y-76872432D01*
X184006197Y-77110883D01*
X184575157Y-77679844D01*
X184790903Y-77824000D01*
X184813608Y-77839171D01*
X185094880Y-77895120D01*
X187879074Y-77895120D01*
X188505160Y-78521207D01*
X188505160Y-80464787D01*
X188464387Y-80366108D01*
X188189539Y-80090780D01*
X187830250Y-79941590D01*
X187441217Y-79941251D01*
X187081668Y-80089813D01*
X186986996Y-80184320D01*
X183931207Y-80184320D01*
X180535490Y-76788604D01*
X180860910Y-76923730D01*
X181249943Y-76924069D01*
X181609492Y-76775507D01*
X181884820Y-76500659D01*
X182034010Y-76141370D01*
X182034349Y-75752337D01*
X181941280Y-75527092D01*
X181941280Y-71694663D01*
X186600931Y-71694663D01*
X186749493Y-72054212D01*
X187024341Y-72329540D01*
X187383630Y-72478730D01*
X187772663Y-72479069D01*
X187997908Y-72386000D01*
X190890924Y-72386000D01*
X190961341Y-72456540D01*
X191320630Y-72605730D01*
X191709663Y-72606069D01*
X192069212Y-72457507D01*
X192344540Y-72182659D01*
X192493730Y-71823370D01*
X192494069Y-71434337D01*
X192345507Y-71074788D01*
X192070659Y-70799460D01*
X191711370Y-70650270D01*
X191560628Y-70650139D01*
X191389000Y-70615999D01*
X191388995Y-70616000D01*
X187997688Y-70616000D01*
X187774370Y-70523270D01*
X187385337Y-70522931D01*
X187025788Y-70671493D01*
X186750460Y-70946341D01*
X186601270Y-71305630D01*
X186600931Y-71694663D01*
X181941280Y-71694663D01*
X181941280Y-67899285D01*
X181941281Y-67899280D01*
X181873913Y-67560606D01*
X181873913Y-67560605D01*
X181682070Y-67273490D01*
X181682067Y-67273488D01*
X178634070Y-64225490D01*
X178609196Y-64208870D01*
X178346955Y-64033647D01*
X178290764Y-64022470D01*
X178008280Y-63966279D01*
X178008275Y-63966280D01*
X158389583Y-63966280D01*
X158334379Y-63910980D01*
X157975090Y-63761790D01*
X157586057Y-63761451D01*
X157226508Y-63910013D01*
X156951180Y-64184861D01*
X156801990Y-64544150D01*
X156801651Y-64933183D01*
X156950213Y-65292732D01*
X157225061Y-65568060D01*
X157584350Y-65717250D01*
X157796736Y-65717435D01*
X157891480Y-65736281D01*
X157891485Y-65736280D01*
X177641700Y-65736280D01*
X180171280Y-68265859D01*
X180171280Y-75527312D01*
X180078550Y-75750630D01*
X180078211Y-76139663D01*
X180213166Y-76466279D01*
X179452563Y-75705677D01*
X179214112Y-75546349D01*
X179177669Y-75539100D01*
X178932840Y-75490400D01*
X174468084Y-75490400D01*
X174469890Y-75486050D01*
X174470229Y-75097017D01*
X174321667Y-74737468D01*
X174046819Y-74462140D01*
X173733746Y-74332141D01*
X173640947Y-74107548D01*
X173366099Y-73832220D01*
X173006810Y-73683030D01*
X172617777Y-73682691D01*
X172258228Y-73831253D01*
X172163556Y-73925760D01*
X166745567Y-73925760D01*
X166544876Y-73725069D01*
X166690540Y-73579659D01*
X166778414Y-73368035D01*
X166817663Y-73368069D01*
X167177212Y-73219507D01*
X167452540Y-72944659D01*
X167601730Y-72585370D01*
X167602069Y-72196337D01*
X167453507Y-71836788D01*
X167178659Y-71561460D01*
X166819370Y-71412270D01*
X166430337Y-71411931D01*
X166070788Y-71560493D01*
X165976116Y-71655000D01*
X148145455Y-71655000D01*
X148145539Y-71558077D01*
X148185205Y-71541687D01*
X148374310Y-71620210D01*
X148763343Y-71620549D01*
X149122892Y-71471987D01*
X149398220Y-71197139D01*
X149547410Y-70837850D01*
X149547749Y-70448817D01*
X149399187Y-70089268D01*
X149304680Y-69994596D01*
X149304680Y-68169373D01*
X162576812Y-68169373D01*
X162741646Y-68568300D01*
X163046595Y-68873782D01*
X163445233Y-69039311D01*
X163876873Y-69039688D01*
X164275800Y-68874854D01*
X164581282Y-68569905D01*
X164746811Y-68171267D01*
X164746812Y-68169373D01*
X166976812Y-68169373D01*
X167141646Y-68568300D01*
X167446595Y-68873782D01*
X167845233Y-69039311D01*
X168276873Y-69039688D01*
X168675800Y-68874854D01*
X168981282Y-68569905D01*
X169146811Y-68171267D01*
X169147188Y-67739627D01*
X168982354Y-67340700D01*
X168677405Y-67035218D01*
X168278767Y-66869689D01*
X167847127Y-66869312D01*
X167448200Y-67034146D01*
X167142718Y-67339095D01*
X166977189Y-67737733D01*
X166976812Y-68169373D01*
X164746812Y-68169373D01*
X164747188Y-67739627D01*
X164582354Y-67340700D01*
X164277405Y-67035218D01*
X163878767Y-66869689D01*
X163447127Y-66869312D01*
X163048200Y-67034146D01*
X162742718Y-67339095D01*
X162577189Y-67737733D01*
X162576812Y-68169373D01*
X149304680Y-68169373D01*
X149304680Y-67860069D01*
X149395010Y-67642530D01*
X149395349Y-67253497D01*
X149246787Y-66893948D01*
X148971939Y-66618620D01*
X148612650Y-66469430D01*
X148223617Y-66469091D01*
X147864068Y-66617653D01*
X147588740Y-66892501D01*
X147439550Y-67251790D01*
X147439541Y-67261578D01*
X147431137Y-67261571D01*
X147071588Y-67410133D01*
X146796260Y-67684981D01*
X146647070Y-68044270D01*
X146646731Y-68433303D01*
X146795293Y-68792852D01*
X146930440Y-68928235D01*
X146930440Y-70050324D01*
X146836900Y-70143701D01*
X146687710Y-70502990D01*
X146687501Y-70742883D01*
X146614388Y-70773093D01*
X146519716Y-70867600D01*
X145687952Y-70867600D01*
X145397010Y-70746790D01*
X145007977Y-70746451D01*
X144648428Y-70895013D01*
X144373100Y-71169861D01*
X144223910Y-71529150D01*
X144223800Y-71655000D01*
X142306040Y-71655000D01*
X142203885Y-71675320D01*
X141594308Y-71675320D01*
X141380971Y-71717756D01*
X141230019Y-71566540D01*
X140870730Y-71417350D01*
X140481697Y-71417011D01*
X140122148Y-71565573D01*
X139846820Y-71840421D01*
X139697630Y-72199710D01*
X139697513Y-72333480D01*
X139663558Y-72367436D01*
X139619659Y-72323460D01*
X139260370Y-72174270D01*
X138871337Y-72173931D01*
X138793554Y-72206070D01*
X138899730Y-71950370D01*
X138900069Y-71561337D01*
X138751507Y-71201788D01*
X138476659Y-70926460D01*
X138117370Y-70777270D01*
X137728337Y-70776931D01*
X137368788Y-70925493D01*
X137287099Y-71007040D01*
X137206659Y-70926460D01*
X136847370Y-70777270D01*
X136458337Y-70776931D01*
X136313804Y-70836651D01*
X136313804Y-65220804D01*
X136257855Y-64939532D01*
X136242386Y-64916381D01*
X136098528Y-64701081D01*
X133390321Y-61992875D01*
X133151870Y-61833547D01*
X132870598Y-61777598D01*
X76425402Y-61777598D01*
X76144130Y-61833547D01*
X75905679Y-61992874D01*
X72378277Y-65520277D01*
X72218949Y-65758728D01*
X72163000Y-66040000D01*
X72163000Y-86360000D01*
X72210080Y-86596683D01*
X72218949Y-86641272D01*
X72378277Y-86879723D01*
X73190046Y-87691493D01*
X73189931Y-87823663D01*
X73338493Y-88183212D01*
X73613341Y-88458540D01*
X73972630Y-88607730D01*
X74361663Y-88608069D01*
X74721212Y-88459507D01*
X74996540Y-88184659D01*
X75145730Y-87825370D01*
X75146069Y-87436337D01*
X74997507Y-87076788D01*
X74788960Y-86867877D01*
X74996540Y-86660659D01*
X75145730Y-86301370D01*
X75146069Y-85912337D01*
X74997507Y-85552788D01*
X74788960Y-85343877D01*
X74996540Y-85136659D01*
X75145730Y-84777370D01*
X75146069Y-84388337D01*
X74997507Y-84028788D01*
X74852349Y-83883377D01*
X75123540Y-83612659D01*
X75272730Y-83253370D01*
X75273069Y-82864337D01*
X75124507Y-82504788D01*
X74849659Y-82229460D01*
X74776000Y-82198874D01*
X74776000Y-66725446D01*
X77168045Y-64333402D01*
X87494511Y-64333402D01*
X84143557Y-67684357D01*
X83984229Y-67922808D01*
X83928280Y-68204080D01*
X83928280Y-69288324D01*
X83834740Y-69381701D01*
X83685550Y-69740990D01*
X83685211Y-70130023D01*
X83833773Y-70489572D01*
X84108621Y-70764900D01*
X84467910Y-70914090D01*
X84856943Y-70914429D01*
X85123231Y-70804401D01*
X85387390Y-70914090D01*
X85776423Y-70914429D01*
X86135972Y-70765867D01*
X86411300Y-70491019D01*
X86560490Y-70131730D01*
X86560634Y-69966490D01*
X86799630Y-70065730D01*
X86933400Y-70065847D01*
X87364277Y-70496724D01*
X87593569Y-70649931D01*
X87602728Y-70656051D01*
X87884000Y-70712000D01*
X88823464Y-70712000D01*
X88916841Y-70805540D01*
X89276130Y-70954730D01*
X89665163Y-70955069D01*
X90024712Y-70806507D01*
X90300040Y-70531659D01*
X90449230Y-70172370D01*
X90449569Y-69783337D01*
X90301007Y-69423788D01*
X90026159Y-69148460D01*
X89666870Y-68999270D01*
X89277837Y-68998931D01*
X88918288Y-69147493D01*
X88823616Y-69242000D01*
X88188447Y-69242000D01*
X87972954Y-69026507D01*
X87973069Y-68894337D01*
X87824507Y-68534788D01*
X87549659Y-68259460D01*
X87190370Y-68110270D01*
X86801337Y-68109931D01*
X86441788Y-68258493D01*
X86429520Y-68270740D01*
X86429520Y-68229126D01*
X89128247Y-65530400D01*
X92938954Y-65530400D01*
X92941086Y-65532532D01*
X92940971Y-65664703D01*
X93089533Y-66024252D01*
X93364381Y-66299580D01*
X93723670Y-66448770D01*
X94112703Y-66449109D01*
X94472252Y-66300547D01*
X94747580Y-66025699D01*
X94896770Y-65666410D01*
X94897109Y-65277377D01*
X94748970Y-64918851D01*
X94881530Y-64599610D01*
X94881762Y-64333402D01*
X99987259Y-64333402D01*
X99986931Y-64709663D01*
X100135493Y-65069212D01*
X100280540Y-65214512D01*
X100136460Y-65358341D01*
X99987270Y-65717630D01*
X99986931Y-66106663D01*
X100090646Y-66357673D01*
X99987270Y-66606630D01*
X99986931Y-66995663D01*
X100135493Y-67355212D01*
X100344040Y-67564123D01*
X100136460Y-67771341D01*
X99987270Y-68130630D01*
X99986931Y-68519663D01*
X100090646Y-68770673D01*
X99987270Y-69019630D01*
X99986931Y-69408663D01*
X100135493Y-69768212D01*
X100280651Y-69913623D01*
X100009460Y-70184341D01*
X99860270Y-70543630D01*
X99859931Y-70932663D01*
X99963646Y-71183673D01*
X99921540Y-71285076D01*
X99755337Y-71284931D01*
X99395788Y-71433493D01*
X99301116Y-71528000D01*
X95350000Y-71528000D01*
X95350000Y-69646446D01*
X95935446Y-69061000D01*
X97663000Y-69061000D01*
X97944272Y-69005051D01*
X98182723Y-68845723D01*
X98359492Y-68668954D01*
X98491663Y-68669069D01*
X98851212Y-68520507D01*
X99126540Y-68245659D01*
X99275730Y-67886370D01*
X99276069Y-67497337D01*
X99127507Y-67137788D01*
X98852659Y-66862460D01*
X98493370Y-66713270D01*
X98104337Y-66712931D01*
X97744788Y-66861493D01*
X97469460Y-67136341D01*
X97320270Y-67495630D01*
X97320187Y-67591000D01*
X95631000Y-67591000D01*
X95371944Y-67642530D01*
X95349728Y-67646949D01*
X95111277Y-67806277D01*
X94095277Y-68822277D01*
X93935949Y-69060728D01*
X93880000Y-69342000D01*
X93880000Y-71257436D01*
X93857007Y-71201788D01*
X93582159Y-70926460D01*
X93222870Y-70777270D01*
X92833837Y-70776931D01*
X92474288Y-70925493D01*
X92198960Y-71200341D01*
X92049770Y-71559630D01*
X92049431Y-71948663D01*
X92197993Y-72308212D01*
X92292500Y-72402884D01*
X92292500Y-73850500D01*
X92333467Y-74056453D01*
X92348449Y-74131772D01*
X92507777Y-74370223D01*
X92515414Y-74377860D01*
X92367270Y-74734630D01*
X92367234Y-74775539D01*
X92156788Y-74862493D01*
X91881460Y-75137341D01*
X91732270Y-75496630D01*
X91731931Y-75885663D01*
X91880493Y-76245212D01*
X91902882Y-76267640D01*
X90437036Y-76267640D01*
X90343659Y-76174100D01*
X89984370Y-76024910D01*
X89889000Y-76024827D01*
X89889000Y-73927036D01*
X89982540Y-73833659D01*
X90131730Y-73474370D01*
X90132069Y-73085337D01*
X89983507Y-72725788D01*
X89708659Y-72450460D01*
X89349370Y-72301270D01*
X89097115Y-72301050D01*
X89242730Y-71950370D01*
X89243069Y-71561337D01*
X89094507Y-71201788D01*
X88819659Y-70926460D01*
X88460370Y-70777270D01*
X88071337Y-70776931D01*
X87820327Y-70880646D01*
X87571370Y-70777270D01*
X87182337Y-70776931D01*
X86931327Y-70880646D01*
X86682370Y-70777270D01*
X86293337Y-70776931D01*
X85933788Y-70925493D01*
X85658460Y-71200341D01*
X85509270Y-71559630D01*
X85508931Y-71948663D01*
X85657493Y-72308212D01*
X85752000Y-72402884D01*
X85752000Y-72996402D01*
X85800600Y-73240730D01*
X85807949Y-73277674D01*
X85967277Y-73516125D01*
X87276000Y-74824849D01*
X87276000Y-82236054D01*
X86752223Y-81712277D01*
X86513772Y-81552949D01*
X86232500Y-81497000D01*
X84318775Y-81497000D01*
X84373212Y-81474507D01*
X84648540Y-81199659D01*
X84797730Y-80840370D01*
X84798069Y-80451337D01*
X84649507Y-80091788D01*
X84374659Y-79816460D01*
X84163035Y-79728586D01*
X84163069Y-79689337D01*
X84014507Y-79329788D01*
X83739659Y-79054460D01*
X83528035Y-78966586D01*
X83528069Y-78927337D01*
X83379507Y-78567788D01*
X83104659Y-78292460D01*
X82745370Y-78143270D01*
X82356337Y-78142931D01*
X82355940Y-78143095D01*
X82355940Y-78032000D01*
X82311662Y-77796683D01*
X82172590Y-77580559D01*
X81960390Y-77435569D01*
X81708500Y-77384560D01*
X81443500Y-77384560D01*
X81443500Y-76784647D01*
X81473540Y-76754659D01*
X81622730Y-76395370D01*
X81623069Y-76006337D01*
X81474507Y-75646788D01*
X81199659Y-75371460D01*
X80840370Y-75222270D01*
X80451337Y-75221931D01*
X80091788Y-75370493D01*
X79816460Y-75645341D01*
X79667270Y-76004630D01*
X79666931Y-76393663D01*
X79815493Y-76753212D01*
X79973500Y-76911495D01*
X79973500Y-77384560D01*
X79708500Y-77384560D01*
X79473183Y-77428838D01*
X79257059Y-77567910D01*
X79112069Y-77780110D01*
X79061060Y-78032000D01*
X79061060Y-78432000D01*
X79100074Y-78639342D01*
X79061060Y-78832000D01*
X79061060Y-79232000D01*
X79100074Y-79439342D01*
X79061060Y-79632000D01*
X79061060Y-80032000D01*
X79100074Y-80239342D01*
X79061060Y-80432000D01*
X79061060Y-80832000D01*
X79100358Y-81040850D01*
X79073500Y-81105691D01*
X79073500Y-81173250D01*
X79232250Y-81332000D01*
X79315478Y-81332000D01*
X79456610Y-81428431D01*
X79469697Y-81431081D01*
X79367256Y-81497000D01*
X78804000Y-81497000D01*
X78522728Y-81552949D01*
X78284276Y-81712277D01*
X78054554Y-81942000D01*
X77393447Y-81942000D01*
X77304954Y-81853507D01*
X77305069Y-81721337D01*
X77156507Y-81361788D01*
X76881659Y-81086460D01*
X76522370Y-80937270D01*
X76133337Y-80936931D01*
X75773788Y-81085493D01*
X75498460Y-81360341D01*
X75349270Y-81719630D01*
X75348931Y-82108663D01*
X75497493Y-82468212D01*
X75772341Y-82743540D01*
X76131630Y-82892730D01*
X76265400Y-82892847D01*
X76569277Y-83196724D01*
X76807728Y-83356051D01*
X77089000Y-83412000D01*
X78359000Y-83412000D01*
X78640272Y-83356051D01*
X78878723Y-83196723D01*
X79061060Y-83014386D01*
X79061060Y-83232000D01*
X79100074Y-83439342D01*
X79061060Y-83632000D01*
X79061060Y-84032000D01*
X79100074Y-84239342D01*
X79061060Y-84432000D01*
X79061060Y-84832000D01*
X79100074Y-85039342D01*
X79061060Y-85232000D01*
X79061060Y-85632000D01*
X79100074Y-85839342D01*
X79061060Y-86032000D01*
X79061060Y-86432000D01*
X79100074Y-86639342D01*
X79061060Y-86832000D01*
X79061060Y-87232000D01*
X79100074Y-87439342D01*
X79061060Y-87632000D01*
X79061060Y-88032000D01*
X79100074Y-88239342D01*
X79061060Y-88432000D01*
X79061060Y-88832000D01*
X79100074Y-89039342D01*
X79061060Y-89232000D01*
X79061060Y-89632000D01*
X79100074Y-89839342D01*
X79061060Y-90032000D01*
X79061060Y-90432000D01*
X79100074Y-90639342D01*
X79061060Y-90832000D01*
X79061060Y-91232000D01*
X79100074Y-91439342D01*
X79061060Y-91632000D01*
X79061060Y-92032000D01*
X79100074Y-92239342D01*
X79061060Y-92432000D01*
X79061060Y-92832000D01*
X79100074Y-93039342D01*
X79061060Y-93232000D01*
X79061060Y-93632000D01*
X79100074Y-93839342D01*
X79061060Y-94032000D01*
X79061060Y-94432000D01*
X79100074Y-94639342D01*
X79061060Y-94832000D01*
X79061060Y-95097000D01*
X75237000Y-95097000D01*
X75008515Y-95142449D01*
X74955727Y-95152949D01*
X74717276Y-95312277D01*
X72505277Y-97524277D01*
X72345949Y-97762728D01*
X72290000Y-98044000D01*
X72290000Y-105904964D01*
X72196460Y-105998341D01*
X72084000Y-106269174D01*
X72084000Y-61162000D01*
X207570000Y-61162000D01*
X207570000Y-64366812D01*
G36*
X88874546Y-85913493D02*
X88874431Y-86045663D01*
X89022993Y-86405212D01*
X89297841Y-86680540D01*
X89657130Y-86829730D01*
X90046163Y-86830069D01*
X90324000Y-86715270D01*
X90324000Y-94691553D01*
X89473508Y-95542046D01*
X89341337Y-95541931D01*
X88981788Y-95690493D01*
X88706460Y-95965341D01*
X88557270Y-96324630D01*
X88556931Y-96713663D01*
X88705493Y-97073212D01*
X88800000Y-97167884D01*
X88800000Y-108140500D01*
X88850524Y-108394500D01*
X88855949Y-108421772D01*
X89002164Y-108640598D01*
X87772545Y-108640598D01*
X86523500Y-107391554D01*
X86523500Y-91135536D01*
X86617040Y-91042159D01*
X86766230Y-90682870D01*
X86766569Y-90293837D01*
X86618007Y-89934288D01*
X86343159Y-89658960D01*
X85983870Y-89509770D01*
X85594837Y-89509431D01*
X85235288Y-89657993D01*
X84959960Y-89932841D01*
X84810770Y-90292130D01*
X84810734Y-90333039D01*
X84600288Y-90419993D01*
X84324960Y-90694841D01*
X84263444Y-90842988D01*
X84197837Y-90842931D01*
X83908985Y-90962282D01*
X83909069Y-90865337D01*
X83779052Y-90550670D01*
X83908730Y-90238370D01*
X83909069Y-89849337D01*
X83760507Y-89489788D01*
X83485659Y-89214460D01*
X83126370Y-89065270D01*
X82737337Y-89064931D01*
X82377788Y-89213493D01*
X82355940Y-89235303D01*
X82355940Y-89232000D01*
X82316926Y-89024658D01*
X82355940Y-88832000D01*
X82355940Y-88432000D01*
X82316926Y-88224658D01*
X82355940Y-88032000D01*
X82355940Y-87632000D01*
X82316926Y-87424658D01*
X82355940Y-87232000D01*
X82355940Y-86832000D01*
X82329666Y-86692364D01*
X82354630Y-86702730D01*
X82743663Y-86703069D01*
X83103212Y-86554507D01*
X83378540Y-86279659D01*
X83527730Y-85920370D01*
X83528069Y-85531337D01*
X83424354Y-85280327D01*
X83527730Y-85031370D01*
X83528069Y-84642337D01*
X83424354Y-84391327D01*
X83527730Y-84142370D01*
X83528069Y-83753337D01*
X83379507Y-83393788D01*
X83353317Y-83367552D01*
X83400730Y-83253370D01*
X83400980Y-82967000D01*
X85928054Y-82967000D01*
X88874546Y-85913493D01*
X88874546Y-85913493D01*
G37*
X88874546Y-85913493D02*
X88874431Y-86045663D01*
X89022993Y-86405212D01*
X89297841Y-86680540D01*
X89657130Y-86829730D01*
X90046163Y-86830069D01*
X90324000Y-86715270D01*
X90324000Y-94691553D01*
X89473508Y-95542046D01*
X89341337Y-95541931D01*
X88981788Y-95690493D01*
X88706460Y-95965341D01*
X88557270Y-96324630D01*
X88556931Y-96713663D01*
X88705493Y-97073212D01*
X88800000Y-97167884D01*
X88800000Y-108140500D01*
X88850524Y-108394500D01*
X88855949Y-108421772D01*
X89002164Y-108640598D01*
X87772545Y-108640598D01*
X86523500Y-107391554D01*
X86523500Y-91135536D01*
X86617040Y-91042159D01*
X86766230Y-90682870D01*
X86766569Y-90293837D01*
X86618007Y-89934288D01*
X86343159Y-89658960D01*
X85983870Y-89509770D01*
X85594837Y-89509431D01*
X85235288Y-89657993D01*
X84959960Y-89932841D01*
X84810770Y-90292130D01*
X84810734Y-90333039D01*
X84600288Y-90419993D01*
X84324960Y-90694841D01*
X84263444Y-90842988D01*
X84197837Y-90842931D01*
X83908985Y-90962282D01*
X83909069Y-90865337D01*
X83779052Y-90550670D01*
X83908730Y-90238370D01*
X83909069Y-89849337D01*
X83760507Y-89489788D01*
X83485659Y-89214460D01*
X83126370Y-89065270D01*
X82737337Y-89064931D01*
X82377788Y-89213493D01*
X82355940Y-89235303D01*
X82355940Y-89232000D01*
X82316926Y-89024658D01*
X82355940Y-88832000D01*
X82355940Y-88432000D01*
X82316926Y-88224658D01*
X82355940Y-88032000D01*
X82355940Y-87632000D01*
X82316926Y-87424658D01*
X82355940Y-87232000D01*
X82355940Y-86832000D01*
X82329666Y-86692364D01*
X82354630Y-86702730D01*
X82743663Y-86703069D01*
X83103212Y-86554507D01*
X83378540Y-86279659D01*
X83527730Y-85920370D01*
X83528069Y-85531337D01*
X83424354Y-85280327D01*
X83527730Y-85031370D01*
X83528069Y-84642337D01*
X83424354Y-84391327D01*
X83527730Y-84142370D01*
X83528069Y-83753337D01*
X83379507Y-83393788D01*
X83353317Y-83367552D01*
X83400730Y-83253370D01*
X83400980Y-82967000D01*
X85928054Y-82967000D01*
X88874546Y-85913493D01*
G36*
X92156788Y-77783493D02*
X91881460Y-78058341D01*
X91732270Y-78417630D01*
X91731931Y-78806663D01*
X91861948Y-79121330D01*
X91732270Y-79433630D01*
X91731931Y-79822663D01*
X91742576Y-79848426D01*
X91627460Y-79963341D01*
X91478270Y-80322630D01*
X91477931Y-80711663D01*
X91626493Y-81071212D01*
X91721000Y-81165884D01*
X91721000Y-82677000D01*
X91766154Y-82904000D01*
X91776949Y-82958272D01*
X91936277Y-83196723D01*
X93841277Y-85101724D01*
X94036250Y-85232000D01*
X94079728Y-85261051D01*
X94361000Y-85317000D01*
X100279554Y-85317000D01*
X103436897Y-88474344D01*
X103184460Y-88726341D01*
X103035270Y-89085630D01*
X103034931Y-89474663D01*
X103183493Y-89834212D01*
X103458341Y-90109540D01*
X103817630Y-90258730D01*
X103951400Y-90258847D01*
X105012462Y-91319909D01*
X105041481Y-91339299D01*
X108747303Y-95045122D01*
X106143619Y-95045122D01*
X106028159Y-94929460D01*
X105668870Y-94780270D01*
X105279837Y-94779931D01*
X104920288Y-94928493D01*
X104644960Y-95203341D01*
X104495770Y-95562630D01*
X104495431Y-95951663D01*
X104643993Y-96311212D01*
X104918841Y-96586540D01*
X105278130Y-96735730D01*
X105667163Y-96736069D01*
X106026712Y-96587507D01*
X106099223Y-96515122D01*
X109718932Y-96515122D01*
X110766809Y-97563000D01*
X100965000Y-97563000D01*
X100683728Y-97618949D01*
X100445277Y-97778277D01*
X99429277Y-98794277D01*
X99269949Y-99032728D01*
X99214000Y-99314000D01*
X99214000Y-100484000D01*
X96596647Y-100484000D01*
X96566659Y-100453960D01*
X96207370Y-100304770D01*
X95818337Y-100304431D01*
X95458788Y-100452993D01*
X95183460Y-100727841D01*
X95034270Y-101087130D01*
X95033931Y-101476163D01*
X95182493Y-101835712D01*
X95457341Y-102111040D01*
X95816630Y-102260230D01*
X96205663Y-102260569D01*
X96565212Y-102112007D01*
X96723495Y-101954000D01*
X99300964Y-101954000D01*
X99394341Y-102047540D01*
X99753630Y-102196730D01*
X100142663Y-102197069D01*
X100502212Y-102048507D01*
X100777540Y-101773659D01*
X100926730Y-101414370D01*
X100927069Y-101025337D01*
X100778507Y-100665788D01*
X100684000Y-100571116D01*
X100684000Y-99618446D01*
X101269446Y-99033000D01*
X119723429Y-99033000D01*
X119665080Y-99173520D01*
X119334788Y-99309993D01*
X119059460Y-99584841D01*
X118971563Y-99796521D01*
X118868837Y-99796431D01*
X118662650Y-99881626D01*
X118305370Y-99733270D01*
X117916337Y-99732931D01*
X117633498Y-99849797D01*
X117352870Y-99733270D01*
X116963837Y-99732931D01*
X116712827Y-99836646D01*
X116463870Y-99733270D01*
X116074837Y-99732931D01*
X115715288Y-99881493D01*
X115439960Y-100156341D01*
X115290770Y-100515630D01*
X115290431Y-100904663D01*
X115438993Y-101264212D01*
X115533500Y-101358884D01*
X115533500Y-107074053D01*
X114420596Y-108186957D01*
X114335703Y-107981498D01*
X114452230Y-107700870D01*
X114452569Y-107311837D01*
X114380526Y-107137478D01*
X114515730Y-106811870D01*
X114516069Y-106422837D01*
X114444026Y-106248478D01*
X114579230Y-105922870D01*
X114579569Y-105533837D01*
X114431007Y-105174288D01*
X114156159Y-104898960D01*
X113796870Y-104749770D01*
X113407837Y-104749431D01*
X113048288Y-104897993D01*
X112772960Y-105172841D01*
X112623770Y-105532130D01*
X112623764Y-105538789D01*
X111011054Y-107151500D01*
X93077947Y-107151500D01*
X93052954Y-107126507D01*
X93053069Y-106994337D01*
X92904507Y-106634788D01*
X92629659Y-106359460D01*
X92302000Y-106223404D01*
X92302000Y-98946036D01*
X92395540Y-98852659D01*
X92544730Y-98493370D01*
X92544847Y-98359600D01*
X92721724Y-98182723D01*
X92881051Y-97944272D01*
X92937000Y-97663000D01*
X92937000Y-95507163D01*
X95097431Y-95507163D01*
X95245993Y-95866712D01*
X95520841Y-96142040D01*
X95880130Y-96291230D01*
X96269163Y-96291569D01*
X96628712Y-96143007D01*
X96723384Y-96048500D01*
X99364464Y-96048500D01*
X99457841Y-96142040D01*
X99817130Y-96291230D01*
X100206163Y-96291569D01*
X100565712Y-96143007D01*
X100841040Y-95868159D01*
X100990230Y-95508870D01*
X100990569Y-95119837D01*
X100842007Y-94760288D01*
X100567159Y-94484960D01*
X100207870Y-94335770D01*
X99818837Y-94335431D01*
X99459288Y-94483993D01*
X99364616Y-94578500D01*
X96723536Y-94578500D01*
X96630159Y-94484960D01*
X96270870Y-94335770D01*
X95881837Y-94335431D01*
X95522288Y-94483993D01*
X95246960Y-94758841D01*
X95097770Y-95118130D01*
X95097431Y-95507163D01*
X92937000Y-95507163D01*
X92937000Y-85217000D01*
X92881051Y-84935728D01*
X92851746Y-84891870D01*
X92721724Y-84697277D01*
X89889000Y-81864554D01*
X89889000Y-77980627D01*
X89982663Y-77980709D01*
X90342212Y-77832147D01*
X90436884Y-77737640D01*
X92267761Y-77737640D01*
X92156788Y-77783493D01*
X92156788Y-77783493D01*
G37*
X92156788Y-77783493D02*
X91881460Y-78058341D01*
X91732270Y-78417630D01*
X91731931Y-78806663D01*
X91861948Y-79121330D01*
X91732270Y-79433630D01*
X91731931Y-79822663D01*
X91742576Y-79848426D01*
X91627460Y-79963341D01*
X91478270Y-80322630D01*
X91477931Y-80711663D01*
X91626493Y-81071212D01*
X91721000Y-81165884D01*
X91721000Y-82677000D01*
X91766154Y-82904000D01*
X91776949Y-82958272D01*
X91936277Y-83196723D01*
X93841277Y-85101724D01*
X94036250Y-85232000D01*
X94079728Y-85261051D01*
X94361000Y-85317000D01*
X100279554Y-85317000D01*
X103436897Y-88474344D01*
X103184460Y-88726341D01*
X103035270Y-89085630D01*
X103034931Y-89474663D01*
X103183493Y-89834212D01*
X103458341Y-90109540D01*
X103817630Y-90258730D01*
X103951400Y-90258847D01*
X105012462Y-91319909D01*
X105041481Y-91339299D01*
X108747303Y-95045122D01*
X106143619Y-95045122D01*
X106028159Y-94929460D01*
X105668870Y-94780270D01*
X105279837Y-94779931D01*
X104920288Y-94928493D01*
X104644960Y-95203341D01*
X104495770Y-95562630D01*
X104495431Y-95951663D01*
X104643993Y-96311212D01*
X104918841Y-96586540D01*
X105278130Y-96735730D01*
X105667163Y-96736069D01*
X106026712Y-96587507D01*
X106099223Y-96515122D01*
X109718932Y-96515122D01*
X110766809Y-97563000D01*
X100965000Y-97563000D01*
X100683728Y-97618949D01*
X100445277Y-97778277D01*
X99429277Y-98794277D01*
X99269949Y-99032728D01*
X99214000Y-99314000D01*
X99214000Y-100484000D01*
X96596647Y-100484000D01*
X96566659Y-100453960D01*
X96207370Y-100304770D01*
X95818337Y-100304431D01*
X95458788Y-100452993D01*
X95183460Y-100727841D01*
X95034270Y-101087130D01*
X95033931Y-101476163D01*
X95182493Y-101835712D01*
X95457341Y-102111040D01*
X95816630Y-102260230D01*
X96205663Y-102260569D01*
X96565212Y-102112007D01*
X96723495Y-101954000D01*
X99300964Y-101954000D01*
X99394341Y-102047540D01*
X99753630Y-102196730D01*
X100142663Y-102197069D01*
X100502212Y-102048507D01*
X100777540Y-101773659D01*
X100926730Y-101414370D01*
X100927069Y-101025337D01*
X100778507Y-100665788D01*
X100684000Y-100571116D01*
X100684000Y-99618446D01*
X101269446Y-99033000D01*
X119723429Y-99033000D01*
X119665080Y-99173520D01*
X119334788Y-99309993D01*
X119059460Y-99584841D01*
X118971563Y-99796521D01*
X118868837Y-99796431D01*
X118662650Y-99881626D01*
X118305370Y-99733270D01*
X117916337Y-99732931D01*
X117633498Y-99849797D01*
X117352870Y-99733270D01*
X116963837Y-99732931D01*
X116712827Y-99836646D01*
X116463870Y-99733270D01*
X116074837Y-99732931D01*
X115715288Y-99881493D01*
X115439960Y-100156341D01*
X115290770Y-100515630D01*
X115290431Y-100904663D01*
X115438993Y-101264212D01*
X115533500Y-101358884D01*
X115533500Y-107074053D01*
X114420596Y-108186957D01*
X114335703Y-107981498D01*
X114452230Y-107700870D01*
X114452569Y-107311837D01*
X114380526Y-107137478D01*
X114515730Y-106811870D01*
X114516069Y-106422837D01*
X114444026Y-106248478D01*
X114579230Y-105922870D01*
X114579569Y-105533837D01*
X114431007Y-105174288D01*
X114156159Y-104898960D01*
X113796870Y-104749770D01*
X113407837Y-104749431D01*
X113048288Y-104897993D01*
X112772960Y-105172841D01*
X112623770Y-105532130D01*
X112623764Y-105538789D01*
X111011054Y-107151500D01*
X93077947Y-107151500D01*
X93052954Y-107126507D01*
X93053069Y-106994337D01*
X92904507Y-106634788D01*
X92629659Y-106359460D01*
X92302000Y-106223404D01*
X92302000Y-98946036D01*
X92395540Y-98852659D01*
X92544730Y-98493370D01*
X92544847Y-98359600D01*
X92721724Y-98182723D01*
X92881051Y-97944272D01*
X92937000Y-97663000D01*
X92937000Y-95507163D01*
X95097431Y-95507163D01*
X95245993Y-95866712D01*
X95520841Y-96142040D01*
X95880130Y-96291230D01*
X96269163Y-96291569D01*
X96628712Y-96143007D01*
X96723384Y-96048500D01*
X99364464Y-96048500D01*
X99457841Y-96142040D01*
X99817130Y-96291230D01*
X100206163Y-96291569D01*
X100565712Y-96143007D01*
X100841040Y-95868159D01*
X100990230Y-95508870D01*
X100990569Y-95119837D01*
X100842007Y-94760288D01*
X100567159Y-94484960D01*
X100207870Y-94335770D01*
X99818837Y-94335431D01*
X99459288Y-94483993D01*
X99364616Y-94578500D01*
X96723536Y-94578500D01*
X96630159Y-94484960D01*
X96270870Y-94335770D01*
X95881837Y-94335431D01*
X95522288Y-94483993D01*
X95246960Y-94758841D01*
X95097770Y-95118130D01*
X95097431Y-95507163D01*
X92937000Y-95507163D01*
X92937000Y-85217000D01*
X92881051Y-84935728D01*
X92851746Y-84891870D01*
X92721724Y-84697277D01*
X89889000Y-81864554D01*
X89889000Y-77980627D01*
X89982663Y-77980709D01*
X90342212Y-77832147D01*
X90436884Y-77737640D01*
X92267761Y-77737640D01*
X92156788Y-77783493D01*
G36*
X136038920Y-101335487D02*
X136038920Y-106700673D01*
X135999536Y-106740057D01*
X135990000Y-106730505D01*
X135990000Y-101286566D01*
X136038920Y-101335487D01*
X136038920Y-101335487D01*
G37*
X136038920Y-101335487D02*
X136038920Y-106700673D01*
X135999536Y-106740057D01*
X135990000Y-106730505D01*
X135990000Y-101286566D01*
X136038920Y-101335487D01*
G36*
X166459345Y-76745124D02*
X166697796Y-76904451D01*
X166979068Y-76960400D01*
X178628394Y-76960400D01*
X179164994Y-77497000D01*
X178701815Y-77497000D01*
X178481659Y-77276460D01*
X178122370Y-77127270D01*
X177733337Y-77126931D01*
X177373788Y-77275493D01*
X177098460Y-77550341D01*
X176949270Y-77909630D01*
X176948931Y-78298663D01*
X177097493Y-78658212D01*
X177372341Y-78933540D01*
X177731630Y-79082730D01*
X178120663Y-79083069D01*
X178401573Y-78967000D01*
X179310964Y-78967000D01*
X179404341Y-79060540D01*
X179763630Y-79209730D01*
X180152663Y-79210069D01*
X180512212Y-79061507D01*
X180620951Y-78952958D01*
X183107036Y-81439043D01*
X183318830Y-81580559D01*
X183345488Y-81598371D01*
X183626760Y-81654320D01*
X186986844Y-81654320D01*
X187080221Y-81747860D01*
X187439510Y-81897050D01*
X187828543Y-81897389D01*
X188188092Y-81748827D01*
X188463420Y-81473979D01*
X188505160Y-81373458D01*
X188505160Y-86111433D01*
X185475348Y-89141246D01*
X185343177Y-89141131D01*
X184983628Y-89289693D01*
X184708300Y-89564541D01*
X184559110Y-89923830D01*
X184558881Y-90186840D01*
X170291760Y-90186840D01*
X170032704Y-90238370D01*
X170010488Y-90242789D01*
X169772037Y-90402117D01*
X165433717Y-94740437D01*
X165274389Y-94978888D01*
X165218440Y-95260160D01*
X165218440Y-104104793D01*
X163708434Y-105614800D01*
X152988927Y-105614800D01*
X152520320Y-105146194D01*
X152520320Y-103276450D01*
X152657163Y-103276569D01*
X153016712Y-103128007D01*
X153200256Y-102944783D01*
X153199931Y-103317663D01*
X153348493Y-103677212D01*
X153623341Y-103952540D01*
X153982630Y-104101730D01*
X154371663Y-104102069D01*
X154731212Y-103953507D01*
X154844707Y-103840210D01*
X154956841Y-103952540D01*
X155316130Y-104101730D01*
X155705163Y-104102069D01*
X156064712Y-103953507D01*
X156340040Y-103678659D01*
X156489230Y-103319370D01*
X156489569Y-102930337D01*
X156341007Y-102570788D01*
X156246500Y-102476116D01*
X156246500Y-100101266D01*
X156594163Y-100101569D01*
X156953712Y-99953007D01*
X157229040Y-99678159D01*
X157378230Y-99318870D01*
X157378569Y-98929837D01*
X157230007Y-98570288D01*
X156955159Y-98294960D01*
X156906333Y-98274686D01*
X156793224Y-98105405D01*
X154688095Y-96000277D01*
X154449644Y-95840949D01*
X154420551Y-95835162D01*
X154168372Y-95785000D01*
X147624447Y-95785000D01*
X147483500Y-95644054D01*
X147483500Y-93929536D01*
X147577040Y-93836159D01*
X147726230Y-93476870D01*
X147726569Y-93087837D01*
X147578007Y-92728288D01*
X147303159Y-92452960D01*
X146943870Y-92303770D01*
X146785000Y-92303632D01*
X146785000Y-90691036D01*
X146878540Y-90597659D01*
X147027730Y-90238370D01*
X147027868Y-90079500D01*
X149225000Y-90079500D01*
X149506272Y-90023551D01*
X149744723Y-89864223D01*
X150760723Y-88848223D01*
X150920051Y-88609772D01*
X150926292Y-88578397D01*
X150976000Y-88328500D01*
X150976000Y-88024036D01*
X151069540Y-87930659D01*
X151218730Y-87571370D01*
X151219069Y-87182337D01*
X151070507Y-86822788D01*
X150795659Y-86547460D01*
X150436370Y-86398270D01*
X150047337Y-86397931D01*
X149687788Y-86546493D01*
X149412460Y-86821341D01*
X149263270Y-87180630D01*
X149262931Y-87569663D01*
X149411493Y-87929212D01*
X149506000Y-88023884D01*
X149506000Y-88024054D01*
X148920554Y-88609500D01*
X146481447Y-88609500D01*
X145553723Y-87681777D01*
X145315272Y-87522449D01*
X145034000Y-87466500D01*
X141224000Y-87466500D01*
X140942728Y-87522449D01*
X140704276Y-87681777D01*
X140591007Y-87795046D01*
X140458837Y-87794931D01*
X140099288Y-87943493D01*
X139855880Y-88186477D01*
X139855880Y-85088400D01*
X140456920Y-85088400D01*
X140738192Y-85032451D01*
X140976643Y-84873123D01*
X141225563Y-84624204D01*
X141384891Y-84385752D01*
X141387616Y-84372051D01*
X141440840Y-84104480D01*
X141440840Y-82623996D01*
X141534380Y-82530619D01*
X141683570Y-82171330D01*
X141683909Y-81782297D01*
X141535347Y-81422748D01*
X141474609Y-81361903D01*
X142455731Y-81361903D01*
X142604293Y-81721452D01*
X142815640Y-81933168D01*
X142815640Y-83949204D01*
X142722100Y-84042581D01*
X142572910Y-84401870D01*
X142572571Y-84790903D01*
X142721133Y-85150452D01*
X142995981Y-85425780D01*
X143355270Y-85574970D01*
X143744303Y-85575309D01*
X144103852Y-85426747D01*
X144379180Y-85151899D01*
X144528370Y-84792610D01*
X144528380Y-84780886D01*
X144870932Y-84639347D01*
X145146260Y-84364499D01*
X145295450Y-84005210D01*
X145295789Y-83616177D01*
X145147227Y-83256628D01*
X145081417Y-83190703D01*
X160819931Y-83190703D01*
X160968493Y-83550252D01*
X161063000Y-83644924D01*
X161063000Y-88470386D01*
X160979620Y-88553621D01*
X160830430Y-88912910D01*
X160830091Y-89301943D01*
X160978653Y-89661492D01*
X161253501Y-89936820D01*
X161612790Y-90086010D01*
X162001823Y-90086349D01*
X162361372Y-89937787D01*
X162636700Y-89662939D01*
X162785890Y-89303650D01*
X162786229Y-88914617D01*
X162637667Y-88555068D01*
X162533000Y-88450218D01*
X162533000Y-83645076D01*
X162626540Y-83551699D01*
X162775730Y-83192410D01*
X162776069Y-82803377D01*
X162627507Y-82443828D01*
X162352659Y-82168500D01*
X161993370Y-82019310D01*
X161604337Y-82018971D01*
X161244788Y-82167533D01*
X160969460Y-82442381D01*
X160820270Y-82801670D01*
X160819931Y-83190703D01*
X145081417Y-83190703D01*
X145052720Y-83161956D01*
X145052720Y-81851783D01*
X145176740Y-81727979D01*
X145325930Y-81368690D01*
X145326269Y-80979657D01*
X145177707Y-80620108D01*
X144902859Y-80344780D01*
X144543570Y-80195590D01*
X144154537Y-80195251D01*
X143896927Y-80301693D01*
X143629170Y-80190510D01*
X143240137Y-80190171D01*
X142880588Y-80338733D01*
X142605260Y-80613581D01*
X142456070Y-80972870D01*
X142455731Y-81361903D01*
X141474609Y-81361903D01*
X141260499Y-81147420D01*
X140901210Y-80998230D01*
X140512177Y-80997891D01*
X140152628Y-81146453D01*
X140070574Y-81228364D01*
X140003237Y-81273357D01*
X139958637Y-81340106D01*
X139877300Y-81421301D01*
X139830889Y-81533072D01*
X139737027Y-81305908D01*
X139627280Y-81195969D01*
X139627280Y-80701058D01*
X142177405Y-78150933D01*
X142336733Y-77912482D01*
X142338547Y-77903363D01*
X142392682Y-77631210D01*
X142392682Y-75060480D01*
X164774702Y-75060480D01*
X166459345Y-76745124D01*
X166459345Y-76745124D01*
G37*
X166459345Y-76745124D02*
X166697796Y-76904451D01*
X166979068Y-76960400D01*
X178628394Y-76960400D01*
X179164994Y-77497000D01*
X178701815Y-77497000D01*
X178481659Y-77276460D01*
X178122370Y-77127270D01*
X177733337Y-77126931D01*
X177373788Y-77275493D01*
X177098460Y-77550341D01*
X176949270Y-77909630D01*
X176948931Y-78298663D01*
X177097493Y-78658212D01*
X177372341Y-78933540D01*
X177731630Y-79082730D01*
X178120663Y-79083069D01*
X178401573Y-78967000D01*
X179310964Y-78967000D01*
X179404341Y-79060540D01*
X179763630Y-79209730D01*
X180152663Y-79210069D01*
X180512212Y-79061507D01*
X180620951Y-78952958D01*
X183107036Y-81439043D01*
X183318830Y-81580559D01*
X183345488Y-81598371D01*
X183626760Y-81654320D01*
X186986844Y-81654320D01*
X187080221Y-81747860D01*
X187439510Y-81897050D01*
X187828543Y-81897389D01*
X188188092Y-81748827D01*
X188463420Y-81473979D01*
X188505160Y-81373458D01*
X188505160Y-86111433D01*
X185475348Y-89141246D01*
X185343177Y-89141131D01*
X184983628Y-89289693D01*
X184708300Y-89564541D01*
X184559110Y-89923830D01*
X184558881Y-90186840D01*
X170291760Y-90186840D01*
X170032704Y-90238370D01*
X170010488Y-90242789D01*
X169772037Y-90402117D01*
X165433717Y-94740437D01*
X165274389Y-94978888D01*
X165218440Y-95260160D01*
X165218440Y-104104793D01*
X163708434Y-105614800D01*
X152988927Y-105614800D01*
X152520320Y-105146194D01*
X152520320Y-103276450D01*
X152657163Y-103276569D01*
X153016712Y-103128007D01*
X153200256Y-102944783D01*
X153199931Y-103317663D01*
X153348493Y-103677212D01*
X153623341Y-103952540D01*
X153982630Y-104101730D01*
X154371663Y-104102069D01*
X154731212Y-103953507D01*
X154844707Y-103840210D01*
X154956841Y-103952540D01*
X155316130Y-104101730D01*
X155705163Y-104102069D01*
X156064712Y-103953507D01*
X156340040Y-103678659D01*
X156489230Y-103319370D01*
X156489569Y-102930337D01*
X156341007Y-102570788D01*
X156246500Y-102476116D01*
X156246500Y-100101266D01*
X156594163Y-100101569D01*
X156953712Y-99953007D01*
X157229040Y-99678159D01*
X157378230Y-99318870D01*
X157378569Y-98929837D01*
X157230007Y-98570288D01*
X156955159Y-98294960D01*
X156906333Y-98274686D01*
X156793224Y-98105405D01*
X154688095Y-96000277D01*
X154449644Y-95840949D01*
X154420551Y-95835162D01*
X154168372Y-95785000D01*
X147624447Y-95785000D01*
X147483500Y-95644054D01*
X147483500Y-93929536D01*
X147577040Y-93836159D01*
X147726230Y-93476870D01*
X147726569Y-93087837D01*
X147578007Y-92728288D01*
X147303159Y-92452960D01*
X146943870Y-92303770D01*
X146785000Y-92303632D01*
X146785000Y-90691036D01*
X146878540Y-90597659D01*
X147027730Y-90238370D01*
X147027868Y-90079500D01*
X149225000Y-90079500D01*
X149506272Y-90023551D01*
X149744723Y-89864223D01*
X150760723Y-88848223D01*
X150920051Y-88609772D01*
X150926292Y-88578397D01*
X150976000Y-88328500D01*
X150976000Y-88024036D01*
X151069540Y-87930659D01*
X151218730Y-87571370D01*
X151219069Y-87182337D01*
X151070507Y-86822788D01*
X150795659Y-86547460D01*
X150436370Y-86398270D01*
X150047337Y-86397931D01*
X149687788Y-86546493D01*
X149412460Y-86821341D01*
X149263270Y-87180630D01*
X149262931Y-87569663D01*
X149411493Y-87929212D01*
X149506000Y-88023884D01*
X149506000Y-88024054D01*
X148920554Y-88609500D01*
X146481447Y-88609500D01*
X145553723Y-87681777D01*
X145315272Y-87522449D01*
X145034000Y-87466500D01*
X141224000Y-87466500D01*
X140942728Y-87522449D01*
X140704276Y-87681777D01*
X140591007Y-87795046D01*
X140458837Y-87794931D01*
X140099288Y-87943493D01*
X139855880Y-88186477D01*
X139855880Y-85088400D01*
X140456920Y-85088400D01*
X140738192Y-85032451D01*
X140976643Y-84873123D01*
X141225563Y-84624204D01*
X141384891Y-84385752D01*
X141387616Y-84372051D01*
X141440840Y-84104480D01*
X141440840Y-82623996D01*
X141534380Y-82530619D01*
X141683570Y-82171330D01*
X141683909Y-81782297D01*
X141535347Y-81422748D01*
X141474609Y-81361903D01*
X142455731Y-81361903D01*
X142604293Y-81721452D01*
X142815640Y-81933168D01*
X142815640Y-83949204D01*
X142722100Y-84042581D01*
X142572910Y-84401870D01*
X142572571Y-84790903D01*
X142721133Y-85150452D01*
X142995981Y-85425780D01*
X143355270Y-85574970D01*
X143744303Y-85575309D01*
X144103852Y-85426747D01*
X144379180Y-85151899D01*
X144528370Y-84792610D01*
X144528380Y-84780886D01*
X144870932Y-84639347D01*
X145146260Y-84364499D01*
X145295450Y-84005210D01*
X145295789Y-83616177D01*
X145147227Y-83256628D01*
X145081417Y-83190703D01*
X160819931Y-83190703D01*
X160968493Y-83550252D01*
X161063000Y-83644924D01*
X161063000Y-88470386D01*
X160979620Y-88553621D01*
X160830430Y-88912910D01*
X160830091Y-89301943D01*
X160978653Y-89661492D01*
X161253501Y-89936820D01*
X161612790Y-90086010D01*
X162001823Y-90086349D01*
X162361372Y-89937787D01*
X162636700Y-89662939D01*
X162785890Y-89303650D01*
X162786229Y-88914617D01*
X162637667Y-88555068D01*
X162533000Y-88450218D01*
X162533000Y-83645076D01*
X162626540Y-83551699D01*
X162775730Y-83192410D01*
X162776069Y-82803377D01*
X162627507Y-82443828D01*
X162352659Y-82168500D01*
X161993370Y-82019310D01*
X161604337Y-82018971D01*
X161244788Y-82167533D01*
X160969460Y-82442381D01*
X160820270Y-82801670D01*
X160819931Y-83190703D01*
X145081417Y-83190703D01*
X145052720Y-83161956D01*
X145052720Y-81851783D01*
X145176740Y-81727979D01*
X145325930Y-81368690D01*
X145326269Y-80979657D01*
X145177707Y-80620108D01*
X144902859Y-80344780D01*
X144543570Y-80195590D01*
X144154537Y-80195251D01*
X143896927Y-80301693D01*
X143629170Y-80190510D01*
X143240137Y-80190171D01*
X142880588Y-80338733D01*
X142605260Y-80613581D01*
X142456070Y-80972870D01*
X142455731Y-81361903D01*
X141474609Y-81361903D01*
X141260499Y-81147420D01*
X140901210Y-80998230D01*
X140512177Y-80997891D01*
X140152628Y-81146453D01*
X140070574Y-81228364D01*
X140003237Y-81273357D01*
X139958637Y-81340106D01*
X139877300Y-81421301D01*
X139830889Y-81533072D01*
X139737027Y-81305908D01*
X139627280Y-81195969D01*
X139627280Y-80701058D01*
X142177405Y-78150933D01*
X142336733Y-77912482D01*
X142338547Y-77903363D01*
X142392682Y-77631210D01*
X142392682Y-75060480D01*
X164774702Y-75060480D01*
X166459345Y-76745124D01*
G36*
X140097841Y-90490540D02*
X140457130Y-90639730D01*
X140846163Y-90640069D01*
X141205712Y-90491507D01*
X141300384Y-90397000D01*
X142697554Y-90397000D01*
X143612156Y-91311602D01*
X143464788Y-91372493D01*
X143189460Y-91647341D01*
X143040270Y-92006630D01*
X143039931Y-92395663D01*
X143188493Y-92755212D01*
X143463341Y-93030540D01*
X143822630Y-93179730D01*
X144172000Y-93180034D01*
X144172000Y-96329500D01*
X144222735Y-96584560D01*
X144227949Y-96610772D01*
X144387277Y-96849223D01*
X145075654Y-97537600D01*
X140172086Y-97537600D01*
X139788989Y-97154503D01*
X139789069Y-97062937D01*
X139640507Y-96703388D01*
X139365659Y-96428060D01*
X139006370Y-96278870D01*
X138617337Y-96278531D01*
X138412317Y-96363243D01*
X138117370Y-96240770D01*
X137728337Y-96240431D01*
X137368788Y-96388993D01*
X137093460Y-96663841D01*
X136944270Y-97023130D01*
X136943931Y-97412163D01*
X137092493Y-97771712D01*
X137187000Y-97866384D01*
X137187000Y-98003360D01*
X137229627Y-98217659D01*
X137242949Y-98284632D01*
X137402277Y-98523083D01*
X138032196Y-99153003D01*
X138101091Y-99199037D01*
X140413110Y-101511057D01*
X140268337Y-101510931D01*
X139908788Y-101659493D01*
X139814116Y-101754000D01*
X139626173Y-101754000D01*
X139661730Y-101668370D01*
X139662069Y-101279337D01*
X139513507Y-100919788D01*
X139238659Y-100644460D01*
X139027035Y-100556586D01*
X139027069Y-100517337D01*
X138878507Y-100157788D01*
X138603659Y-99882460D01*
X138244370Y-99733270D01*
X137855337Y-99732931D01*
X137829574Y-99743576D01*
X137714659Y-99628460D01*
X137355370Y-99479270D01*
X137172197Y-99479110D01*
X137164007Y-99459288D01*
X136889159Y-99183960D01*
X136633809Y-99077929D01*
X136529007Y-98824288D01*
X136254159Y-98548960D01*
X135894870Y-98399770D01*
X135505837Y-98399431D01*
X135146288Y-98547993D01*
X134870960Y-98822841D01*
X134721770Y-99182130D01*
X134721648Y-99322675D01*
X134642930Y-99440484D01*
X134454954Y-99252507D01*
X134455069Y-99120337D01*
X134306507Y-98760788D01*
X134031659Y-98485460D01*
X133688965Y-98343161D01*
X136333524Y-95698603D01*
X136492851Y-95460152D01*
X136514915Y-95349229D01*
X136548800Y-95178880D01*
X136548800Y-95106160D01*
X138074400Y-95106160D01*
X138355672Y-95050211D01*
X138594123Y-94890883D01*
X139640603Y-93844404D01*
X139640605Y-93844401D01*
X139650763Y-93834244D01*
X139810091Y-93595793D01*
X139866039Y-93314520D01*
X139855880Y-93263447D01*
X139855880Y-90248156D01*
X140097841Y-90490540D01*
X140097841Y-90490540D01*
G37*
X140097841Y-90490540D02*
X140457130Y-90639730D01*
X140846163Y-90640069D01*
X141205712Y-90491507D01*
X141300384Y-90397000D01*
X142697554Y-90397000D01*
X143612156Y-91311602D01*
X143464788Y-91372493D01*
X143189460Y-91647341D01*
X143040270Y-92006630D01*
X143039931Y-92395663D01*
X143188493Y-92755212D01*
X143463341Y-93030540D01*
X143822630Y-93179730D01*
X144172000Y-93180034D01*
X144172000Y-96329500D01*
X144222735Y-96584560D01*
X144227949Y-96610772D01*
X144387277Y-96849223D01*
X145075654Y-97537600D01*
X140172086Y-97537600D01*
X139788989Y-97154503D01*
X139789069Y-97062937D01*
X139640507Y-96703388D01*
X139365659Y-96428060D01*
X139006370Y-96278870D01*
X138617337Y-96278531D01*
X138412317Y-96363243D01*
X138117370Y-96240770D01*
X137728337Y-96240431D01*
X137368788Y-96388993D01*
X137093460Y-96663841D01*
X136944270Y-97023130D01*
X136943931Y-97412163D01*
X137092493Y-97771712D01*
X137187000Y-97866384D01*
X137187000Y-98003360D01*
X137229627Y-98217659D01*
X137242949Y-98284632D01*
X137402277Y-98523083D01*
X138032196Y-99153003D01*
X138101091Y-99199037D01*
X140413110Y-101511057D01*
X140268337Y-101510931D01*
X139908788Y-101659493D01*
X139814116Y-101754000D01*
X139626173Y-101754000D01*
X139661730Y-101668370D01*
X139662069Y-101279337D01*
X139513507Y-100919788D01*
X139238659Y-100644460D01*
X139027035Y-100556586D01*
X139027069Y-100517337D01*
X138878507Y-100157788D01*
X138603659Y-99882460D01*
X138244370Y-99733270D01*
X137855337Y-99732931D01*
X137829574Y-99743576D01*
X137714659Y-99628460D01*
X137355370Y-99479270D01*
X137172197Y-99479110D01*
X137164007Y-99459288D01*
X136889159Y-99183960D01*
X136633809Y-99077929D01*
X136529007Y-98824288D01*
X136254159Y-98548960D01*
X135894870Y-98399770D01*
X135505837Y-98399431D01*
X135146288Y-98547993D01*
X134870960Y-98822841D01*
X134721770Y-99182130D01*
X134721648Y-99322675D01*
X134642930Y-99440484D01*
X134454954Y-99252507D01*
X134455069Y-99120337D01*
X134306507Y-98760788D01*
X134031659Y-98485460D01*
X133688965Y-98343161D01*
X136333524Y-95698603D01*
X136492851Y-95460152D01*
X136514915Y-95349229D01*
X136548800Y-95178880D01*
X136548800Y-95106160D01*
X138074400Y-95106160D01*
X138355672Y-95050211D01*
X138594123Y-94890883D01*
X139640603Y-93844404D01*
X139640605Y-93844401D01*
X139650763Y-93834244D01*
X139810091Y-93595793D01*
X139866039Y-93314520D01*
X139855880Y-93263447D01*
X139855880Y-90248156D01*
X140097841Y-90490540D01*
G36*
X132622093Y-79882492D02*
X132896941Y-80157820D01*
X133256230Y-80307010D01*
X133351600Y-80307093D01*
X133351600Y-80961201D01*
X133050788Y-81085493D01*
X132849470Y-81286460D01*
X132604179Y-81040740D01*
X132244890Y-80891550D01*
X131855857Y-80891211D01*
X131496308Y-81039773D01*
X131376192Y-81159680D01*
X128391920Y-81159680D01*
X128110648Y-81215629D01*
X127872197Y-81374956D01*
X126832714Y-82414440D01*
X125743036Y-82414440D01*
X125649659Y-82320900D01*
X125290370Y-82171710D01*
X124901337Y-82171371D01*
X124541788Y-82319933D01*
X124266460Y-82594781D01*
X124117270Y-82954070D01*
X124116931Y-83343103D01*
X124265493Y-83702652D01*
X124536368Y-83974000D01*
X112518446Y-83974000D01*
X115073724Y-81418723D01*
X115073726Y-81418720D01*
X116382447Y-80110000D01*
X123921520Y-80110000D01*
X123941840Y-80105958D01*
X123962160Y-80110000D01*
X123962514Y-80110000D01*
X124609806Y-80757293D01*
X124609691Y-80889463D01*
X124758253Y-81249012D01*
X125033101Y-81524340D01*
X125392390Y-81673530D01*
X125781423Y-81673869D01*
X126140972Y-81525307D01*
X126416300Y-81250459D01*
X126565490Y-80891170D01*
X126565829Y-80502137D01*
X126417267Y-80142588D01*
X126142419Y-79867260D01*
X125809452Y-79729000D01*
X132558672Y-79729000D01*
X132622093Y-79882492D01*
X132622093Y-79882492D01*
G37*
X132622093Y-79882492D02*
X132896941Y-80157820D01*
X133256230Y-80307010D01*
X133351600Y-80307093D01*
X133351600Y-80961201D01*
X133050788Y-81085493D01*
X132849470Y-81286460D01*
X132604179Y-81040740D01*
X132244890Y-80891550D01*
X131855857Y-80891211D01*
X131496308Y-81039773D01*
X131376192Y-81159680D01*
X128391920Y-81159680D01*
X128110648Y-81215629D01*
X127872197Y-81374956D01*
X126832714Y-82414440D01*
X125743036Y-82414440D01*
X125649659Y-82320900D01*
X125290370Y-82171710D01*
X124901337Y-82171371D01*
X124541788Y-82319933D01*
X124266460Y-82594781D01*
X124117270Y-82954070D01*
X124116931Y-83343103D01*
X124265493Y-83702652D01*
X124536368Y-83974000D01*
X112518446Y-83974000D01*
X115073724Y-81418723D01*
X115073726Y-81418720D01*
X116382447Y-80110000D01*
X123921520Y-80110000D01*
X123941840Y-80105958D01*
X123962160Y-80110000D01*
X123962514Y-80110000D01*
X124609806Y-80757293D01*
X124609691Y-80889463D01*
X124758253Y-81249012D01*
X125033101Y-81524340D01*
X125392390Y-81673530D01*
X125781423Y-81673869D01*
X126140972Y-81525307D01*
X126416300Y-81250459D01*
X126565490Y-80891170D01*
X126565829Y-80502137D01*
X126417267Y-80142588D01*
X126142419Y-79867260D01*
X125809452Y-79729000D01*
X132558672Y-79729000D01*
X132622093Y-79882492D01*
G36*
X111479033Y-82934520D02*
X111256870Y-82842270D01*
X110867837Y-82841931D01*
X110508288Y-82990493D01*
X110232960Y-83265341D01*
X110083770Y-83624630D01*
X110083734Y-83665539D01*
X109873288Y-83752493D01*
X109764820Y-83860772D01*
X109605870Y-83794770D01*
X109442186Y-83794627D01*
X109442186Y-82672186D01*
X109386237Y-82390914D01*
X109363133Y-82356337D01*
X109226909Y-82152462D01*
X109205334Y-82130887D01*
X109413663Y-82131069D01*
X109773212Y-81982507D01*
X110048540Y-81707659D01*
X110136414Y-81496035D01*
X110175663Y-81496069D01*
X110490330Y-81366052D01*
X110802630Y-81495730D01*
X111191663Y-81496069D01*
X111551212Y-81347507D01*
X111577448Y-81321317D01*
X111691630Y-81368730D01*
X112080663Y-81369069D01*
X112440212Y-81220507D01*
X112466448Y-81194317D01*
X112580630Y-81241730D01*
X112969663Y-81242069D01*
X113313592Y-81099961D01*
X111479033Y-82934520D01*
X111479033Y-82934520D01*
G37*
X111479033Y-82934520D02*
X111256870Y-82842270D01*
X110867837Y-82841931D01*
X110508288Y-82990493D01*
X110232960Y-83265341D01*
X110083770Y-83624630D01*
X110083734Y-83665539D01*
X109873288Y-83752493D01*
X109764820Y-83860772D01*
X109605870Y-83794770D01*
X109442186Y-83794627D01*
X109442186Y-82672186D01*
X109386237Y-82390914D01*
X109363133Y-82356337D01*
X109226909Y-82152462D01*
X109205334Y-82130887D01*
X109413663Y-82131069D01*
X109773212Y-81982507D01*
X110048540Y-81707659D01*
X110136414Y-81496035D01*
X110175663Y-81496069D01*
X110490330Y-81366052D01*
X110802630Y-81495730D01*
X111191663Y-81496069D01*
X111551212Y-81347507D01*
X111577448Y-81321317D01*
X111691630Y-81368730D01*
X112080663Y-81369069D01*
X112440212Y-81220507D01*
X112466448Y-81194317D01*
X112580630Y-81241730D01*
X112969663Y-81242069D01*
X113313592Y-81099961D01*
X111479033Y-82934520D01*
G36*
X99394341Y-73091540D02*
X99753630Y-73240730D01*
X99860022Y-73240823D01*
X99859931Y-73345663D01*
X100008493Y-73705212D01*
X100283341Y-73980540D01*
X100642630Y-74129730D01*
X101031663Y-74130069D01*
X101391212Y-73981507D01*
X101485884Y-73887000D01*
X110654118Y-73887000D01*
X110444788Y-73973493D01*
X110169460Y-74248341D01*
X110020270Y-74607630D01*
X110019931Y-74996663D01*
X110168493Y-75356212D01*
X110263000Y-75450884D01*
X110263000Y-78396118D01*
X110176507Y-78186788D01*
X109901659Y-77911460D01*
X109542370Y-77762270D01*
X109153337Y-77761931D01*
X108872427Y-77878000D01*
X93358036Y-77878000D01*
X93264659Y-77784460D01*
X93151904Y-77737640D01*
X99359720Y-77737640D01*
X99640992Y-77681691D01*
X99879443Y-77522363D01*
X100056212Y-77345594D01*
X100188383Y-77345709D01*
X100547932Y-77197147D01*
X100823260Y-76922299D01*
X100972450Y-76563010D01*
X100972569Y-76427000D01*
X104888964Y-76427000D01*
X104982341Y-76520540D01*
X105341630Y-76669730D01*
X105730663Y-76670069D01*
X106090212Y-76521507D01*
X106365540Y-76246659D01*
X106508925Y-75901350D01*
X106852212Y-75759507D01*
X107127540Y-75484659D01*
X107276730Y-75125370D01*
X107277069Y-74736337D01*
X107128507Y-74376788D01*
X106853659Y-74101460D01*
X106494370Y-73952270D01*
X106105337Y-73951931D01*
X105745788Y-74100493D01*
X105651116Y-74195000D01*
X95021266Y-74195000D01*
X95021291Y-74166156D01*
X95134723Y-74052724D01*
X95294051Y-73814273D01*
X95312736Y-73720337D01*
X95350000Y-73533000D01*
X95350000Y-72998000D01*
X99300964Y-72998000D01*
X99394341Y-73091540D01*
X99394341Y-73091540D01*
G37*
X99394341Y-73091540D02*
X99753630Y-73240730D01*
X99860022Y-73240823D01*
X99859931Y-73345663D01*
X100008493Y-73705212D01*
X100283341Y-73980540D01*
X100642630Y-74129730D01*
X101031663Y-74130069D01*
X101391212Y-73981507D01*
X101485884Y-73887000D01*
X110654118Y-73887000D01*
X110444788Y-73973493D01*
X110169460Y-74248341D01*
X110020270Y-74607630D01*
X110019931Y-74996663D01*
X110168493Y-75356212D01*
X110263000Y-75450884D01*
X110263000Y-78396118D01*
X110176507Y-78186788D01*
X109901659Y-77911460D01*
X109542370Y-77762270D01*
X109153337Y-77761931D01*
X108872427Y-77878000D01*
X93358036Y-77878000D01*
X93264659Y-77784460D01*
X93151904Y-77737640D01*
X99359720Y-77737640D01*
X99640992Y-77681691D01*
X99879443Y-77522363D01*
X100056212Y-77345594D01*
X100188383Y-77345709D01*
X100547932Y-77197147D01*
X100823260Y-76922299D01*
X100972450Y-76563010D01*
X100972569Y-76427000D01*
X104888964Y-76427000D01*
X104982341Y-76520540D01*
X105341630Y-76669730D01*
X105730663Y-76670069D01*
X106090212Y-76521507D01*
X106365540Y-76246659D01*
X106508925Y-75901350D01*
X106852212Y-75759507D01*
X107127540Y-75484659D01*
X107276730Y-75125370D01*
X107277069Y-74736337D01*
X107128507Y-74376788D01*
X106853659Y-74101460D01*
X106494370Y-73952270D01*
X106105337Y-73951931D01*
X105745788Y-74100493D01*
X105651116Y-74195000D01*
X95021266Y-74195000D01*
X95021291Y-74166156D01*
X95134723Y-74052724D01*
X95294051Y-73814273D01*
X95312736Y-73720337D01*
X95350000Y-73533000D01*
X95350000Y-72998000D01*
X99300964Y-72998000D01*
X99394341Y-73091540D01*
G36*
X137220021Y-76693260D02*
X137579310Y-76842450D01*
X137968343Y-76842789D01*
X138156058Y-76765227D01*
X138264917Y-76810429D01*
X138264847Y-76890598D01*
X137623630Y-76890598D01*
X137362447Y-76942551D01*
X137342358Y-76946547D01*
X137103906Y-77105875D01*
X136313804Y-77895978D01*
X136313804Y-76766515D01*
X136398623Y-76766589D01*
X136758172Y-76618027D01*
X136951883Y-76424654D01*
X137220021Y-76693260D01*
X137220021Y-76693260D01*
G37*
X137220021Y-76693260D02*
X137579310Y-76842450D01*
X137968343Y-76842789D01*
X138156058Y-76765227D01*
X138264917Y-76810429D01*
X138264847Y-76890598D01*
X137623630Y-76890598D01*
X137362447Y-76942551D01*
X137342358Y-76946547D01*
X137103906Y-77105875D01*
X136313804Y-77895978D01*
X136313804Y-76766515D01*
X136398623Y-76766589D01*
X136758172Y-76618027D01*
X136951883Y-76424654D01*
X137220021Y-76693260D01*
G36*
X137187000Y-75069621D02*
X137027757Y-75228586D01*
X137000920Y-75201702D01*
X137000920Y-72668918D01*
X137187000Y-72592032D01*
X137187000Y-75069621D01*
X137187000Y-75069621D01*
G37*
X137187000Y-75069621D02*
X137027757Y-75228586D01*
X137000920Y-75201702D01*
X137000920Y-72668918D01*
X137187000Y-72592032D01*
X137187000Y-75069621D01*
M02*
