G04 #@! TF.FileFunction,Soldermask,Top*
%FSLAX46Y46*%
G04 Gerber Fmt 4.6, Leading zero omitted, Abs format (unit mm)*
G04 Created by KiCad (PCBNEW 4.0.6) date Saturday, December 30, 2017 'PMt' 03:14:37 PM*
%MOMM*%
%LPD*%
G01*
G04 APERTURE LIST*
%ADD10C,0.100000*%
%ADD11R,5.500000X1.000000*%
%ADD12R,3.000000X1.600000*%
%ADD13R,0.800000X0.750000*%
%ADD14R,0.750000X0.800000*%
%ADD15R,2.600000X1.600000*%
%ADD16R,1.600000X2.600000*%
%ADD17R,0.900000X1.200000*%
%ADD18R,0.500000X2.300000*%
%ADD19R,2.000000X2.500000*%
%ADD20C,0.900000*%
%ADD21R,0.900000X0.500000*%
%ADD22R,0.500000X0.900000*%
%ADD23R,0.800000X0.900000*%
%ADD24R,0.900000X0.800000*%
%ADD25R,1.700000X1.700000*%
%ADD26R,1.000000X2.550000*%
%ADD27R,0.650000X1.060000*%
%ADD28R,1.000000X0.200000*%
%ADD29R,0.200000X1.000000*%
%ADD30R,1.060000X0.650000*%
%ADD31R,1.100000X0.250000*%
%ADD32R,1.200000X0.600000*%
%ADD33O,2.200000X4.000000*%
%ADD34O,4.000000X2.200000*%
%ADD35R,1.500000X1.000000*%
%ADD36R,2.200000X1.200000*%
%ADD37C,1.500000*%
%ADD38R,4.500000X2.000000*%
%ADD39R,1.750000X4.500000*%
%ADD40R,0.500000X1.100000*%
%ADD41R,0.900000X2.500000*%
G04 APERTURE END LIST*
D10*
D11*
X202646500Y-67580000D03*
X202646500Y-69580000D03*
D12*
X204896500Y-65180000D03*
X204896500Y-71980000D03*
D13*
X204164500Y-81026000D03*
X205664500Y-81026000D03*
D14*
X122809000Y-87896000D03*
X122809000Y-89396000D03*
X121285000Y-87896000D03*
X121285000Y-89396000D03*
X122847100Y-82753900D03*
X122847100Y-81253900D03*
D15*
X116881500Y-73596500D03*
X120481500Y-73596500D03*
X127847500Y-73596500D03*
X124247500Y-73596500D03*
D14*
X121373900Y-77189900D03*
X121373900Y-78689900D03*
D13*
X122987500Y-67754500D03*
X121487500Y-67754500D03*
X166509000Y-78676500D03*
X168009000Y-78676500D03*
D14*
X125666500Y-65520000D03*
X125666500Y-64020000D03*
D13*
X203783500Y-87122000D03*
X205283500Y-87122000D03*
X163207000Y-80327500D03*
X164707000Y-80327500D03*
X134798500Y-63690500D03*
X133298500Y-63690500D03*
X143839500Y-63817500D03*
X145339500Y-63817500D03*
X134036500Y-101663500D03*
X132536500Y-101663500D03*
X135179500Y-73088500D03*
X133679500Y-73088500D03*
X137084500Y-101663500D03*
X135584500Y-101663500D03*
X133679500Y-74866500D03*
X135179500Y-74866500D03*
X138100500Y-74866500D03*
X136600500Y-74866500D03*
D16*
X189039500Y-82699000D03*
X189039500Y-79099000D03*
D14*
X184975500Y-82474500D03*
X184975500Y-80974500D03*
X183197500Y-82474500D03*
X183197500Y-80974500D03*
D15*
X150219000Y-73533000D03*
X153819000Y-73533000D03*
X150219000Y-68326000D03*
X153819000Y-68326000D03*
D13*
X173494000Y-78105000D03*
X174994000Y-78105000D03*
D14*
X146367500Y-88189500D03*
X146367500Y-86689500D03*
X149161500Y-86689500D03*
X149161500Y-88189500D03*
D13*
X188710000Y-89916000D03*
X187210000Y-89916000D03*
D14*
X147764500Y-88189500D03*
X147764500Y-86689500D03*
D16*
X152717500Y-87334500D03*
X152717500Y-83734500D03*
X173101000Y-87842500D03*
X173101000Y-84242500D03*
X152717500Y-90973500D03*
X152717500Y-94573500D03*
D13*
X174867000Y-81661000D03*
X173367000Y-81661000D03*
D14*
X149161500Y-92253500D03*
X149161500Y-90753500D03*
D16*
X157924500Y-90973500D03*
X157924500Y-94573500D03*
D14*
X147637500Y-92253500D03*
X147637500Y-90753500D03*
X108966000Y-95238000D03*
X108966000Y-93738000D03*
D13*
X92253500Y-86677500D03*
X90753500Y-86677500D03*
X156222000Y-100266500D03*
X157722000Y-100266500D03*
X156222000Y-101917500D03*
X157722000Y-101917500D03*
D14*
X85217000Y-94119000D03*
X85217000Y-95619000D03*
X104648000Y-74029000D03*
X104648000Y-72529000D03*
X74041000Y-69457000D03*
X74041000Y-67957000D03*
D13*
X77966000Y-80645000D03*
X76466000Y-80645000D03*
D16*
X170053000Y-113242500D03*
X170053000Y-109642500D03*
D13*
X77966000Y-77724000D03*
X76466000Y-77724000D03*
X77974733Y-79092400D03*
X76474733Y-79092400D03*
D17*
X181037500Y-73025000D03*
X177737500Y-73025000D03*
X201613500Y-76962000D03*
X204913500Y-76962000D03*
D18*
X167462000Y-70554500D03*
X166662000Y-70554500D03*
X165862000Y-70554500D03*
X165062000Y-70554500D03*
X164262000Y-70554500D03*
D19*
X170312000Y-70454500D03*
X170312000Y-64954500D03*
X161412000Y-70454500D03*
X161412000Y-64954500D03*
D20*
X168062000Y-67954500D03*
X163662000Y-67954500D03*
D21*
X167894000Y-76505500D03*
X167894000Y-75005500D03*
D22*
X173367000Y-79946500D03*
X174867000Y-79946500D03*
D21*
X154178000Y-105588500D03*
X154178000Y-104088500D03*
X155956000Y-105588500D03*
X155956000Y-104088500D03*
X152463500Y-105588500D03*
X152463500Y-104088500D03*
X157670500Y-105588500D03*
X157670500Y-104088500D03*
X159385000Y-105652000D03*
X159385000Y-104152000D03*
D23*
X121224000Y-66024000D03*
X123124000Y-66024000D03*
X122174000Y-64024000D03*
X193423500Y-74914000D03*
X195323500Y-74914000D03*
X194373500Y-72914000D03*
X185422500Y-74787000D03*
X187322500Y-74787000D03*
X186372500Y-72787000D03*
X195323500Y-77105000D03*
X193423500Y-77105000D03*
X194373500Y-79105000D03*
X143761500Y-105616500D03*
X141861500Y-105616500D03*
X142811500Y-107616500D03*
X139951500Y-105616500D03*
X138051500Y-105616500D03*
X139001500Y-107616500D03*
D24*
X75835000Y-65725000D03*
X75835000Y-67625000D03*
X77835000Y-66675000D03*
D22*
X201370500Y-81026000D03*
X202870500Y-81026000D03*
D21*
X121323100Y-82753900D03*
X121323100Y-81253900D03*
D22*
X125781500Y-67754500D03*
X124281500Y-67754500D03*
X168136000Y-80327500D03*
X166636000Y-80327500D03*
X164834000Y-78676500D03*
X163334000Y-78676500D03*
D21*
X189420500Y-72783000D03*
X189420500Y-74283000D03*
D22*
X141553500Y-103695500D03*
X143053500Y-103695500D03*
X197306500Y-76962000D03*
X198806500Y-76962000D03*
X197306500Y-80772000D03*
X198806500Y-80772000D03*
D21*
X149161500Y-93547500D03*
X149161500Y-95047500D03*
D22*
X194131500Y-80772000D03*
X195631500Y-80772000D03*
X153491500Y-100266500D03*
X154991500Y-100266500D03*
X153491500Y-101917500D03*
X154991500Y-101917500D03*
X173748000Y-121983500D03*
X175248000Y-121983500D03*
X173748000Y-120078500D03*
X175248000Y-120078500D03*
X173748000Y-115125500D03*
X175248000Y-115125500D03*
X173748000Y-107632500D03*
X175248000Y-107632500D03*
X173748000Y-102552500D03*
X175248000Y-102552500D03*
X132409500Y-103314500D03*
X133909500Y-103314500D03*
X77585000Y-63881000D03*
X76085000Y-63881000D03*
X77458000Y-69342000D03*
X75958000Y-69342000D03*
D25*
X185028500Y-65106000D03*
X194828500Y-65106000D03*
D26*
X187928500Y-68581000D03*
X189928500Y-68581000D03*
X191928500Y-68581000D03*
D27*
X202567500Y-85301000D03*
X203517500Y-85301000D03*
X204467500Y-85301000D03*
X204467500Y-83101000D03*
X202567500Y-83101000D03*
D28*
X126754900Y-82077700D03*
X126754900Y-82477700D03*
X126754900Y-82877700D03*
X126754900Y-83277700D03*
X126754900Y-83677700D03*
X126754900Y-84077700D03*
X126754900Y-84477700D03*
X126754900Y-84877700D03*
X126754900Y-85277700D03*
X126754900Y-85677700D03*
X126754900Y-86077700D03*
X126754900Y-86477700D03*
X126754900Y-86877700D03*
X126754900Y-87277700D03*
X126754900Y-87677700D03*
X126754900Y-88077700D03*
X126754900Y-88477700D03*
X126754900Y-88877700D03*
X126754900Y-89277700D03*
X126754900Y-89677700D03*
X126754900Y-90077700D03*
X126754900Y-90477700D03*
X126754900Y-90877700D03*
X126754900Y-91277700D03*
X126754900Y-91677700D03*
X126754900Y-92077700D03*
X126754900Y-92477700D03*
X126754900Y-92877700D03*
X126754900Y-93277700D03*
X126754900Y-93677700D03*
X126754900Y-94077700D03*
X126754900Y-94477700D03*
D29*
X128254900Y-95977700D03*
X128654900Y-95977700D03*
X129054900Y-95977700D03*
X129454900Y-95977700D03*
X129854900Y-95977700D03*
X130254900Y-95977700D03*
X130654900Y-95977700D03*
X131054900Y-95977700D03*
X131454900Y-95977700D03*
X131854900Y-95977700D03*
X132254900Y-95977700D03*
X132654900Y-95977700D03*
X133054900Y-95977700D03*
X133454900Y-95977700D03*
X133854900Y-95977700D03*
X134254900Y-95977700D03*
X134654900Y-95977700D03*
X135054900Y-95977700D03*
X135454900Y-95977700D03*
X135854900Y-95977700D03*
X136254900Y-95977700D03*
X136654900Y-95977700D03*
X137054900Y-95977700D03*
X137454900Y-95977700D03*
X137854900Y-95977700D03*
X138254900Y-95977700D03*
X138654900Y-95977700D03*
X139054900Y-95977700D03*
X139454900Y-95977700D03*
X139854900Y-95977700D03*
X140254900Y-95977700D03*
X140654900Y-95977700D03*
D28*
X142154900Y-94477700D03*
X142154900Y-94077700D03*
X142154900Y-93677700D03*
X142154900Y-93277700D03*
X142154900Y-92877700D03*
X142154900Y-92477700D03*
X142154900Y-92077700D03*
X142154900Y-91677700D03*
X142154900Y-91277700D03*
X142154900Y-90877700D03*
X142154900Y-90477700D03*
X142154900Y-90077700D03*
X142154900Y-89677700D03*
X142154900Y-89277700D03*
X142154900Y-88877700D03*
X142154900Y-88477700D03*
X142154900Y-88077700D03*
X142154900Y-87677700D03*
X142154900Y-87277700D03*
X142154900Y-86877700D03*
X142154900Y-86477700D03*
X142154900Y-86077700D03*
X142154900Y-85677700D03*
X142154900Y-85277700D03*
X142154900Y-84877700D03*
X142154900Y-84477700D03*
X142154900Y-84077700D03*
X142154900Y-83677700D03*
X142154900Y-83277700D03*
X142154900Y-82877700D03*
X142154900Y-82477700D03*
X142154900Y-82077700D03*
D29*
X140654900Y-80577700D03*
X140254900Y-80577700D03*
X139854900Y-80577700D03*
X139454900Y-80577700D03*
X139054900Y-80577700D03*
X138654900Y-80577700D03*
X138254900Y-80577700D03*
X137854900Y-80577700D03*
X137454900Y-80577700D03*
X137054900Y-80577700D03*
X136654900Y-80577700D03*
X136254900Y-80577700D03*
X135854900Y-80577700D03*
X135454900Y-80577700D03*
X135054900Y-80577700D03*
X134654900Y-80577700D03*
X134254900Y-80577700D03*
X133854900Y-80577700D03*
X133454900Y-80577700D03*
X133054900Y-80577700D03*
X132654900Y-80577700D03*
X132254900Y-80577700D03*
X131854900Y-80577700D03*
X131454900Y-80577700D03*
X131054900Y-80577700D03*
X130654900Y-80577700D03*
X130254900Y-80577700D03*
X129854900Y-80577700D03*
X129454900Y-80577700D03*
X129054900Y-80577700D03*
X128654900Y-80577700D03*
X128254900Y-80577700D03*
D30*
X178732000Y-79377500D03*
X178732000Y-80327500D03*
X178732000Y-81277500D03*
X180932000Y-81277500D03*
X180932000Y-79377500D03*
D23*
X186946500Y-88058500D03*
X188846500Y-88058500D03*
X187896500Y-86058500D03*
D31*
X106651000Y-100238000D03*
X87151000Y-88738000D03*
X106651000Y-99738000D03*
X106651000Y-99238000D03*
X106651000Y-98738000D03*
X106651000Y-98238000D03*
X106651000Y-97738000D03*
X106651000Y-97238000D03*
X106651000Y-96738000D03*
X106651000Y-96238000D03*
X106651000Y-95738000D03*
X106651000Y-95238000D03*
X106651000Y-94738000D03*
X106651000Y-94238000D03*
X106651000Y-93738000D03*
X106651000Y-93238000D03*
X106651000Y-92738000D03*
X106651000Y-92238000D03*
X106651000Y-91738000D03*
X106651000Y-91238000D03*
X106651000Y-90738000D03*
X106651000Y-90238000D03*
X106651000Y-89738000D03*
X106651000Y-89238000D03*
X106651000Y-88738000D03*
X87151000Y-89238000D03*
X87151000Y-89738000D03*
X87151000Y-90238000D03*
X87151000Y-90738000D03*
X87151000Y-91238000D03*
X87151000Y-91738000D03*
X87151000Y-92238000D03*
X87151000Y-92738000D03*
X87151000Y-93238000D03*
X87151000Y-93738000D03*
X87151000Y-94238000D03*
X87151000Y-94738000D03*
X87151000Y-95238000D03*
X87151000Y-95738000D03*
X87151000Y-96238000D03*
X87151000Y-96738000D03*
X87151000Y-97238000D03*
X87151000Y-97738000D03*
X87151000Y-98238000D03*
X87151000Y-98738000D03*
X87151000Y-99238000D03*
X87151000Y-99738000D03*
X87151000Y-100238000D03*
D32*
X90987500Y-63641000D03*
X90987500Y-64441000D03*
X90987500Y-65241000D03*
X90987500Y-66041000D03*
X90987500Y-66841000D03*
X90987500Y-67641000D03*
X90987500Y-68441000D03*
X90987500Y-69241000D03*
X90987500Y-70041000D03*
X90987500Y-70841000D03*
X90987500Y-71641000D03*
X90987500Y-72441000D03*
X90987500Y-73241000D03*
X90987500Y-74041000D03*
X90987500Y-74841000D03*
X90987500Y-75641000D03*
X90987500Y-76441000D03*
X90987500Y-77241000D03*
X90987500Y-78041000D03*
X90987500Y-78841000D03*
X90987500Y-79641000D03*
X90987500Y-80441000D03*
X90987500Y-81241000D03*
X90987500Y-82041000D03*
X90987500Y-82841000D03*
X90987500Y-83641000D03*
X90987500Y-84441000D03*
X102687500Y-84441000D03*
X102687500Y-83641000D03*
X102687500Y-82841000D03*
X102687500Y-82041000D03*
X102687500Y-81241000D03*
X102687500Y-80441000D03*
X102687500Y-79641000D03*
X102687500Y-78841000D03*
X102687500Y-78041000D03*
X102687500Y-77241000D03*
X102687500Y-76441000D03*
X102687500Y-75641000D03*
X102687500Y-74841000D03*
X102687500Y-74041000D03*
X102687500Y-73241000D03*
X102687500Y-72441000D03*
X102687500Y-71641000D03*
X102687500Y-70841000D03*
X102687500Y-70041000D03*
X102687500Y-69241000D03*
X102687500Y-68441000D03*
X102687500Y-67641000D03*
X102687500Y-66841000D03*
X102687500Y-66041000D03*
X102687500Y-65241000D03*
X102687500Y-64441000D03*
X102687500Y-63641000D03*
D33*
X160718500Y-117094000D03*
D34*
X160218500Y-109794000D03*
D33*
X153618500Y-114194000D03*
X150918500Y-112994000D03*
D34*
X156118500Y-120994000D03*
D35*
X177842000Y-105290000D03*
X177842000Y-107790000D03*
X177842000Y-111090000D03*
X177842000Y-112790000D03*
X177842000Y-115290000D03*
X177842000Y-117790000D03*
X177842000Y-120210000D03*
X177842000Y-121910000D03*
X177842000Y-102790000D03*
X177842000Y-109440000D03*
X177842000Y-125260000D03*
D36*
X198842000Y-97760000D03*
X200042000Y-125760000D03*
D37*
X202142000Y-100060000D03*
X202142000Y-124260000D03*
D38*
X135005500Y-67373500D03*
X143505500Y-67373500D03*
D22*
X139624500Y-103695500D03*
X138124500Y-103695500D03*
X140894500Y-74866500D03*
X139394500Y-74866500D03*
X136600500Y-73088500D03*
X138100500Y-73088500D03*
X142061500Y-74866500D03*
X143561500Y-74866500D03*
D21*
X165862000Y-75005500D03*
X165862000Y-76505500D03*
X164338000Y-75005500D03*
X164338000Y-76505500D03*
D22*
X197306500Y-78867000D03*
X198806500Y-78867000D03*
D21*
X191325500Y-72783000D03*
X191325500Y-74283000D03*
D22*
X202870500Y-78994000D03*
X201370500Y-78994000D03*
X173494000Y-76454000D03*
X174994000Y-76454000D03*
X183146000Y-79311500D03*
X184646000Y-79311500D03*
X139942000Y-63690500D03*
X138442000Y-63690500D03*
D21*
X202247500Y-87007000D03*
X202247500Y-88507000D03*
X118935500Y-65202500D03*
X118935500Y-63702500D03*
D22*
X118630000Y-67754500D03*
X120130000Y-67754500D03*
D39*
X180377500Y-85915500D03*
X177127500Y-85915500D03*
D40*
X174625000Y-99501000D03*
X174625000Y-94301000D03*
X173355000Y-99501000D03*
X172085000Y-99501000D03*
X170815000Y-99501000D03*
X173355000Y-94301000D03*
X172085000Y-94301000D03*
X170815000Y-94301000D03*
D41*
X160771500Y-83756500D03*
X157871500Y-83756500D03*
X160771500Y-87312500D03*
X157871500Y-87312500D03*
D22*
X77966000Y-83058000D03*
X76466000Y-83058000D03*
X77966000Y-84582000D03*
X76466000Y-84582000D03*
X77966000Y-86106000D03*
X76466000Y-86106000D03*
X77966000Y-87630000D03*
X76466000Y-87630000D03*
X77966000Y-91186000D03*
X76466000Y-91186000D03*
X77966000Y-92710000D03*
X76466000Y-92710000D03*
X77966000Y-94234000D03*
X76466000Y-94234000D03*
X77966000Y-95758000D03*
X76466000Y-95758000D03*
M02*
