G04 #@! TF.FileFunction,Legend,Bot*
%FSLAX46Y46*%
G04 Gerber Fmt 4.6, Leading zero omitted, Abs format (unit mm)*
G04 Created by KiCad (PCBNEW 4.0.6) date Saturday, December 30, 2017 'PMt' 02:35:40 PM*
%MOMM*%
%LPD*%
G01*
G04 APERTURE LIST*
%ADD10C,0.100000*%
%ADD11C,0.150000*%
%ADD12C,0.127000*%
%ADD13C,0.609600*%
%ADD14C,0.050000*%
G04 APERTURE END LIST*
D10*
D11*
X80288458Y-77216000D02*
G75*
G03X80288458Y-77216000I-341958J0D01*
G01*
D12*
X135965000Y-120702000D02*
X135965000Y-114502000D01*
X135965000Y-114502000D02*
X142165000Y-114502000D01*
X142165000Y-114502000D02*
X142165000Y-120702000D01*
X142165000Y-120702000D02*
X135965000Y-120702000D01*
D13*
X142615000Y-122202000D02*
G75*
G03X142615000Y-122202000I-50000J0D01*
G01*
D12*
X132005000Y-114502000D02*
X132005000Y-120702000D01*
X132005000Y-120702000D02*
X125805000Y-120702000D01*
X125805000Y-120702000D02*
X125805000Y-114502000D01*
X125805000Y-114502000D02*
X132005000Y-114502000D01*
D13*
X125455000Y-113002000D02*
G75*
G03X125455000Y-113002000I-50000J0D01*
G01*
D12*
X121845000Y-114502000D02*
X121845000Y-120702000D01*
X121845000Y-120702000D02*
X115645000Y-120702000D01*
X115645000Y-120702000D02*
X115645000Y-114502000D01*
X115645000Y-114502000D02*
X121845000Y-114502000D01*
D13*
X115295000Y-113002000D02*
G75*
G03X115295000Y-113002000I-50000J0D01*
G01*
D12*
X111685000Y-114502000D02*
X111685000Y-120702000D01*
X111685000Y-120702000D02*
X105485000Y-120702000D01*
X105485000Y-120702000D02*
X105485000Y-114502000D01*
X105485000Y-114502000D02*
X111685000Y-114502000D01*
D13*
X105135000Y-113002000D02*
G75*
G03X105135000Y-113002000I-50000J0D01*
G01*
D12*
X101525000Y-114502000D02*
X101525000Y-120702000D01*
X101525000Y-120702000D02*
X95325000Y-120702000D01*
X95325000Y-120702000D02*
X95325000Y-114502000D01*
X95325000Y-114502000D02*
X101525000Y-114502000D01*
D13*
X94975000Y-113002000D02*
G75*
G03X94975000Y-113002000I-50000J0D01*
G01*
D12*
X91365000Y-114502000D02*
X91365000Y-120702000D01*
X91365000Y-120702000D02*
X85165000Y-120702000D01*
X85165000Y-120702000D02*
X85165000Y-114502000D01*
X85165000Y-114502000D02*
X91365000Y-114502000D01*
D13*
X84815000Y-113002000D02*
G75*
G03X84815000Y-113002000I-50000J0D01*
G01*
D11*
X83272381Y-105394167D02*
X83986667Y-105394167D01*
X84129524Y-105346547D01*
X84224762Y-105251309D01*
X84272381Y-105108452D01*
X84272381Y-105013214D01*
X83367619Y-105822738D02*
X83320000Y-105870357D01*
X83272381Y-105965595D01*
X83272381Y-106203691D01*
X83320000Y-106298929D01*
X83367619Y-106346548D01*
X83462857Y-106394167D01*
X83558095Y-106394167D01*
X83700952Y-106346548D01*
X84272381Y-105775119D01*
X84272381Y-106394167D01*
D14*
X143086874Y-117607244D02*
X143134591Y-117750397D01*
X143182309Y-117798115D01*
X143277744Y-117845833D01*
X143420897Y-117845833D01*
X143516332Y-117798115D01*
X143564050Y-117750397D01*
X143611767Y-117654962D01*
X143611767Y-117273221D01*
X142609697Y-117273221D01*
X142609697Y-117607244D01*
X142657415Y-117702680D01*
X142705133Y-117750397D01*
X142800568Y-117798115D01*
X142896003Y-117798115D01*
X142991438Y-117750397D01*
X143039156Y-117702680D01*
X143086874Y-117607244D01*
X143086874Y-117273221D01*
X143611767Y-118800185D02*
X143611767Y-118227573D01*
X143611767Y-118513879D02*
X142609697Y-118513879D01*
X142752850Y-118418444D01*
X142848285Y-118323009D01*
X142896003Y-118227573D01*
X124739974Y-116785556D02*
X124787691Y-116928709D01*
X124835409Y-116976427D01*
X124930844Y-117024145D01*
X125073997Y-117024145D01*
X125169432Y-116976427D01*
X125217150Y-116928709D01*
X125264867Y-116833274D01*
X125264867Y-116451533D01*
X124262797Y-116451533D01*
X124262797Y-116785556D01*
X124310515Y-116880992D01*
X124358233Y-116928709D01*
X124453668Y-116976427D01*
X124549103Y-116976427D01*
X124644538Y-116928709D01*
X124692256Y-116880992D01*
X124739974Y-116785556D01*
X124739974Y-116451533D01*
X124358233Y-117405885D02*
X124310515Y-117453603D01*
X124262797Y-117549038D01*
X124262797Y-117787626D01*
X124310515Y-117883062D01*
X124358233Y-117930779D01*
X124453668Y-117978497D01*
X124549103Y-117978497D01*
X124692256Y-117930779D01*
X125264867Y-117358168D01*
X125264867Y-117978497D01*
X114579974Y-116785556D02*
X114627691Y-116928709D01*
X114675409Y-116976427D01*
X114770844Y-117024145D01*
X114913997Y-117024145D01*
X115009432Y-116976427D01*
X115057150Y-116928709D01*
X115104867Y-116833274D01*
X115104867Y-116451533D01*
X114102797Y-116451533D01*
X114102797Y-116785556D01*
X114150515Y-116880992D01*
X114198233Y-116928709D01*
X114293668Y-116976427D01*
X114389103Y-116976427D01*
X114484538Y-116928709D01*
X114532256Y-116880992D01*
X114579974Y-116785556D01*
X114579974Y-116451533D01*
X114102797Y-117358168D02*
X114102797Y-117978497D01*
X114484538Y-117644474D01*
X114484538Y-117787626D01*
X114532256Y-117883062D01*
X114579974Y-117930779D01*
X114675409Y-117978497D01*
X114913997Y-117978497D01*
X115009432Y-117930779D01*
X115057150Y-117883062D01*
X115104867Y-117787626D01*
X115104867Y-117501321D01*
X115057150Y-117405885D01*
X115009432Y-117358168D01*
X104419974Y-116785556D02*
X104467691Y-116928709D01*
X104515409Y-116976427D01*
X104610844Y-117024145D01*
X104753997Y-117024145D01*
X104849432Y-116976427D01*
X104897150Y-116928709D01*
X104944867Y-116833274D01*
X104944867Y-116451533D01*
X103942797Y-116451533D01*
X103942797Y-116785556D01*
X103990515Y-116880992D01*
X104038233Y-116928709D01*
X104133668Y-116976427D01*
X104229103Y-116976427D01*
X104324538Y-116928709D01*
X104372256Y-116880992D01*
X104419974Y-116785556D01*
X104419974Y-116451533D01*
X104276821Y-117883062D02*
X104944867Y-117883062D01*
X103895080Y-117644474D02*
X104610844Y-117405885D01*
X104610844Y-118026215D01*
X94259974Y-116785556D02*
X94307691Y-116928709D01*
X94355409Y-116976427D01*
X94450844Y-117024145D01*
X94593997Y-117024145D01*
X94689432Y-116976427D01*
X94737150Y-116928709D01*
X94784867Y-116833274D01*
X94784867Y-116451533D01*
X93782797Y-116451533D01*
X93782797Y-116785556D01*
X93830515Y-116880992D01*
X93878233Y-116928709D01*
X93973668Y-116976427D01*
X94069103Y-116976427D01*
X94164538Y-116928709D01*
X94212256Y-116880992D01*
X94259974Y-116785556D01*
X94259974Y-116451533D01*
X93782797Y-117930779D02*
X93782797Y-117453603D01*
X94259974Y-117405885D01*
X94212256Y-117453603D01*
X94164538Y-117549038D01*
X94164538Y-117787626D01*
X94212256Y-117883062D01*
X94259974Y-117930779D01*
X94355409Y-117978497D01*
X94593997Y-117978497D01*
X94689432Y-117930779D01*
X94737150Y-117883062D01*
X94784867Y-117787626D01*
X94784867Y-117549038D01*
X94737150Y-117453603D01*
X94689432Y-117405885D01*
X84099974Y-116785556D02*
X84147691Y-116928709D01*
X84195409Y-116976427D01*
X84290844Y-117024145D01*
X84433997Y-117024145D01*
X84529432Y-116976427D01*
X84577150Y-116928709D01*
X84624867Y-116833274D01*
X84624867Y-116451533D01*
X83622797Y-116451533D01*
X83622797Y-116785556D01*
X83670515Y-116880992D01*
X83718233Y-116928709D01*
X83813668Y-116976427D01*
X83909103Y-116976427D01*
X84004538Y-116928709D01*
X84052256Y-116880992D01*
X84099974Y-116785556D01*
X84099974Y-116451533D01*
X83622797Y-117883062D02*
X83622797Y-117692191D01*
X83670515Y-117596756D01*
X83718233Y-117549038D01*
X83861385Y-117453603D01*
X84052256Y-117405885D01*
X84433997Y-117405885D01*
X84529432Y-117453603D01*
X84577150Y-117501321D01*
X84624867Y-117596756D01*
X84624867Y-117787626D01*
X84577150Y-117883062D01*
X84529432Y-117930779D01*
X84433997Y-117978497D01*
X84195409Y-117978497D01*
X84099974Y-117930779D01*
X84052256Y-117883062D01*
X84004538Y-117787626D01*
X84004538Y-117596756D01*
X84052256Y-117501321D01*
X84099974Y-117453603D01*
X84195409Y-117405885D01*
M02*
